<svg width="512" height="512" viewBox="0 0 512 512" fill="none" xmlns="http://www.w3.org/2000/svg">
<path d="M65.875 88.375H487V502H125.875C92.7379 502 65.875 475.137 65.875 442V88.375Z" fill="#36687F"/>
<path d="M25 55L100.937 10H393.062C426.199 10 453.062 36.8629 453.062 70V355.75H100.937L25 400.75V55Z" fill="#39A5CC"/>
<path d="M25 55L100.937 10V355.75L25 400.75V55Z" fill="#7FC5DE"/>
<path d="M271.799 284.976C256.613 284.976 243.147 282.38 231.401 277.188C219.719 271.931 210.504 264.695 203.755 255.48C197.005 246.265 193.566 235.654 193.436 223.648H241.914C242.109 227.996 243.504 231.857 246.1 235.232C248.696 238.542 252.233 241.138 256.711 243.02C261.189 244.902 266.283 245.843 271.994 245.843C277.705 245.843 282.734 244.837 287.083 242.825C291.496 240.748 294.935 237.925 297.401 234.356C299.867 230.722 301.068 226.568 301.003 221.896C301.068 217.223 299.737 213.07 297.012 209.435C294.286 205.801 290.425 202.978 285.428 200.966C280.495 198.955 274.655 197.949 267.905 197.949H248.534V163.683H267.905C273.811 163.683 279.003 162.71 283.481 160.763C288.024 158.816 291.56 156.09 294.091 152.586C296.622 149.016 297.855 144.928 297.791 140.32C297.855 135.842 296.785 131.916 294.578 128.541C292.437 125.102 289.419 122.441 285.525 120.559C281.696 118.677 277.251 117.736 272.189 117.736C266.867 117.736 262.032 118.677 257.684 120.559C253.401 122.441 249.994 125.102 247.463 128.541C244.932 131.981 243.602 135.972 243.472 140.515H197.427C197.557 128.639 200.867 118.19 207.357 109.17C213.846 100.084 222.672 92.9778 233.835 87.8509C245.062 82.7241 257.846 80.1606 272.189 80.1606C286.466 80.1606 299.024 82.6592 309.861 87.6562C320.699 92.6533 329.136 99.4675 335.171 108.099C341.207 116.665 344.224 126.367 344.224 137.205C344.289 148.432 340.623 157.68 333.224 164.949C325.891 172.217 316.448 176.695 304.897 178.382V179.94C320.342 181.757 331.991 186.754 339.844 194.931C347.761 203.108 351.687 213.329 351.623 225.595C351.623 237.146 348.215 247.4 341.401 256.356C334.652 265.247 325.242 272.256 313.171 277.383C301.165 282.445 287.375 284.976 271.799 284.976Z" fill="white"/>
<path d="M164.956 390.932H185.854L203.581 434.159H204.399L222.126 390.932H243.024V460.75H226.592V417.863H226.013L209.24 460.307H198.74L181.967 417.625H181.388V460.75H164.956V390.932Z" fill="white"/>
<path d="M268.652 460.75H250.516L274.072 390.932H296.538L320.095 460.75H301.959L285.561 408.523H285.016L268.652 460.75ZM266.232 433.273H304.141V446.091H266.232V433.273Z" fill="white"/>
<path d="M344.692 390.932L357.442 412.988H357.987L370.874 390.932H389.76L368.692 425.841L390.442 460.75H371.078L357.987 438.454H357.442L344.351 460.75H325.124L346.771 425.841L325.669 390.932H344.692Z" fill="white"/>
</svg>
