<svg width="512" height="512" viewBox="0 0 512 512" fill="none" xmlns="http://www.w3.org/2000/svg">
<path d="M97.125 10H414.875C463.05 10 502 49.9487 502 99.359V412.641C502 462.051 463.05 502 414.875 502H97.125C48.95 502 10 462.051 10 412.641V99.359C10 49.9487 48.95 10 97.125 10Z" fill="#001E36"/>
<path d="M108 359.409V148.485C108 147.05 108.615 146.23 110.05 146.23C113.535 146.23 116.815 146.23 121.53 146.025C126.45 145.82 131.575 145.82 137.11 145.615C142.645 145.41 148.59 145.41 154.945 145.205C161.3 145 167.45 145 173.6 145C190.41 145 204.35 147.05 215.83 151.354C226.08 154.839 235.51 160.578 243.3 168.163C249.86 174.722 254.985 182.716 258.265 191.53C261.34 200.14 262.98 208.954 262.98 218.178C262.98 235.806 258.88 250.36 250.68 261.838C242.48 273.317 231 281.926 217.675 286.846C203.735 291.97 188.36 293.815 171.55 293.815C166.63 293.815 163.35 293.815 161.3 293.61C159.25 293.405 156.38 293.405 152.485 293.405V359.204C152.69 360.639 151.665 361.869 150.23 362.074C150.025 362.074 149.82 362.074 149.41 362.074H110.46C108.82 362.074 108 361.254 108 359.409ZM152.69 185.791V254.664C155.56 254.869 158.225 255.074 160.685 255.074H171.55C179.545 255.074 187.54 253.844 195.125 251.384C201.685 249.54 207.425 245.645 211.935 240.521C216.24 235.396 218.29 228.427 218.29 219.408C218.495 213.053 216.855 206.699 213.575 201.164C210.09 195.835 205.17 191.735 199.225 189.481C191.64 186.406 183.44 185.176 175.035 185.381C169.705 185.381 164.99 185.381 161.095 185.586C156.995 185.381 154.125 185.586 152.69 185.791Z" fill="#31A8FF"/>
<path d="M390.9 242.16C384.75 238.881 378.19 236.626 371.22 235.191C363.635 233.551 356.05 232.526 348.26 232.526C344.16 232.321 339.855 232.936 335.96 233.961C333.295 234.576 331.04 236.011 329.605 238.061C328.58 239.701 327.965 241.75 327.965 243.595C327.965 245.44 328.785 247.285 330.015 248.925C331.86 251.179 334.32 253.024 336.985 254.459C341.7 256.919 346.62 259.174 351.54 261.223C362.61 264.913 373.27 270.038 383.11 276.187C389.875 280.492 395.41 286.231 399.305 293.2C402.585 299.76 404.225 306.934 404.02 314.313C404.225 323.947 401.355 333.581 396.025 341.576C390.285 349.775 382.29 356.129 373.065 359.819C363.02 364.123 350.72 366.378 335.96 366.378C326.53 366.378 317.305 365.558 308.08 363.713C300.905 362.483 293.73 360.229 287.17 357.154C285.735 356.334 284.71 354.899 284.915 353.259V317.593C284.915 316.978 285.12 316.158 285.735 315.748C286.35 315.338 286.965 315.543 287.58 315.953C295.575 320.668 303.98 323.947 313 325.997C320.79 328.047 328.99 329.072 337.19 329.072C344.98 329.072 350.515 328.047 354.205 326.202C357.485 324.767 359.74 321.283 359.74 317.593C359.74 314.723 358.1 312.058 354.82 309.394C351.54 306.729 344.775 303.654 334.73 299.76C324.275 296.07 314.64 291.151 305.62 285.001C299.265 280.492 293.935 274.547 290.04 267.578C286.76 261.019 285.12 253.844 285.325 246.67C285.325 237.856 287.785 229.452 292.295 221.867C297.42 213.668 305.005 207.109 313.82 203.009C323.455 198.09 335.55 195.835 350.105 195.835C358.51 195.835 367.12 196.45 375.525 197.68C381.675 198.5 387.62 200.14 393.155 202.394C393.975 202.599 394.795 203.419 395.205 204.239C395.41 205.059 395.615 205.879 395.615 206.699V240.111C395.615 240.93 395.205 241.75 394.59 242.16C392.745 242.57 391.72 242.57 390.9 242.16Z" fill="#31A8FF"/>
</svg>
