<svg width="512" height="512" viewBox="0 0 512 512" fill="none" xmlns="http://www.w3.org/2000/svg">
<path d="M97.125 10H414.875C463.05 10 502 49.9487 502 99.359V412.641C502 462.051 463.05 502 414.875 502H97.125C48.95 502 10 462.051 10 412.641V99.359C10 49.9487 48.95 10 97.125 10Z" fill="#330000"/>
<path d="M255.606 320.081H179.429L163.866 368.116C163.456 369.956 161.818 371.182 159.975 370.978H121.477C119.224 370.978 118.61 369.752 119.224 367.299L185.163 177.815C185.777 175.771 186.391 173.522 187.211 171.07C188.03 166.777 188.439 162.28 188.439 157.783C188.234 156.761 189.054 155.739 190.077 155.535H243.115C244.753 155.535 245.572 156.148 245.777 157.17L320.521 367.708C321.135 369.956 320.521 370.978 318.473 370.978H275.674C274.241 371.182 272.808 370.16 272.398 368.73L255.606 320.081ZM191.306 278.587H243.32C242.091 274.294 240.453 269.184 238.61 263.87C236.767 258.351 234.924 252.423 233.081 246.291C231.033 239.954 229.19 233.822 227.142 227.485C225.094 221.149 223.251 215.221 221.613 209.293C219.975 203.57 218.541 198.256 217.108 193.35H216.698C214.855 202.139 212.603 210.929 209.736 219.718C206.664 229.53 203.593 239.75 200.316 249.97C197.449 260.395 194.378 270.002 191.306 278.587ZM366.186 191.306C359.428 191.51 352.876 188.853 347.961 184.152C343.251 179.041 340.794 172.296 340.999 165.346C340.794 158.396 343.456 151.856 348.371 147.154C353.285 142.453 359.838 140 366.596 140C374.582 140 380.725 142.453 385.23 147.154C389.736 152.06 392.193 158.601 391.988 165.346C392.193 172.296 389.736 179.041 384.821 184.152C380.111 189.057 373.149 191.715 366.186 191.306ZM343.251 368.73V211.337C343.251 209.293 344.07 208.476 345.913 208.476H386.459C388.302 208.476 389.121 209.498 389.121 211.337V368.73C389.121 370.978 388.302 372 386.459 372H346.323C344.275 372 343.251 370.774 343.251 368.73Z" fill="#FF9A00"/>
</svg>
