<svg width="156" height="156" viewBox="0 0 156 156" fill="none" xmlns="http://www.w3.org/2000/svg">
<g filter="url(#filter0_f_245_6)">
<path fill-rule="evenodd" clip-rule="evenodd" d="M28 88.3611C28 88.3611 55.7778 61.2778 78 21C100.222 61.2778 128 88.3611 128 88.3611C122.444 95.3056 111.333 96.6945 111.333 96.6945C90.5 67.5278 89.1111 70.3056 87.7222 73.7778C86.3333 77.25 86.3333 106.417 90.5 132.806C87.7222 134.194 82.1645 135.583 77.9989 135.583C73.8333 135.583 68.2778 134.194 65.5 132.806C69.6667 106.417 69.6667 77.25 68.2778 73.7778C66.8889 70.3056 65.5 67.5278 44.6667 96.6945C44.6667 96.6945 33.5556 95.3056 28 88.3611ZM82.0069 55.8818L78 48.7777L73.9931 55.8818L66.8889 59.8888L73.9931 63.8957L78 70.9999L82.0069 63.8957L89.1111 59.8888L82.0069 55.8818Z" fill="#9E9E9E"/>
</g>
<path fill-rule="evenodd" clip-rule="evenodd" d="M28 88.3611C28 88.3611 55.7778 61.2778 78 21C100.222 61.2778 128 88.3611 128 88.3611C122.444 95.3056 111.333 96.6945 111.333 96.6945C90.5 67.5278 89.1111 70.3056 87.7222 73.7778C86.3333 77.25 86.3333 106.417 90.5 132.806C87.7222 134.194 82.1645 135.583 77.9989 135.583C73.8333 135.583 68.2778 134.194 65.5 132.806C69.6667 106.417 69.6667 77.25 68.2778 73.7778C66.8889 70.3056 65.5 67.5278 44.6667 96.6945C44.6667 96.6945 33.5556 95.3056 28 88.3611ZM83.5095 54.3792L78 44.611L72.4905 54.3792L62.7222 59.8888L72.4905 65.3983L78 75.1666L83.5095 65.3983L93.2778 59.8888L83.5095 54.3792Z" fill="#CBC2AA"/>
<defs>
<filter id="filter0_f_245_6" x="18" y="11" width="120" height="134.583" filterUnits="userSpaceOnUse" color-interpolation-filters="sRGB">
<feFlood flood-opacity="0" result="BackgroundImageFix"/>
<feBlend mode="normal" in="SourceGraphic" in2="BackgroundImageFix" result="shape"/>
<feGaussianBlur stdDeviation="5" result="effect1_foregroundBlur_245_6"/>
</filter>
</defs>
</svg>
