<svg width="404" height="403" viewBox="0 0 404 403" fill="none" xmlns="http://www.w3.org/2000/svg">
<path fill-rule="evenodd" clip-rule="evenodd" d="M390.304 266.201L391.291 269.088L380.745 272.694L381.03 273.528C381.46 273.62 381.877 273.777 382.282 273.999C383.464 274.665 384.325 275.788 384.865 277.367C385.197 278.338 385.339 279.258 385.291 280.129C385.242 280.993 385.001 281.912 384.569 282.887L381.296 282.13C381.718 281.347 381.989 280.643 382.107 280.019C382.223 279.368 382.191 278.782 382.013 278.259C381.845 277.768 381.575 277.405 381.204 277.171C380.833 276.936 380.447 276.888 380.048 277.024C379.611 277.173 379.315 277.424 379.158 277.777C379.019 278.144 378.989 278.859 379.069 279.922C379.172 281.373 379.04 282.471 378.672 283.215C378.463 283.631 378.162 283.984 377.769 284.273L380.217 291.786L373.61 293.938L374.572 296.75L369.735 300.012C369.398 300.239 369.085 300.441 368.796 300.617C368.766 300.633 368.707 300.671 368.621 300.73C368.535 300.789 368.431 300.857 368.309 300.934C368.35 300.932 368.519 300.916 368.816 300.885C369.273 300.836 369.668 300.804 370.001 300.791L375.814 300.385L376.823 303.336L370.59 307.569L370.882 310.538L359.791 311.63L359.877 312.508C360.274 312.695 360.645 312.944 360.988 313.253C361.985 314.172 362.566 315.462 362.73 317.124C362.83 318.144 362.758 319.073 362.512 319.909C362.265 320.739 361.82 321.579 361.177 322.428L358.164 320.942C358.755 320.276 359.179 319.653 359.437 319.073C359.699 318.466 359.803 317.888 359.749 317.338C359.698 316.821 359.519 316.406 359.211 316.093C358.904 315.78 358.54 315.644 358.119 315.686C357.66 315.731 357.314 315.907 357.08 316.214C356.861 316.539 356.669 317.229 356.502 318.282C356.27 319.718 355.89 320.756 355.361 321.396C355.062 321.754 354.689 322.028 354.24 322.219L354.9 330.093L347.977 330.674L348.268 333.632L342.812 335.698C342.432 335.842 342.081 335.967 341.759 336.072C341.726 336.08 341.661 336.104 341.564 336.142C341.466 336.179 341.349 336.222 341.213 336.269C341.253 336.276 341.421 336.299 341.718 336.337C342.174 336.394 342.566 336.454 342.893 336.517L348.644 337.454L348.95 340.558L341.364 343.459L340.914 346.78L329.869 345.285L329.751 346.158C330.094 346.432 330.397 346.76 330.66 347.14C331.419 348.264 331.686 349.654 331.462 351.308C331.324 352.324 331.04 353.211 330.607 353.968C330.176 354.719 329.549 355.433 328.727 356.111L326.138 353.97C326.867 353.458 327.424 352.95 327.809 352.445C328.204 351.915 328.438 351.376 328.512 350.829C328.582 350.314 328.503 349.869 328.276 349.493C328.049 349.118 327.726 348.902 327.307 348.845C326.85 348.783 326.473 348.875 326.175 349.119C325.887 349.385 325.54 350.012 325.135 350.998C324.578 352.342 323.969 353.265 323.306 353.765C322.933 354.044 322.507 354.225 322.026 354.307L320.852 362.122L313.981 361.089L313.582 364.034L307.797 364.786C307.394 364.839 307.024 364.879 306.686 364.907C306.652 364.908 306.583 364.916 306.48 364.93C306.376 364.944 306.252 364.959 306.109 364.973C306.13 364.982 306.19 365.006 306.288 365.044C306.364 365.073 306.463 365.11 306.585 365.156C307.015 365.317 307.383 365.465 307.686 365.602L313.067 367.841L312.648 370.931L305.131 371.933L304.055 374.736L293.65 370.741L293.334 371.564C293.605 371.91 293.825 372.298 293.993 372.728C294.473 373.997 294.414 375.41 293.816 376.969C293.448 377.926 292.967 378.724 292.372 379.361C291.78 379.993 291.006 380.544 290.05 381.015L288.022 378.335C288.849 378.005 289.508 377.638 289.999 377.235C290.505 376.81 290.857 376.34 291.055 375.824C291.241 375.34 291.267 374.888 291.132 374.471C290.998 374.053 290.733 373.768 290.338 373.617C289.908 373.451 289.52 373.454 289.173 373.623C288.832 373.816 288.35 374.346 287.729 375.213C286.878 376.393 286.073 377.15 285.313 377.485C284.886 377.671 284.429 377.749 283.943 377.719L281.004 385.054L274.554 382.469L273.489 385.244L267.685 384.645C267.281 384.604 266.912 384.558 266.577 384.508C266.543 384.501 266.475 384.492 266.37 384.482C266.266 384.472 266.143 384.458 266 384.439C266.015 384.451 266.055 384.479 266.119 384.522C266.19 384.571 266.291 384.639 266.421 384.727C266.803 384.982 267.126 385.211 267.39 385.414L272.112 388.83L270.994 391.741L263.297 390.973L261.535 393.545L252.341 387.245L251.843 387.972C252.026 388.371 252.15 388.8 252.213 389.257C252.386 390.603 252 391.964 251.057 393.341C250.477 394.187 249.824 394.851 249.098 395.333C248.375 395.81 247.494 396.167 246.455 396.403L245.105 393.326C245.985 393.197 246.711 392.993 247.282 392.715C247.873 392.419 248.325 392.043 248.637 391.587C248.93 391.159 249.06 390.726 249.026 390.289C248.992 389.851 248.801 389.513 248.452 389.274C248.072 389.013 247.693 388.925 247.317 389.01C246.94 389.118 246.349 389.522 245.544 390.221C244.442 391.171 243.483 391.721 242.667 391.871C242.208 391.952 241.746 391.922 241.279 391.78L236.719 398.233L231.044 394.222L229.365 396.674L223.859 394.745C223.475 394.612 223.126 394.481 222.812 394.354C222.781 394.34 222.716 394.316 222.617 394.282C222.518 394.248 222.401 394.205 222.267 394.154C222.278 394.167 222.304 394.197 222.346 394.243C222.404 394.307 222.492 394.403 222.609 394.531C222.922 394.868 223.183 395.166 223.393 395.425L227.193 399.843L225.431 402.415L217.521 399.674L214.935 402.012L207.459 393.746L206.805 394.338C206.891 394.768 206.911 395.214 206.867 395.674C206.722 397.022 206.03 398.257 204.792 399.377C204.031 400.064 203.242 400.558 202.423 400.858C201.609 401.154 200.67 401.296 199.604 401.284L199.007 397.977C199.893 398.056 200.647 398.027 201.267 397.889C201.91 397.739 202.437 397.478 202.846 397.108C203.232 396.76 203.458 396.369 203.527 395.935C203.596 395.502 203.489 395.128 203.205 394.815C202.896 394.473 202.548 394.299 202.163 394.294C201.771 394.312 201.102 394.567 200.156 395.059C198.864 395.727 197.803 396.039 196.974 395.994C196.509 395.967 196.066 395.83 195.646 395.583L189.709 400.798L185.124 395.577L182.92 397.571L178.013 394.414C177.671 394.195 177.362 393.987 177.087 393.79C177.06 393.769 177.002 393.731 176.914 393.675C176.86 393.64 176.8 393.601 176.734 393.557C176.692 393.529 176.649 393.5 176.603 393.469C176.621 393.505 176.703 393.654 176.848 393.915C177.074 394.315 177.259 394.666 177.403 394.967L180.071 400.147L177.758 402.239L171.132 398.007L168.317 399.552L162.956 389.78L162.183 390.205C162.167 390.644 162.084 391.082 161.934 391.519C161.481 392.797 160.523 393.838 159.059 394.641C158.16 395.134 157.278 395.432 156.412 395.535C155.552 395.634 154.605 395.555 153.571 395.296L153.754 391.942C154.599 392.223 155.338 392.369 155.973 392.379C156.634 392.381 157.207 392.25 157.691 391.984C158.146 391.734 158.457 391.406 158.625 391.001C158.792 390.595 158.774 390.207 158.57 389.836C158.349 389.432 158.051 389.182 157.677 389.088C157.291 389.015 156.582 389.108 155.548 389.369C154.136 389.72 153.032 389.778 152.236 389.542C151.789 389.408 151.39 389.172 151.038 388.835L144.056 392.535L140.803 386.396L138.197 387.825L134.155 383.619C133.873 383.327 133.62 383.053 133.397 382.798C133.376 382.771 133.329 382.72 133.256 382.645C133.183 382.571 133.098 382.48 133.001 382.373C133.01 382.413 133.055 382.577 133.136 382.864C133.264 383.306 133.362 383.69 133.432 384.016L134.83 389.673L132.096 391.173L126.451 385.339L123.271 386.207L120.335 375.456L119.485 375.688C119.366 376.111 119.183 376.518 118.936 376.908C118.197 378.045 117.023 378.834 115.412 379.274C114.423 379.544 113.495 379.628 112.63 379.526C111.77 379.422 110.868 379.124 109.922 378.632L110.883 375.412C111.638 375.883 112.324 376.197 112.939 376.354C113.581 376.511 114.169 376.517 114.701 376.371C115.202 376.234 115.581 375.988 115.838 375.633C116.096 375.277 116.169 374.895 116.057 374.487C115.936 374.043 115.704 373.731 115.362 373.552C115.005 373.391 114.293 373.316 113.227 373.328C111.772 373.341 110.685 373.14 109.965 372.725C109.563 372.491 109.23 372.168 108.966 371.758L101.314 373.729L99.5812 367L96.7142 367.783L93.763 362.751C93.557 362.4 93.3753 362.075 93.218 361.775C93.2037 361.744 93.1698 361.684 93.1162 361.594C93.0626 361.504 93.0011 361.396 92.9318 361.27C92.9313 361.311 92.937 361.48 92.9489 361.779C92.9697 362.238 92.9762 362.634 92.9684 362.968L93.0086 368.795L90.0003 369.616L86.2699 363.303L83.4628 363.405L83.0579 352.267L82.1768 352.299C81.9651 352.684 81.6941 353.038 81.364 353.361C80.3853 354.301 79.0617 354.8 77.3934 354.861C76.3687 354.898 75.4465 354.768 74.6267 354.471C73.8135 354.174 73.0029 353.678 72.195 352.983L73.8648 350.068C74.4928 350.699 75.0884 351.161 75.6516 351.454C76.2412 351.753 76.8119 351.893 77.3636 351.873C77.8825 351.854 78.3078 351.701 78.6393 351.413C78.9709 351.125 79.129 350.77 79.1136 350.348C79.0969 349.887 78.9425 349.531 78.6505 349.279C78.3393 349.04 77.6632 348.805 76.6222 348.574C75.2031 348.254 74.1905 347.81 73.5845 347.242C73.2461 346.922 72.9954 346.532 72.8323 346.073L64.9324 346.245L64.7808 339.299L61.8108 339.407L60.0858 333.834C59.9652 333.446 59.8624 333.088 59.7776 332.76C59.7708 332.726 59.7516 332.66 59.7199 332.56C59.6882 332.46 59.6531 332.341 59.6144 332.202C59.6046 332.242 59.5714 332.409 59.5148 332.702C59.4303 333.154 59.3462 333.541 59.2626 333.864L57.9721 339.546L54.8557 339.66L52.4404 331.946L49.1651 331.294L51.3437 320.363L50.479 320.191C50.1841 320.517 49.8387 320.799 49.4428 321.037C48.2736 321.725 46.8704 321.905 45.2332 321.579C44.2276 321.379 43.3603 321.039 42.6313 320.561C41.9087 320.084 41.2346 319.414 40.609 318.551L42.9071 316.1C43.3725 316.859 43.8452 317.446 44.3253 317.862C44.83 318.289 45.353 318.557 45.8945 318.665C46.4037 318.766 46.8528 318.715 47.2419 318.512C47.6309 318.309 47.8667 318 47.9493 317.585C48.0394 317.133 47.9716 316.751 47.7457 316.438C47.498 316.134 46.8945 315.749 45.935 315.284C44.6282 314.644 43.7455 313.979 43.287 313.286C43.0317 312.897 42.8778 312.46 42.8252 311.975L35.0991 310.318L36.5561 303.524L33.6414 302.943L33.2503 297.123C33.2225 296.717 33.2053 296.345 33.1985 296.007C33.1995 295.973 33.1962 295.903 33.1884 295.799C33.1807 295.695 33.174 295.57 33.1684 295.426C33.1497 295.463 33.079 295.617 32.9561 295.89C32.7695 296.31 32.5983 296.667 32.4425 296.962L29.8743 302.193L26.816 301.583L26.2728 293.879L23.4465 292.582L28.0945 282.452L27.2932 282.085C26.9309 282.333 26.5297 282.528 26.0894 282.668C24.7928 283.066 23.3859 282.918 21.8685 282.221C20.9366 281.794 20.1713 281.263 19.5728 280.629C18.9802 279.998 18.4793 279.19 18.0702 278.206L20.873 276.353C21.1502 277.199 21.4742 277.88 21.8451 278.395C22.2373 278.927 22.6843 279.309 23.1861 279.539C23.658 279.755 24.1068 279.81 24.5322 279.702C24.9577 279.594 25.2586 279.348 25.4349 278.964C25.6272 278.545 25.6496 278.157 25.5022 277.801C25.3316 277.448 24.8334 276.934 24.0077 276.259C22.8842 275.335 22.1795 274.483 21.8935 273.704C21.7353 273.265 21.6867 272.804 21.7476 272.321L14.6143 268.922L17.6034 262.649L14.9022 261.41L15.8682 255.656C15.935 255.255 16.0043 254.89 16.0759 254.559C16.0849 254.526 16.0976 254.458 16.1142 254.354C16.1308 254.251 16.1531 254.129 16.1809 253.987C16.1544 254.018 16.0498 254.152 15.8672 254.389C15.5885 254.754 15.3393 255.062 15.1195 255.313L11.4109 259.808L8.57669 258.507L9.87344 250.625L7.2929 248.597L14.1783 239.833L13.485 239.288C13.0748 239.445 12.6392 239.541 12.1783 239.574C10.8245 239.659 9.49124 239.186 8.17846 238.154C7.37218 237.521 6.75207 236.826 6.31813 236.07C5.88935 235.318 5.59097 234.415 5.423 233.363L8.58103 232.216C8.65298 233.103 8.8091 233.841 9.04939 234.429C9.30639 235.038 9.65197 235.513 10.0861 235.854C10.4944 236.175 10.918 236.332 11.3569 236.327C11.7958 236.322 12.1458 236.153 12.4069 235.82C12.6918 235.458 12.8042 235.086 12.7441 234.705C12.6607 234.322 12.2963 233.706 11.651 232.857C10.7745 231.696 10.2882 230.703 10.1922 229.878C10.1407 229.415 10.2011 228.955 10.3733 228.499L4.23126 223.528L8.60264 218.127L6.26563 216.291L8.54869 210.923C8.70729 210.548 8.86008 210.209 9.00704 209.904C9.0234 209.874 9.05173 209.811 9.09201 209.714C9.13229 209.617 9.18248 209.504 9.24259 209.373C9.20954 209.397 9.07657 209.502 8.84369 209.69C8.48743 209.98 8.17319 210.221 7.90096 210.414L3.24509 213.918L0.792969 211.992L3.83412 204.774L1.83617 202.271L10.547 195.319L9.99701 194.629C9.56169 194.688 9.11588 194.681 8.65957 194.608C7.32241 194.38 6.1331 193.614 5.09166 192.309C4.45204 191.508 4.0077 190.689 3.75865 189.854C3.5137 189.023 3.43006 188.077 3.50774 187.014L6.84462 186.621C6.7113 187.501 6.69422 188.255 6.79337 188.882C6.90393 189.534 7.13141 190.076 7.47582 190.507C7.79973 190.913 8.17591 191.164 8.60434 191.259C9.03278 191.354 9.41217 191.27 9.74251 191.007C10.1029 190.719 10.2975 190.383 10.3264 189.998C10.333 189.606 10.1196 188.923 9.68608 187.948C9.09896 186.617 8.85318 185.54 8.94875 184.715C9.00476 184.252 9.16886 183.819 9.44102 183.414L4.60194 177.168L10.0948 172.913L8.24087 170.59L11.6937 165.887C11.9338 165.559 12.1604 165.264 12.3733 165.001C12.3961 164.975 12.4382 164.92 12.4995 164.836C12.5609 164.751 12.6358 164.651 12.7243 164.538C12.6867 164.553 12.533 164.626 12.2633 164.755C11.85 164.956 11.4889 165.119 11.1798 165.244L5.84466 167.588L3.89938 165.15L8.54895 158.774L7.14195 155.767L17.2365 151.043L16.8628 150.245C16.4258 150.2 15.994 150.089 15.5674 149.912C14.3205 149.378 13.3433 148.355 12.6357 146.842C12.2011 145.914 11.9603 145.014 11.9135 144.143C11.8694 143.279 12.0094 142.339 12.3333 141.324L15.6695 141.722C15.3342 142.546 15.1414 143.275 15.0912 143.908C15.0464 144.568 15.141 145.148 15.375 145.648C15.5951 146.118 15.9022 146.449 16.2965 146.642C16.6908 146.835 17.0794 146.842 17.4622 146.663C17.8798 146.467 18.1476 146.186 18.2656 145.819C18.3637 145.439 18.3159 144.725 18.1221 143.676C17.8623 142.245 17.8753 141.139 18.161 140.36C18.3236 139.923 18.5844 139.54 18.9436 139.211L15.6986 132.006L22.0339 129.152L20.7742 126.461L25.2305 122.695C25.5406 122.433 25.83 122.198 26.0985 121.992C26.1266 121.973 26.1804 121.929 26.2599 121.861C26.3393 121.793 26.4354 121.714 26.548 121.624C26.5078 121.631 26.3414 121.665 26.049 121.728C25.6002 121.826 25.211 121.9 24.8813 121.949L19.1461 122.981L17.8244 120.157L23.6543 115.198L23.0091 112.081L33.9231 109.822L33.7444 108.959C33.3296 108.814 32.9352 108.606 32.5613 108.335C31.4719 107.526 30.7581 106.305 30.4197 104.67C30.212 103.666 30.1861 102.735 30.3421 101.877C30.4994 101.026 30.8531 100.144 31.4033 99.2311L34.5567 100.391C34.0396 101.115 33.6833 101.78 33.4879 102.384C33.2916 103.015 33.2494 103.601 33.3612 104.142C33.4665 104.65 33.6886 105.044 34.0275 105.323C34.3664 105.602 34.7428 105.698 35.1567 105.613C35.6082 105.519 35.9339 105.308 36.1338 104.978C36.3171 104.631 36.4359 103.925 36.4901 102.86C36.5688 101.407 36.8374 100.335 37.2958 99.6427C37.555 99.2556 37.8974 98.9433 38.3231 98.7058L36.8343 90.9455L43.6581 89.6364L43.0558 86.726L48.2626 84.0949C48.6252 83.9111 48.9609 83.7501 49.2699 83.6118C49.3017 83.5995 49.3642 83.5694 49.4572 83.5215C49.5503 83.4736 49.6621 83.419 49.7924 83.3577C49.7518 83.3547 49.5819 83.3498 49.283 83.343C48.8235 83.3351 48.4278 83.3168 48.0957 83.2883L42.2774 82.9645L41.6454 79.9108L48.393 76.473L48.4719 73.3693L59.6136 73.6527L59.636 72.7713C59.2649 72.5362 58.9282 72.244 58.6259 71.8945C57.7489 70.8597 57.3317 69.5078 57.3742 67.8389C57.4002 66.8138 57.5868 65.9014 57.9339 65.1015C58.2808 64.3082 58.8259 63.5298 59.5692 62.7663L62.3761 64.6129C61.7078 65.2008 61.2097 65.7667 60.882 66.3107C60.5472 66.8807 60.3727 67.4417 60.3587 67.9937C60.3455 68.5127 60.4722 68.9466 60.7388 69.2953C61.0054 69.644 61.3499 69.8237 61.7725 69.8344C62.2334 69.8462 62.5987 69.7141 62.8684 69.4382C63.1258 69.1423 63.402 68.482 63.6971 67.4573C64.1042 66.0606 64.6097 65.0774 65.2135 64.5076C65.554 64.1896 65.9586 63.9634 66.4271 63.829L66.7427 55.9335L73.6854 56.211L73.761 53.24L79.4299 51.8623C79.8247 51.7659 80.1883 51.6854 80.5206 51.621C80.5544 51.6163 80.622 51.6012 80.7236 51.5757C80.8251 51.5503 80.9464 51.5225 81.0872 51.4925C81.0483 51.4803 80.8841 51.4369 80.5945 51.3623C80.1489 51.25 79.7677 51.1422 79.4508 51.0389L73.8587 49.4L73.938 46.2826L81.4467 44.4315L82.2813 41.2839L93.0543 44.1403L93.2802 43.2881C92.9737 42.9734 92.7139 42.6111 92.5007 42.2011C91.8873 40.9913 91.7945 39.5795 92.2224 37.9658C92.4851 36.9747 92.878 36.1303 93.4009 35.4325C93.9221 34.7412 94.6327 34.1102 95.5326 33.5396L97.8355 35.9862C97.0491 36.4033 96.4336 36.8384 95.9887 37.2917C95.531 37.7687 95.2314 38.274 95.0899 38.8077C94.9568 39.3096 94.9796 39.761 95.1581 40.162C95.3367 40.5629 95.6303 40.8175 96.0388 40.9259C96.4845 41.044 96.8705 41.0002 97.1967 40.7943C97.5156 40.566 97.9373 39.9877 98.4618 39.0591C99.1813 37.7948 99.9007 36.9553 100.62 36.5409C101.025 36.3104 101.471 36.1841 101.958 36.1619L104.094 28.5541L110.783 30.4322L111.545 27.5595L117.379 27.5323C117.785 27.5299 118.158 27.5359 118.496 27.5502C118.53 27.5534 118.599 27.5544 118.704 27.5532C118.808 27.5519 118.933 27.553 119.077 27.5564C119.042 27.5356 118.892 27.4553 118.628 27.3156C118.22 27.1032 117.874 26.9101 117.59 26.7361L112.529 23.8465L113.329 20.8323L120.962 20.7715L122.528 17.8653L132.339 23.1523L132.757 22.3761C132.533 21.9988 132.364 21.5859 132.252 21.1375C131.938 19.8181 132.176 18.4236 132.968 16.9539C133.455 16.0512 134.033 15.3215 134.704 14.7648C135.372 14.2138 136.21 13.7657 137.218 13.4204L138.888 16.336C138.026 16.5585 137.326 16.8383 136.788 17.1755C136.232 17.5328 135.823 17.9545 135.561 18.4405C135.314 18.8976 135.231 19.3419 135.312 19.7734C135.392 20.2049 135.618 20.5209 135.99 20.7214C136.396 20.9402 136.782 20.9874 137.147 20.8631C137.51 20.7155 138.055 20.2512 138.781 19.4704C139.776 18.4083 140.671 17.7596 141.467 17.5241C141.914 17.3943 142.377 17.3752 142.856 17.467L146.705 10.566L152.773 13.9505L154.183 11.3342L159.863 12.6665C160.259 12.7588 160.619 12.8514 160.945 12.9441C160.977 12.9551 161.044 12.9722 161.147 12.9954C161.249 13.0185 161.369 13.0486 161.509 13.0854C161.479 13.0569 161.352 12.944 161.128 12.7466C160.781 12.4451 160.49 12.1767 160.254 11.9414L156.005 7.95261L157.485 5.20742L164.912 6.92378L167.108 4.45714L175.432 11.869L176.018 11.2105C175.887 10.7914 175.818 10.3508 175.813 9.88871C175.812 8.53228 176.366 7.23066 177.477 5.98385C178.159 5.2181 178.89 4.64194 179.672 4.25537C180.449 3.87371 181.368 3.63144 182.428 3.52856L183.379 6.75122C182.489 6.76841 181.743 6.87883 181.142 7.08248C180.518 7.3015 180.022 7.61718 179.655 8.02951C179.31 8.41729 179.127 8.83038 179.105 9.26876C179.083 9.70714 179.23 10.0669 179.546 10.348C179.89 10.6546 180.255 10.7897 180.639 10.7532C181.026 10.6935 181.663 10.3678 182.551 9.77598C183.763 8.97253 184.784 8.54828 185.613 8.50322C186.079 8.48034 186.534 8.56889 186.978 8.76887L192.318 2.9445L197.44 7.64006L199.416 5.42051L204.634 8.02972C204.998 8.21106 205.327 8.38446 205.623 8.54992C205.651 8.56809 205.713 8.60025 205.807 8.64641C205.901 8.69256 206.011 8.74966 206.138 8.81771C206.116 8.78326 206.019 8.64403 205.846 8.40004C205.578 8.02659 205.357 7.69809 205.182 7.41454L201.971 2.55178L204.044 0.2229L211.341 3.84167L214.387 1.71994L220.758 10.8653L221.481 10.3614C221.451 9.9232 221.487 9.47879 221.589 9.02821C221.904 7.70873 222.746 6.5719 224.116 5.6177C224.957 5.03166 225.803 4.64161 226.653 4.44754C227.498 4.25723 228.448 4.23546 229.503 4.38223L229.678 7.73761C228.808 7.54722 228.057 7.48106 227.425 7.53912C226.767 7.60696 226.212 7.79866 225.759 8.11422C225.333 8.411 225.058 8.77004 224.935 9.19135C224.812 9.61266 224.871 9.99673 225.113 10.3436C225.376 10.7219 225.699 10.9381 226.081 10.992C226.472 11.0241 227.168 10.8556 228.168 10.4865C229.535 9.9874 230.626 9.81239 231.443 9.9615C231.901 10.0475 232.323 10.2395 232.708 10.5375L239.257 6.11577L243.145 11.8743L245.584 10.1756L250.051 13.9275C250.363 14.1885 250.643 14.4339 250.892 14.6635C250.916 14.6879 250.968 14.7335 251.049 14.8002C251.129 14.867 251.223 14.9482 251.331 15.044C251.318 15.0054 251.255 14.8473 251.144 14.5698C250.971 14.1443 250.832 13.7733 250.727 13.4567L248.736 7.98017L251.295 6.19785L257.172 11.1007L260.307 9.86993L264.38 20.2445L265.201 19.9224C265.273 19.4891 265.411 19.0652 265.615 18.6507C266.228 17.4403 267.311 16.5301 268.865 15.9201C269.819 15.5455 270.733 15.3625 271.604 15.3711C272.47 15.3821 273.399 15.5815 274.392 15.9693L273.782 19.2735C272.981 18.8864 272.266 18.6477 271.637 18.5573C270.982 18.4706 270.397 18.5281 269.883 18.7299C269.4 18.9196 269.049 19.2051 268.832 19.5863C268.614 19.9675 268.583 20.3548 268.737 20.7483C268.906 21.1775 269.169 21.4627 269.528 21.6038C269.901 21.7258 270.617 21.7235 271.676 21.5968C273.121 21.4286 274.223 21.5119 274.983 21.8465C275.408 22.0365 275.774 22.3212 276.08 22.7006L283.477 19.9204L285.921 26.4244L288.688 25.3384L292.162 30.0251C292.404 30.3513 292.62 30.655 292.809 30.9361C292.826 30.9654 292.866 31.0218 292.929 31.1055C292.992 31.1891 293.065 31.29 293.147 31.4081C293.143 31.3675 293.12 31.1993 293.076 30.9035C293.006 30.4494 292.957 30.0562 292.929 29.7241L292.264 23.9349L295.166 22.7954L299.763 28.9542L303.044 28.4855L304.621 39.5187L305.493 39.394C305.663 38.989 305.895 38.6083 306.19 38.2519C307.064 37.2149 308.328 36.5783 309.98 36.3422C310.995 36.1972 311.926 36.2292 312.773 36.4382C313.613 36.6481 314.471 37.0559 315.348 37.6617L313.994 40.737C313.303 40.1759 312.662 39.7791 312.071 39.5465C311.453 39.3113 310.871 39.2328 310.325 39.3108C309.811 39.3843 309.404 39.5815 309.104 39.9024C308.805 40.2234 308.685 40.593 308.745 41.0115C308.81 41.4679 309.001 41.8061 309.318 42.0261C309.653 42.2306 310.35 42.393 311.41 42.5133C312.855 42.6821 313.908 43.0167 314.571 43.5173C314.941 43.8 315.231 44.1612 315.442 44.6009L323.28 43.597L324.162 50.4889L327.105 50.0686L329.407 55.4288C329.568 55.8021 329.708 56.1472 329.827 56.4642C329.83 56.4731 329.834 56.4845 329.839 56.4982C329.846 56.517 329.855 56.5401 329.867 56.5678C329.878 56.5936 329.89 56.6232 329.905 56.6568C329.947 56.7526 329.995 56.8676 330.048 57.0015C330.053 56.9611 330.069 56.7919 330.094 56.4939C330.131 56.0359 330.173 55.642 330.223 55.3123L330.907 49.5254L333.994 49.0843L337.034 56.0964L340.203 56.3736L339.232 67.4765L340.11 67.5533C340.368 67.1974 340.68 66.8794 341.048 66.5993C342.135 65.7879 343.51 65.455 345.173 65.6004C346.194 65.6898 347.094 65.9324 347.87 66.3282C348.641 66.7234 349.384 67.3156 350.1 68.1046L348.084 70.7922C347.538 70.0887 347.004 69.5567 346.482 69.196C345.933 68.8266 345.384 68.6178 344.834 68.5697C344.317 68.5245 343.876 68.6241 343.511 68.8687C343.147 69.1132 342.946 69.446 342.909 69.8671C342.869 70.3264 342.979 70.6992 343.237 70.9854C343.517 71.2605 344.159 71.577 345.163 71.9349C346.532 72.4275 347.482 72.9927 348.014 73.6307C348.31 73.9901 348.511 74.4079 348.616 74.8838L356.477 75.6866L355.771 82.5988L358.732 82.8578L359.757 88.601C359.828 89.001 359.886 89.3689 359.93 89.7046C359.933 89.7385 359.944 89.807 359.963 89.9099C359.982 90.0128 360.002 90.1355 360.023 90.278C360.038 90.2399 360.091 90.0787 360.184 89.7942C360.323 89.3565 360.454 88.9826 360.577 88.6727L362.558 83.1925L365.665 83.4642L367.08 91.2449L370.256 92.3045L366.729 102.877L367.565 103.156C367.899 102.87 368.276 102.633 368.699 102.446C369.945 101.91 371.36 101.906 372.943 102.434C373.916 102.759 374.734 103.204 375.398 103.769C376.055 104.333 376.64 105.082 377.153 106.016L374.567 108.161C374.2 107.35 373.804 106.708 373.38 106.236C372.932 105.749 372.447 105.418 371.923 105.243C371.431 105.079 370.979 105.073 370.567 105.226C370.156 105.379 369.883 105.656 369.75 106.057C369.604 106.495 369.623 106.883 369.808 107.221C370.016 107.554 370.567 108.011 371.461 108.593C372.677 109.39 373.47 110.161 373.838 110.905C374.043 111.324 374.141 111.776 374.133 112.264L381.591 114.873L379.297 121.432L382.116 122.372L381.777 128.196C381.754 128.602 381.725 128.973 381.689 129.31C381.687 129.323 381.685 129.343 381.683 129.368L381.681 129.39L381.678 129.428L381.675 129.475L381.673 129.517C381.668 129.622 381.659 129.746 381.646 129.889C381.656 129.875 381.679 129.839 381.714 129.782C381.76 129.709 381.827 129.6 381.915 129.456C382.152 129.063 382.367 128.73 382.558 128.457L385.76 123.588L388.718 124.575L388.298 132.225L391 133.9L385.127 143.373L385.877 143.837C386.267 143.636 386.689 143.493 387.144 143.408C388.48 143.174 389.857 143.497 391.276 144.377C392.147 144.917 392.841 145.539 393.356 146.243C393.865 146.943 394.262 147.806 394.545 148.834L391.534 150.323C391.364 149.449 391.127 148.734 390.823 148.176C390.5 147.599 390.104 147.165 389.635 146.874C389.194 146.601 388.755 146.491 388.319 146.545C387.884 146.599 387.555 146.805 387.332 147.165C387.089 147.557 387.019 147.939 387.12 148.311C387.246 148.682 387.676 149.254 388.411 150.027C389.411 151.083 390.004 152.016 390.191 152.825C390.294 153.28 390.284 153.743 390.164 154.215L396.819 158.476L393.072 164.328L395.598 165.894L393.924 171.482C393.807 171.872 393.693 172.226 393.581 172.545L393.576 172.558L393.572 172.57L393.565 172.588C393.56 172.603 393.554 172.622 393.547 172.644C393.539 172.672 393.529 172.705 393.517 172.743C393.488 172.844 393.451 172.962 393.406 173.099C393.436 173.072 393.556 172.952 393.767 172.74C394.089 172.412 394.374 172.137 394.624 171.916L398.863 167.918L401.513 169.561L399.352 176.862L401.509 179.02L393.629 186.901L394.252 187.525C394.678 187.418 395.122 187.375 395.583 187.396C396.938 187.474 398.205 188.102 399.385 189.283C400.111 190.008 400.643 190.772 400.984 191.574C401.32 192.372 401.509 193.304 401.55 194.369L398.278 195.131C398.312 194.242 398.245 193.491 398.077 192.878C397.894 192.243 397.608 191.73 397.217 191.34C396.85 190.973 396.448 190.765 396.012 190.719C395.576 190.672 395.208 190.798 394.909 191.096C394.583 191.422 394.427 191.778 394.441 192.164C394.478 192.554 394.767 193.209 395.306 194.129C396.038 195.386 396.403 196.43 396.4 197.26C396.396 197.726 396.281 198.175 396.056 198.607L401.561 204.275L396.577 209.117L398.679 211.218L395.772 216.276C395.57 216.629 395.378 216.948 395.196 217.233C395.176 217.261 395.14 217.321 395.089 217.412C395.059 217.463 395.026 217.52 394.989 217.582C394.972 217.612 394.953 217.643 394.933 217.675L394.898 217.733C394.934 217.713 395.079 217.624 395.332 217.465C395.721 217.219 396.061 217.017 396.355 216.859L401.395 213.934L403.6 216.139L400.339 221.858L401.626 223.9L397.798 226.314L397.086 227.563L396.595 227.072L392.199 229.844L392.669 230.59C393.108 230.58 393.551 230.636 393.996 230.759C395.3 231.134 396.397 232.027 397.287 233.44C397.834 234.307 398.185 235.17 398.34 236.028C398.491 236.88 398.47 237.83 398.275 238.878L394.915 238.898C395.145 238.038 395.245 237.291 395.216 236.657C395.179 235.997 395.012 235.433 394.718 234.966C394.441 234.527 394.095 234.236 393.68 234.094C393.264 233.952 392.878 233.994 392.521 234.219C392.131 234.465 391.9 234.777 391.828 235.157C391.778 235.546 391.915 236.248 392.238 237.265C392.674 238.652 392.799 239.751 392.612 240.56C392.505 241.013 392.294 241.426 391.979 241.798L396.096 248.542L390.165 252.163L391.751 254.676L387.798 258.967C387.523 259.267 387.265 259.535 387.024 259.773C386.999 259.796 386.951 259.846 386.881 259.923C386.81 260.001 386.725 260.091 386.624 260.194C386.663 260.183 386.824 260.128 387.106 260.029C387.539 259.876 387.916 259.754 388.237 259.664L393.799 257.926L395.463 260.563L390.304 266.201ZM203.871 10.6934L209.269 13.4288L211.069 11.4075L207.703 6.33971C207.547 6.10271 207.33 5.79376 207.054 5.41286C206.971 5.28668 206.825 5.08086 206.614 4.79542C206.766 4.89374 207.035 5.05475 207.421 5.27846C207.791 5.48726 208.064 5.64014 208.24 5.73709L213.573 8.5953L214.103 8.0006L217.62 13.0507L215.041 14.8472L216.936 17.5678L222.876 13.4305C223.088 13.661 223.31 13.8588 223.543 14.024C223.985 14.325 224.437 14.5136 224.899 14.5901C225.616 14.7227 226.751 14.5015 228.305 13.9264C228.345 13.9144 228.373 13.9027 228.389 13.8915C228.396 13.8894 228.403 13.8871 228.411 13.8845C228.425 13.8798 228.44 13.8742 228.457 13.8678C229.176 13.6009 229.706 13.4772 230.048 13.4966C230.387 13.534 230.653 13.692 230.847 13.9705C231.048 14.2595 231.088 14.5753 230.966 14.9177C230.841 15.2782 230.589 15.5899 230.212 15.8529C229.84 16.1121 229.406 16.3008 228.912 16.4188C228.399 16.5339 227.861 16.5657 227.296 16.5141L227.861 19.4807C228.622 19.4579 229.354 19.3303 230.057 19.098C230.733 18.8845 231.414 18.5392 232.099 18.0621C233.313 17.2168 234.051 16.1837 234.314 14.9626C234.464 14.3001 234.461 13.6553 234.304 13.0279L238.006 10.5287L239.252 12.3741L235.673 14.7905L237.257 17.1365L240.836 14.7202L242.117 16.6179L238.321 19.1805L239.941 21.5788L245.188 18.0358L247.426 24.3501L250.206 22.4141L248.049 16.7874C247.941 16.4865 247.852 16.2551 247.78 16.0934C247.626 15.7639 247.477 15.4273 247.333 15.0835C247.422 15.1719 247.542 15.2899 247.692 15.4376C247.846 15.5899 247.964 15.7057 248.047 15.7848C248.286 16.0007 248.5 16.1859 248.69 16.3406L253.303 20.2571L255.524 18.7101L253.43 12.9982C253.333 12.7313 253.194 12.3805 253.014 11.9458C252.963 11.8038 252.868 11.5695 252.729 11.2427C252.855 11.3739 253.079 11.5931 253.403 11.9005C253.713 12.1895 253.943 12.4017 254.092 12.537L258.613 16.5579L258.78 16.4421L260.821 21.6416L257.895 22.7901L259.106 25.8765L265.845 23.2315C265.997 23.5048 266.167 23.7489 266.356 23.9637C266.716 24.359 267.112 24.6475 267.543 24.829C268.21 25.1245 269.366 25.173 271.01 24.9745C271.052 24.972 271.082 24.9672 271.1 24.96C271.121 24.9587 271.145 24.9563 271.171 24.9526C271.933 24.8601 272.478 24.863 272.806 24.9612C273.126 25.0762 273.349 25.2916 273.473 25.6076C273.601 25.9355 273.567 26.2518 273.368 26.5566C273.163 26.8781 272.846 27.1229 272.418 27.291C271.995 27.4568 271.53 27.5396 271.022 27.5397C270.496 27.5326 269.965 27.4384 269.428 27.2571L269.288 30.2738C270.034 30.4283 270.776 30.4742 271.514 30.4116C272.221 30.3609 272.963 30.1831 273.74 29.8781C275.117 29.3377 276.075 28.5042 276.614 27.3775C276.914 26.768 277.06 26.14 277.054 25.4935L281.235 23.9221L282.018 26.0064L277.976 27.5257L278.972 30.1754L283.014 28.6561L283.82 30.7995L279.533 32.4108L280.551 35.1195L286.478 32.8918L287.189 39.5533L290.342 38.3156L289.55 32.3417C289.515 32.0241 289.482 31.7784 289.45 31.6044C289.376 31.248 289.309 30.886 289.249 30.5183C289.315 30.6248 289.404 30.7675 289.517 30.9461C289.631 31.13 289.719 31.27 289.781 31.3661C289.963 31.6316 290.129 31.8616 290.277 32.0561L293.855 36.9366L296.374 35.9476L295.664 29.9056C295.631 29.6234 295.578 29.2501 295.504 28.7855C295.487 28.6355 295.449 28.3855 295.39 28.0355C295.482 28.1922 295.649 28.4576 295.892 28.8317C296.127 29.1849 296.302 29.4446 296.415 29.6108L299.879 34.5717L300.042 34.5077L300.835 40.0594L297.724 40.504L298.193 43.7863L305.359 42.7625C305.444 43.0635 305.554 43.3403 305.688 43.5927C305.947 44.0603 306.266 44.432 306.644 44.7079C307.225 45.1489 308.339 45.4621 309.985 45.6473C310.026 45.6544 310.056 45.6566 310.076 45.6538L310.088 45.6559L310.108 45.6587L310.129 45.6612L310.147 45.6631C310.909 45.7482 311.439 45.8763 311.735 46.0474C312.021 46.2331 312.187 46.4939 312.235 46.8299C312.285 47.1786 312.179 47.4784 311.916 47.7295C311.642 47.9951 311.277 48.1604 310.821 48.2255C310.372 48.2896 309.901 48.2632 309.406 48.1463C308.896 48.0185 308.401 47.8047 307.92 47.5046L307.09 50.4082C307.78 50.7301 308.491 50.9455 309.224 51.0543C309.924 51.1677 310.687 51.1655 311.513 51.0474C312.977 50.8382 314.101 50.2475 314.885 49.2751C315.317 48.751 315.605 48.1735 315.747 47.5428L320.177 46.9755L320.46 49.1841L316.177 49.7327L316.536 52.5404L320.819 51.9919L321.11 54.2631L316.568 54.8449L316.935 57.7152L323.216 56.9109L322.375 63.5572L325.728 63.0781L326.332 57.0823C326.372 56.7654 326.396 56.5185 326.404 56.3418C326.415 55.978 326.433 55.6103 326.459 55.2387C326.499 55.3575 326.553 55.5168 326.621 55.7165C326.69 55.9218 326.743 56.0783 326.781 56.1861C326.898 56.4864 327.006 56.7483 327.106 56.9718L329.464 62.5444L332.144 62.1616L332.842 56.1183C332.876 55.8362 332.91 55.4605 332.945 54.9914C332.963 54.8416 332.983 54.5896 333.006 54.2354C333.06 54.4089 333.161 54.7057 333.312 55.1257C333.459 55.5235 333.569 55.8163 333.641 56.0041L335.871 61.629L335.906 61.6241L335.423 67.1433L332.292 66.8694L332.003 70.1724L339.214 70.8032C339.229 71.1157 339.273 71.4102 339.346 71.6864C339.492 72.2007 339.718 72.6351 340.024 72.9896C340.489 73.5511 341.503 74.109 343.064 74.6634C343.102 74.6796 343.131 74.6886 343.151 74.6903C343.17 74.6984 343.192 74.7068 343.218 74.7154C343.941 74.9715 344.428 75.2166 344.678 75.4506C344.913 75.6963 345.017 75.9881 344.987 76.3263C344.956 76.6771 344.784 76.945 344.471 77.1297C344.144 77.3261 343.751 77.4042 343.293 77.3641C342.841 77.3246 342.388 77.1917 341.932 76.9655C341.465 76.7253 341.031 76.4045 340.631 76.0031L339.163 78.6422C339.762 79.1124 340.406 79.4837 341.094 79.7561C341.75 80.0256 342.494 80.1968 343.326 80.2695C344.799 80.3984 346.028 80.0783 347.012 79.3094C347.552 78.8972 347.963 78.4001 348.245 77.8182L352.688 78.2719L352.462 80.4871L348.166 80.0484L347.878 82.8644L352.174 83.3031L351.941 85.5811L347.386 85.1158L347.092 87.9947L353.39 88.6379L351.062 94.9194L354.436 95.2146L356.386 89.5127C356.497 89.213 356.576 88.9781 356.625 88.808C356.718 88.4561 356.819 88.1021 356.929 87.7461C356.94 87.8709 356.957 88.0382 356.978 88.2482C356.998 88.4638 357.015 88.6283 357.027 88.7419C357.073 89.0609 357.118 89.3405 357.165 89.5808L358.196 95.5434L360.892 95.7793L362.945 90.0527C363.042 89.7855 363.16 89.4274 363.301 88.9785C363.353 88.8368 363.43 88.596 363.533 88.2563C363.545 88.4373 363.577 88.7495 363.628 89.1927C363.681 89.6136 363.722 89.9237 363.749 90.123L364.643 96.1074L364.948 96.134L363.102 101.667L360.12 100.672L359.071 103.817L365.938 106.108C365.879 106.416 365.854 106.712 365.861 106.998C365.883 107.532 366.002 108.007 366.217 108.423C366.539 109.077 367.395 109.856 368.784 110.758C368.818 110.783 368.844 110.798 368.862 110.804C368.879 110.817 368.899 110.83 368.922 110.844C369.565 111.262 369.982 111.613 370.17 111.899C370.343 112.193 370.375 112.501 370.268 112.823C370.156 113.157 369.927 113.377 369.579 113.484C369.215 113.599 368.815 113.584 368.379 113.438C367.948 113.294 367.538 113.06 367.148 112.734C366.75 112.392 366.402 111.979 366.106 111.495L364.065 113.72C364.538 114.317 365.078 114.828 365.684 115.253C366.259 115.668 366.943 116.007 367.735 116.271C369.138 116.739 370.407 116.714 371.543 116.195C372.164 115.92 372.68 115.532 373.089 115.031L377.305 116.506L376.569 118.608L372.494 117.182L371.559 119.854L375.635 121.28L374.879 123.441L370.556 121.929L369.6 124.661L375.577 126.751L371.851 132.319L375.064 133.391L378.287 128.299C378.464 128.033 378.596 127.823 378.683 127.669C378.855 127.348 379.036 127.028 379.226 126.707L379.213 126.8L379.199 126.898C379.186 126.988 379.172 127.091 379.156 127.207C379.126 127.421 379.104 127.585 379.09 127.698C379.06 128.019 379.039 128.302 379.029 128.546L378.644 134.585L381.212 135.442L384.541 130.35C384.697 130.112 384.895 129.792 385.136 129.388C385.22 129.262 385.351 129.046 385.53 128.739C385.5 128.918 385.458 129.229 385.405 129.672C385.385 129.854 385.367 130.016 385.352 130.157C385.333 130.342 385.317 130.491 385.306 130.605L384.784 136.633L384.803 136.64L381.878 141.358L379.206 139.702L377.459 142.52L383.611 146.334C383.484 146.62 383.39 146.902 383.331 147.182C383.23 147.707 383.236 148.197 383.348 148.651C383.511 149.362 384.164 150.317 385.307 151.516C385.334 151.547 385.356 151.568 385.373 151.579C385.378 151.584 385.383 151.59 385.389 151.597C385.394 151.603 385.401 151.61 385.407 151.617L385.421 151.631C385.951 152.186 386.275 152.624 386.393 152.946C386.493 153.271 386.453 153.578 386.274 153.867C386.089 154.166 385.815 154.328 385.452 154.352C385.071 154.379 384.685 154.272 384.294 154.029C383.909 153.791 383.564 153.467 383.259 153.06C382.951 152.635 382.708 152.153 382.532 151.614L380.032 153.308C380.354 153.998 380.761 154.62 381.253 155.173C381.717 155.71 382.304 156.198 383.014 156.638C384.271 157.417 385.512 157.685 386.737 157.443C387.405 157.318 387.996 157.06 388.509 156.667L392.271 159.075L391.07 160.951L387.434 158.622L385.907 161.006L389.544 163.335L388.309 165.263L384.452 162.794L382.892 165.231L388.224 168.645L383.314 173.202L386.193 174.987L390.504 170.776C390.738 170.559 390.915 170.385 391.035 170.255C391.276 169.983 391.526 169.712 391.785 169.444C391.739 169.561 391.678 169.717 391.602 169.914C391.562 170.018 391.527 170.108 391.496 170.187C391.468 170.262 391.443 170.325 391.424 170.377C391.321 170.683 391.235 170.953 391.169 171.188L389.4 176.975L391.701 178.401L396.115 174.216C396.322 174.021 396.589 173.754 396.917 173.417C397.027 173.314 397.205 173.134 397.45 172.877C397.379 173.044 397.267 173.337 397.113 173.756C396.97 174.155 396.867 174.45 396.801 174.641L394.983 180.14L390.925 184.197L388.702 181.975L386.358 184.319L391.476 189.438C391.287 189.687 391.131 189.941 391.01 190.199C390.791 190.687 390.685 191.165 390.691 191.633C390.687 192.363 391.105 193.441 391.944 194.87C391.963 194.907 391.979 194.932 391.993 194.946C392.003 194.965 392.015 194.985 392.029 195.009C392.418 195.67 392.633 196.17 392.674 196.51C392.697 196.85 392.588 197.14 392.348 197.38C392.099 197.629 391.796 197.723 391.437 197.664C391.06 197.604 390.709 197.411 390.384 197.086C390.063 196.765 389.801 196.372 389.598 195.906C389.394 195.422 389.268 194.897 389.219 194.332L386.398 195.41C386.555 196.155 386.809 196.854 387.162 197.505C387.491 198.133 387.951 198.742 388.541 199.333C389.587 200.378 390.734 200.923 391.982 200.967C392.661 200.998 393.295 200.881 393.885 200.617L396.997 203.82L395.4 205.372L392.391 202.274L390.36 204.247L393.369 207.344L391.727 208.94L388.536 205.655L386.46 207.671L390.872 212.213L385.05 215.528L387.445 217.923L392.604 214.808C392.882 214.65 393.094 214.521 393.24 214.422C393.537 214.212 393.843 214.006 394.156 213.804C394.093 213.895 394.011 214.014 393.911 214.16L393.87 214.22C393.747 214.398 393.654 214.535 393.591 214.63C393.421 214.904 393.276 215.147 393.157 215.361L390.114 220.591L392.028 222.505L397.282 219.438C397.527 219.296 397.848 219.098 398.245 218.844C398.375 218.769 398.589 218.634 398.887 218.44C398.78 218.586 398.603 218.846 398.358 219.218C398.234 219.411 398.128 219.576 398.039 219.714C397.964 219.832 397.902 219.93 397.852 220.009L396.104 222.862L390.159 226.61L388.483 223.951L385.678 225.72L389.539 231.843C389.299 232.044 389.092 232.257 388.916 232.482C388.595 232.91 388.386 233.353 388.288 233.811C388.123 234.521 388.292 235.665 388.795 237.244C388.805 237.284 388.816 237.313 388.826 237.329C388.831 237.349 388.838 237.372 388.847 237.398C389.081 238.129 389.18 238.664 389.145 239.005C389.092 239.341 388.922 239.6 388.635 239.781C388.337 239.969 388.02 239.994 387.683 239.857C387.329 239.715 387.029 239.45 386.783 239.06C386.542 238.677 386.373 238.235 386.278 237.736C386.186 237.219 386.179 236.679 386.257 236.117L383.267 236.545C383.255 237.307 383.349 238.044 383.549 238.757C383.731 239.443 384.045 240.138 384.49 240.844C385.279 242.095 386.277 242.88 387.485 243.199C388.14 243.379 388.784 243.405 389.418 243.278L391.745 247.09L389.845 248.25L387.595 244.564L385.179 246.039L387.428 249.725L385.474 250.918L383.088 247.009L380.618 248.517L383.917 253.921L377.507 255.868L379.313 258.733L385.033 256.836C385.338 256.742 385.574 256.663 385.739 256.599C386.075 256.46 386.418 256.327 386.768 256.199C386.675 256.283 386.552 256.398 386.398 256.541C386.238 256.688 386.117 256.801 386.035 256.88C385.808 257.109 385.613 257.314 385.45 257.497L381.326 261.925L382.77 264.215L388.572 262.385C388.843 262.3 389.2 262.178 389.642 262.018C389.699 262 389.772 261.976 389.859 261.946C389.991 261.9 390.157 261.84 390.357 261.765C390.221 261.885 389.991 262.099 389.669 262.408C389.367 262.705 389.144 262.925 389.002 263.067L384.962 267.211L379.508 269.076L378.492 266.102L375.354 267.174L377.696 274.024C377.416 274.164 377.165 274.323 376.942 274.502C376.531 274.844 376.225 275.226 376.024 275.649C375.699 276.302 375.599 277.455 375.724 279.107C375.725 279.148 375.728 279.178 375.735 279.197C375.735 279.205 375.735 279.214 375.735 279.223C375.736 279.229 375.736 279.234 375.736 279.24C375.737 279.249 375.738 279.259 375.739 279.268C375.797 280.033 375.77 280.578 375.657 280.901C375.528 281.216 375.303 281.428 374.982 281.538C374.648 281.652 374.334 281.603 374.038 281.392C373.726 281.172 373.496 280.844 373.347 280.409C373.2 279.98 373.138 279.511 373.161 279.004C373.191 278.479 373.309 277.953 373.514 277.424L370.507 277.15C370.319 277.888 370.24 278.627 370.27 279.367C370.289 280.076 370.434 280.825 370.704 281.615C371.182 283.014 371.972 284.008 373.073 284.597C373.669 284.924 374.29 285.099 374.936 285.121L376.319 289.368L374.202 290.057L372.865 285.951L370.173 286.828L371.51 290.934L369.333 291.643L367.915 287.289L365.163 288.185L367.124 294.205L360.438 294.618L361.534 297.823L367.537 297.299C367.856 297.279 368.103 297.256 368.278 297.232C368.637 297.174 369.002 297.124 369.372 297.08C369.262 297.141 369.116 297.224 368.933 297.328C368.744 297.434 368.6 297.516 368.501 297.573C368.228 297.744 367.991 297.899 367.79 298.039L362.754 301.394L363.63 303.955L369.698 303.515C369.981 303.496 370.356 303.459 370.824 303.406C370.901 303.401 371.006 303.391 371.137 303.377C371.26 303.364 371.407 303.347 371.578 303.326C371.418 303.41 371.145 303.565 370.76 303.792C370.571 303.906 370.408 304.004 370.271 304.088C370.145 304.164 370.041 304.228 369.959 304.279L365.274 307.248L359.416 307.825L359.108 304.697L355.808 305.022L356.518 312.226C356.213 312.298 355.932 312.396 355.674 312.519C355.195 312.757 354.81 313.059 354.518 313.425C354.052 313.986 353.69 315.085 353.433 316.722C353.429 316.742 353.426 316.76 353.424 316.775C353.422 316.79 353.422 316.802 353.423 316.812C353.421 316.819 353.42 316.827 353.418 316.835L353.416 316.85C353.415 316.855 353.414 316.86 353.413 316.866C353.412 316.871 353.411 316.877 353.411 316.883C353.292 317.641 353.141 318.164 352.957 318.453C352.759 318.73 352.491 318.885 352.154 318.918C351.803 318.953 351.508 318.833 351.269 318.56C351.015 318.274 350.866 317.903 350.821 317.445C350.777 316.993 350.824 316.523 350.962 316.034C351.112 315.53 351.347 315.045 351.668 314.577L348.804 313.621C348.452 314.296 348.206 314.998 348.065 315.725C347.921 316.419 347.89 317.182 347.972 318.013C348.117 319.484 348.658 320.633 349.595 321.459C350.1 321.913 350.664 322.226 351.288 322.395L351.661 326.846L349.442 327.032L349.081 322.729L346.26 322.965L346.621 327.268L344.339 327.46L343.957 322.896L341.073 323.138L341.602 329.447L334.999 328.317L335.331 331.688L341.295 332.553C341.61 332.607 341.855 332.642 342.031 332.658C342.394 332.684 342.761 332.718 343.131 332.761C343.01 332.795 342.849 332.842 342.646 332.901C342.438 332.961 342.28 333.008 342.17 333.041C341.865 333.144 341.599 333.241 341.371 333.331L335.701 335.444L335.966 338.137L341.973 339.1C342.253 339.145 342.627 339.196 343.094 339.251C343.243 339.276 343.494 339.307 343.847 339.346C343.671 339.391 343.37 339.48 342.944 339.612C342.54 339.742 342.243 339.839 342.052 339.903L336.335 341.884L336.377 342.307L330.383 341.496L330.804 338.381L327.519 337.936L326.547 345.109C326.234 345.109 325.938 345.139 325.659 345.199C325.138 345.321 324.694 345.526 324.325 345.815C323.742 346.253 323.137 347.239 322.509 348.772C322.491 348.81 322.481 348.838 322.478 348.858C322.469 348.876 322.46 348.898 322.45 348.923C322.16 349.634 321.892 350.108 321.646 350.347C321.39 350.571 321.093 350.66 320.757 350.614C320.408 350.567 320.149 350.383 319.979 350.061C319.798 349.725 319.739 349.329 319.801 348.873C319.861 348.424 320.016 347.977 320.263 347.533C320.525 347.077 320.866 346.659 321.286 346.278L318.719 344.687C318.221 345.263 317.82 345.889 317.515 346.564C317.215 347.206 317.009 347.941 316.897 348.768C316.698 350.234 316.96 351.476 317.681 352.496C318.068 353.055 318.545 353.489 319.113 353.798L318.449 358.214L316.247 357.884L316.889 353.613L314.089 353.193L313.448 357.463L311.183 357.123L311.864 352.594L309.002 352.164L308.061 358.425L301.897 355.802L301.443 359.159L307.046 361.376C307.34 361.501 307.571 361.592 307.738 361.648C308.085 361.758 308.434 361.876 308.785 362.002C308.659 362.008 308.492 362.016 308.281 362.027L308.146 362.034C308.069 362.038 308 362.041 307.939 362.044C307.88 362.048 307.829 362.051 307.785 362.053C307.465 362.083 307.183 362.116 306.941 362.151L300.936 362.899L300.573 365.581L306.196 367.903C306.458 368.012 306.81 368.147 307.252 368.309C307.391 368.367 307.628 368.456 307.962 368.575C307.781 368.578 307.468 368.595 307.023 368.625L306.804 368.643C306.691 368.652 306.588 368.66 306.495 368.668C306.329 368.681 306.193 368.693 306.088 368.702L300.486 369.27L295.021 367.171L296.148 364.237L293.052 363.049L290.458 369.806C290.153 369.734 289.858 369.695 289.572 369.69C289.038 369.689 288.558 369.786 288.133 369.982C287.465 370.274 286.649 371.095 285.685 372.443C285.659 372.475 285.643 372.5 285.636 372.519C285.623 372.535 285.608 372.554 285.593 372.576C285.147 373.201 284.778 373.601 284.484 373.777C284.183 373.936 283.874 373.954 283.557 373.833C283.228 373.706 283.018 373.467 282.927 373.115C282.828 372.747 282.861 372.348 283.026 371.918C283.189 371.495 283.442 371.095 283.785 370.72C284.144 370.337 284.572 370.009 285.069 369.735L282.937 367.596C282.319 368.042 281.785 368.558 281.333 369.145C280.893 369.702 280.524 370.369 280.225 371.149C279.694 372.529 279.663 373.799 280.131 374.957C280.378 375.589 280.743 376.121 281.224 376.553L279.563 380.698L277.496 379.87L279.102 375.862L276.475 374.809L274.869 378.817L272.743 377.966L274.447 373.715L271.76 372.638L269.405 378.516L264.009 374.545L262.795 377.707L267.738 381.154C267.996 381.343 268.2 381.484 268.35 381.578C268.663 381.764 268.975 381.959 269.287 382.163C269.164 382.139 268.998 382.109 268.791 382.071C268.578 382.032 268.415 382.002 268.303 381.983C267.983 381.938 267.702 381.905 267.458 381.884L261.442 381.231L260.472 383.757L265.411 387.31C265.641 387.477 265.952 387.689 266.345 387.948C266.467 388.037 266.677 388.178 266.976 388.37C266.798 388.332 266.489 388.276 266.049 388.203C265.63 388.139 265.321 388.092 265.122 388.063L259.151 387.276L254.502 384.091L256.279 381.498L253.544 379.624L249.452 385.595C249.173 385.454 248.895 385.348 248.618 385.276C248.098 385.151 247.609 385.134 247.15 385.226C246.432 385.356 245.448 385.965 244.199 387.052C244.166 387.078 244.144 387.098 244.133 387.115C244.116 387.127 244.098 387.143 244.078 387.161C243.499 387.665 243.047 387.968 242.72 388.071C242.39 388.156 242.086 388.102 241.806 387.91C241.515 387.711 241.366 387.43 241.359 387.067C241.349 386.685 241.474 386.305 241.734 385.925C241.99 385.551 242.329 385.221 242.749 384.936C243.188 384.647 243.68 384.426 244.227 384.275L242.649 381.7C241.945 381.991 241.306 382.369 240.73 382.835C240.173 383.274 239.659 383.838 239.187 384.526C238.351 385.746 238.026 386.974 238.212 388.209C238.306 388.882 238.537 389.484 238.906 390.015L236.328 393.662L234.51 392.377L237.002 388.851L234.69 387.217L232.198 390.743L230.328 389.422L232.971 385.682L230.608 384.012L226.954 389.182L222.626 384.068L220.711 386.862L224.72 391.362C224.927 391.605 225.092 391.79 225.217 391.916C225.478 392.17 225.736 392.432 225.992 392.702C225.878 392.651 225.724 392.583 225.531 392.498C225.393 392.437 225.277 392.386 225.184 392.345C225.144 392.328 225.108 392.312 225.077 392.299C224.776 392.182 224.51 392.084 224.278 392.007L218.578 389.976L217.048 392.208L221.028 396.81C221.213 397.025 221.467 397.304 221.789 397.647C221.831 397.697 221.886 397.759 221.956 397.834C221.979 397.859 222.004 397.886 222.03 397.915C222.058 397.945 222.088 397.977 222.12 398.011L222.167 398.061L222.224 398.121L222.304 398.204C222.14 398.126 221.853 398 221.441 397.827C221.212 397.733 221.018 397.654 220.858 397.59C220.745 397.544 220.649 397.506 220.572 397.476L214.92 395.315L214.537 395.872L210.295 391.182L212.626 389.073L210.402 386.614L205.034 391.47C204.794 391.268 204.549 391.1 204.297 390.965C203.82 390.723 203.348 390.593 202.88 390.575C202.152 390.534 201.054 390.897 199.585 391.664C199.547 391.681 199.521 391.697 199.506 391.71L199.491 391.717L199.481 391.722L199.468 391.728L199.456 391.734L199.442 391.742C198.763 392.098 198.252 392.287 197.91 392.311C197.57 392.317 197.286 392.194 197.058 391.942C196.822 391.681 196.743 391.373 196.82 391.018C196.899 390.644 197.109 390.303 197.45 389.995C197.787 389.69 198.192 389.449 198.668 389.269C199.162 389.09 199.692 388.99 200.259 388.97L199.324 386.099C198.571 386.217 197.861 386.437 197.193 386.756C196.549 387.053 195.918 387.482 195.299 388.042C194.202 389.034 193.6 390.152 193.494 391.397C193.429 392.073 193.514 392.712 193.748 393.315L190.393 396.262L188.923 394.589L192.167 391.739L190.299 389.613L187.055 392.462L185.544 390.742L188.985 387.72L187.075 385.545L182.318 389.724L179.299 383.743L176.787 386.015L179.639 391.324C179.783 391.609 179.901 391.827 179.992 391.978C180.187 392.286 180.378 392.601 180.564 392.924C180.465 392.847 180.331 392.745 180.163 392.618C179.991 392.486 179.859 392.386 179.767 392.318C179.503 392.134 179.266 391.978 179.059 391.848L173.988 388.547L171.98 390.362L174.78 395.763C174.91 396.016 175.092 396.346 175.325 396.755C175.369 396.841 175.435 396.962 175.524 397.118C175.545 397.154 175.566 397.191 175.589 397.231C175.622 397.289 175.658 397.35 175.697 397.416C175.556 397.302 175.305 397.113 174.946 396.849C174.601 396.601 174.346 396.42 174.181 396.305L169.187 392.888L169.077 392.988L166.309 387.941L169.064 386.429L167.469 383.523L161.123 387.004C160.937 386.753 160.737 386.532 160.523 386.343C160.115 385.997 159.686 385.761 159.235 385.636C158.536 385.428 157.383 385.527 155.777 385.934C155.736 385.942 155.707 385.95 155.69 385.96C155.683 385.961 155.676 385.962 155.669 385.964L155.648 385.969C155.639 385.971 155.63 385.973 155.62 385.976C154.877 386.165 154.336 386.231 153.998 386.176C153.666 386.103 153.418 385.917 153.254 385.62C153.085 385.311 153.079 384.993 153.237 384.665C153.4 384.32 153.683 384.037 154.086 383.815C154.484 383.597 154.935 383.456 155.439 383.391C155.961 383.331 156.5 383.357 157.056 383.468L156.81 380.458C156.051 380.4 155.309 380.449 154.585 380.605C153.89 380.746 153.177 381.017 152.445 381.418C151.148 382.129 150.304 383.078 149.913 384.264C149.693 384.907 149.628 385.549 149.717 386.189L145.771 388.28L144.728 386.313L148.543 384.291L147.218 381.79L143.402 383.812L142.33 381.788L146.377 379.644L145.022 377.087L139.427 380.052L137.874 373.535L134.904 375.164L136.45 380.989C136.525 381.299 136.589 381.539 136.643 381.707C136.762 382.051 136.874 382.402 136.981 382.759C136.902 382.662 136.795 382.532 136.661 382.369C136.592 382.284 136.531 382.21 136.478 382.146C136.426 382.083 136.382 382.029 136.345 381.986C136.131 381.746 135.937 381.539 135.765 381.365L131.595 376.98L129.222 378.282L130.697 384.184C130.765 384.46 130.865 384.823 130.998 385.275C131.033 385.421 131.103 385.664 131.206 386.004C131.095 385.86 130.895 385.618 130.607 385.278C130.459 385.108 130.332 384.962 130.225 384.84L130.096 384.693C130.057 384.648 130.021 384.608 129.989 384.572L125.921 380.093L125.611 380.263L124.024 374.449L127.056 373.621L126.183 370.422L119.199 372.329C119.077 372.041 118.934 371.78 118.77 371.546C118.454 371.114 118.092 370.785 117.682 370.558C117.051 370.193 115.907 370.021 114.251 370.042C114.209 370.04 114.179 370.041 114.16 370.046C114.149 370.046 114.137 370.046 114.124 370.046C114.113 370.046 114.101 370.046 114.088 370.046C113.321 370.056 112.78 369.995 112.464 369.862C112.158 369.714 111.96 369.475 111.871 369.148C111.778 368.808 111.846 368.497 112.076 368.216C112.315 367.918 112.656 367.709 113.1 367.587C113.538 367.468 114.009 367.436 114.515 367.49C115.036 367.553 115.554 367.704 116.069 367.942L116.531 364.958C115.807 364.724 115.074 364.599 114.334 364.582C113.625 364.556 112.868 364.654 112.063 364.873C110.636 365.263 109.594 365.989 108.937 367.051C108.574 367.625 108.36 368.234 108.298 368.877L103.973 369.991L103.417 367.835L107.599 366.758L106.893 364.016L102.711 365.093L102.14 362.876L106.575 361.734L105.854 358.931L99.7221 360.51L99.7302 353.811L96.4625 354.703L96.6087 360.728C96.6088 361.047 96.6155 361.295 96.6289 361.471C96.6639 361.834 96.6915 362.201 96.7118 362.573L96.6682 362.482L96.5939 362.328L96.4919 362.119C96.398 361.924 96.3255 361.775 96.2743 361.673C96.1214 361.389 95.9815 361.143 95.8547 360.934L92.8218 355.697L90.2108 356.41L90.2686 362.494C90.2707 362.778 90.2836 363.155 90.3073 363.624C90.3079 363.775 90.3187 364.028 90.34 364.382C90.2657 364.217 90.1278 363.935 89.9262 363.537C89.7304 363.16 89.5851 362.884 89.4902 362.706L87.1055 358.363L86.8789 352.128L90.0199 352.014L89.8995 348.701L82.6656 348.963C82.6124 348.655 82.5324 348.368 82.4258 348.103C82.2172 347.611 81.9394 347.208 81.5926 346.893C81.0614 346.394 79.9869 345.965 78.3691 345.607C78.3292 345.596 78.2994 345.591 78.2797 345.591C78.2598 345.586 78.2366 345.58 78.2101 345.575C77.4608 345.41 76.9477 345.226 76.6708 345.025C76.4065 344.81 76.2681 344.533 76.2558 344.194C76.243 343.842 76.3806 343.555 76.6685 343.333C76.969 343.098 77.3492 342.972 77.809 342.955C78.2622 342.939 78.7287 343.015 79.2083 343.183C79.7016 343.364 80.1716 343.629 80.6184 343.978L81.7498 341.178C81.0976 340.785 80.4129 340.496 79.6958 340.311C79.0116 340.124 78.2524 340.046 77.4182 340.076C75.9403 340.13 74.7604 340.599 73.8783 341.483C73.3934 341.959 73.047 342.503 72.839 343.115L68.3738 343.213L68.3252 340.986L72.6424 340.892L72.5806 338.062L68.2635 338.156L68.2135 335.867L72.792 335.767L72.7289 332.874L66.3988 333.012L67.9354 326.492L64.5503 326.615L63.318 332.513C63.2452 332.824 63.1952 333.067 63.1679 333.242C63.1193 333.603 63.0625 333.967 62.9973 334.333C62.9704 334.211 62.9336 334.047 62.8869 333.841C62.8615 333.727 62.8391 333.627 62.8197 333.542C62.8033 333.47 62.7889 333.408 62.7768 333.357C62.6926 333.046 62.6126 332.775 62.5369 332.542L60.7788 326.752L58.0741 326.85L56.7422 332.786C56.6794 333.063 56.606 333.433 56.5219 333.896C56.4879 334.043 56.4409 334.291 56.3807 334.641C56.3462 334.463 56.2762 334.157 56.1707 333.724C56.0661 333.313 55.9878 333.01 55.9359 332.815L54.311 326.987L53.9194 327.001L55.0934 321.111L58.1759 321.725L58.824 318.474L51.725 317.059C51.7444 316.746 51.7329 316.449 51.6904 316.166C51.6011 315.639 51.424 315.183 51.1591 314.797C50.7577 314.188 49.8113 313.522 48.3199 312.801C48.2837 312.78 48.2559 312.768 48.2366 312.765C48.2185 312.754 48.1972 312.744 48.1727 312.732C47.4818 312.399 47.0249 312.102 46.802 311.842C46.5944 311.572 46.5238 311.271 46.5901 310.938C46.659 310.592 46.8591 310.345 47.1904 310.195C47.5372 310.036 47.9362 310.001 48.3874 310.091C48.8322 310.18 49.2685 310.361 49.6963 310.636C50.1345 310.926 50.5306 311.292 50.8847 311.735L52.6322 309.272C52.0883 308.739 51.489 308.3 50.8341 307.954C50.2115 307.614 49.4909 307.363 48.6722 307.2C47.2219 306.911 45.9655 307.094 44.903 307.751C44.3214 308.102 43.8587 308.551 43.5149 309.099L39.148 308.162L39.6149 305.985L43.837 306.891L44.4306 304.123L40.2084 303.217L40.6886 300.978L45.1664 301.939L45.7732 299.109L39.5823 297.782L42.5834 291.792L39.2614 291.13L36.7001 296.585C36.5574 296.87 36.4526 297.095 36.3857 297.259C36.2551 297.599 36.1158 297.939 35.9676 298.281L35.9693 298.176L35.9713 298.016L35.9739 297.777C35.9771 297.56 35.9786 297.395 35.9785 297.281C35.9684 296.959 35.9534 296.676 35.9335 296.432L35.5602 290.392L32.9059 289.863L30.2391 295.331C30.114 295.586 29.9571 295.929 29.7683 296.36C29.7014 296.495 29.5982 296.726 29.4589 297.053C29.4664 296.871 29.469 296.557 29.4665 296.111C29.4596 295.687 29.4534 295.374 29.4477 295.173L29.215 289.179L31.5696 284.047L34.4264 285.358L35.8091 282.344L29.23 279.325C29.3211 279.026 29.3787 278.734 29.4027 278.449C29.4378 277.916 29.3711 277.431 29.2027 276.994C28.953 276.309 28.1862 275.442 26.9022 274.395L26.8908 274.385L26.8805 274.376C26.8696 274.367 26.8596 274.359 26.8507 274.353C26.8429 274.348 26.8358 274.344 26.8295 274.341C26.8143 274.327 26.7961 274.311 26.7748 274.295C26.1799 273.81 25.804 273.416 25.6473 273.111C25.5077 272.801 25.5088 272.491 25.6503 272.183C25.7972 271.863 26.0491 271.668 26.4061 271.599C26.7803 271.524 27.1766 271.583 27.5947 271.775C28.0069 271.964 28.3894 272.242 28.742 272.608C29.1013 272.991 29.402 273.439 29.644 273.952L31.9139 271.96C31.508 271.316 31.0265 270.75 30.4695 270.261C29.9423 269.787 29.2994 269.376 28.5407 269.028C27.1966 268.411 25.9317 268.299 24.7462 268.692C24.0991 268.899 23.5451 269.229 23.0839 269.682L19.0521 267.761L20.01 265.751L23.9082 267.608L25.1259 265.053L21.2277 263.195L22.2128 261.128L26.347 263.098L27.5918 260.486L21.8761 257.762L26.1813 252.629L23.1026 251.217L19.3489 255.931C19.144 256.176 18.99 256.371 18.887 256.514C18.6814 256.815 18.467 257.114 18.2438 257.412C18.2749 257.291 18.3158 257.128 18.3666 256.923C18.4197 256.713 18.4595 256.552 18.4859 256.441C18.5505 256.126 18.6014 255.847 18.6384 255.605L19.6725 249.643L17.2125 248.514L13.3531 253.217C13.1724 253.436 12.9404 253.733 12.6571 254.109C12.5607 254.225 12.4069 254.426 12.1958 254.711C12.2452 254.536 12.3202 254.232 12.421 253.797C12.5124 253.383 12.5787 253.077 12.6197 252.88L13.79 246.944L13.5432 246.831L17.1849 242.195L19.6565 244.137L21.7048 241.53L16.0127 237.058C16.1713 236.788 16.2955 236.518 16.3854 236.246C16.5441 235.736 16.5925 235.248 16.5307 234.785C16.448 234.06 15.9047 233.039 14.9008 231.72C14.8777 231.686 14.8584 231.663 14.8429 231.651C14.8365 231.641 14.8293 231.631 14.8214 231.62C14.8149 231.611 14.808 231.602 14.8005 231.593C14.3351 230.983 14.0618 230.512 13.9804 230.179C13.9173 229.844 13.9906 229.544 14.2003 229.277C14.4179 229 14.7083 228.869 15.0714 228.886C15.4528 228.901 15.8244 229.05 16.1862 229.334C16.5428 229.614 16.8498 229.974 17.1072 230.412C17.367 230.869 17.5548 231.375 17.6704 231.93L20.3427 230.523C20.0985 229.802 19.7626 229.139 19.3349 228.534C18.9331 227.95 18.4041 227.4 17.7477 226.884C16.5848 225.97 15.381 225.566 14.1364 225.672C13.459 225.721 12.8432 225.913 12.2889 226.246L8.81737 223.436L10.2183 221.705L13.5747 224.422L15.3556 222.222L11.9992 219.505L13.4397 217.725L16.9994 220.606L18.82 218.357L13.8985 214.374L19.2835 210.388L16.6199 208.296L11.8689 212.003C11.6124 212.193 11.4173 212.346 11.2836 212.462C11.0135 212.706 10.7352 212.947 10.4485 213.185C10.507 213.074 10.5849 212.925 10.6821 212.738C10.7828 212.546 10.859 212.399 10.9106 212.297C11.0472 212.006 11.1617 211.746 11.2543 211.52L13.6522 205.964L11.524 204.292L6.67294 207.963C6.44603 208.134 6.15098 208.369 5.7878 208.668C5.66695 208.758 5.47057 208.918 5.19866 209.146C5.2874 208.988 5.43153 208.709 5.63105 208.31C5.81672 207.928 5.95252 207.647 6.03843 207.465L8.56292 201.966L8.4546 201.881L12.9322 198.307L14.8929 200.763L17.4843 198.695L12.9687 193.038C13.1849 192.811 13.3678 192.576 13.5174 192.333C13.7889 191.872 13.9478 191.409 13.9939 190.944C14.0796 190.219 13.7848 189.101 13.1097 187.587C13.0951 187.549 13.0817 187.521 13.0694 187.506C13.0621 187.487 13.0527 187.465 13.0413 187.44C12.7282 186.74 12.5701 186.218 12.5672 185.876C12.5825 185.536 12.7228 185.26 12.988 185.048C13.2633 184.828 13.5758 184.768 13.9255 184.868C14.2934 184.969 14.6208 185.2 14.9078 185.559C15.1908 185.914 15.4072 186.334 15.5573 186.82C15.7055 187.324 15.7723 187.859 15.7576 188.426L18.6812 187.669C18.6088 186.911 18.4338 186.189 18.1562 185.502C17.899 184.841 17.5101 184.185 16.9894 183.532C16.0668 182.376 14.9877 181.707 13.7521 181.524C13.0813 181.418 12.438 181.463 11.8222 181.66L9.08708 178.129L10.8474 176.766L13.4918 180.179L15.7296 178.446L13.0852 175.032L14.8954 173.63L17.6999 177.25L19.9876 175.478L16.1101 170.473L22.2652 167.828L20.1521 165.18L14.678 167.7C14.3847 167.826 14.1596 167.931 14.0029 168.013C13.6842 168.188 13.358 168.359 13.0244 168.525C13.1067 168.43 13.2167 168.303 13.3543 168.143C13.4962 167.98 13.604 167.854 13.6776 167.767C13.8774 167.514 14.0484 167.288 14.1903 167.089L17.7979 162.231L16.1095 160.115L10.5462 162.577C10.2861 162.691 9.94507 162.852 9.52303 163.06C9.38469 163.12 9.15703 163.23 8.84006 163.39C8.96272 163.256 9.1669 163.018 9.45258 162.675C9.72074 162.347 9.91748 162.104 10.0428 161.946L13.7605 157.172L13.5974 156.968L18.8571 154.506L20.1894 157.353L23.1924 155.948L20.1243 149.392C20.3874 149.222 20.6201 149.037 20.8225 148.835C21.1942 148.45 21.4568 148.037 21.6106 147.595C21.8631 146.911 21.838 145.754 21.5353 144.125C21.5302 144.084 21.5234 144.055 21.5151 144.037C21.5125 144.016 21.5086 143.993 21.5032 143.966C21.3624 143.212 21.3306 142.668 21.4078 142.335C21.5022 142.007 21.7031 141.772 22.0105 141.628C22.3295 141.479 22.6474 141.493 22.9642 141.672C23.2981 141.856 23.5626 142.157 23.7576 142.574C23.9499 142.985 24.0622 143.444 24.0945 143.951C24.1209 144.476 24.0607 145.012 23.9139 145.559L26.9333 145.507C27.0401 144.753 27.0388 144.01 26.9293 143.277C26.8338 142.575 26.6091 141.845 26.2553 141.089C25.6285 139.75 24.7357 138.847 23.577 138.38C22.9497 138.12 22.3137 138.013 21.6689 138.061L19.8348 133.989L21.865 133.075L23.6383 137.012L26.2193 135.849L24.446 131.912L26.5338 130.972L28.4145 135.147L31.053 133.959L28.4529 128.186L35.0557 127.053L33.6199 123.985L27.7085 125.155C27.3938 125.21 27.1506 125.258 26.979 125.302C26.6281 125.398 26.271 125.488 25.9079 125.571C26.01 125.498 26.1467 125.4 26.3179 125.277C26.4941 125.151 26.6282 125.054 26.7202 124.987C26.9736 124.788 27.1926 124.608 27.3772 124.447L32.0203 120.567L30.8731 118.115L24.8885 119.208C24.609 119.259 24.2397 119.336 23.7808 119.439C23.6322 119.465 23.3852 119.519 23.0396 119.6C23.1901 119.499 23.4444 119.315 23.8022 119.049C24.1398 118.792 24.3879 118.601 24.5465 118.478L29.2771 114.705L29.2699 114.689L34.6979 113.566L35.3349 116.644L38.5817 115.972L37.1148 108.884C37.4099 108.78 37.6793 108.653 37.9229 108.504C38.3734 108.216 38.7247 107.875 38.9766 107.48C39.3806 106.873 39.624 105.742 39.7066 104.087C39.7112 104.046 39.7114 104.016 39.7074 103.996C39.7097 103.976 39.7113 103.952 39.7123 103.925C39.7499 103.159 39.8449 102.622 39.9972 102.315C40.1647 102.019 40.4147 101.836 40.7471 101.768C41.092 101.696 41.3979 101.784 41.6648 102.031C41.9469 102.288 42.1346 102.642 42.2278 103.092C42.3197 103.536 42.3227 104.009 42.2367 104.51C42.1409 105.026 41.9582 105.534 41.6886 106.033L44.6381 106.681C44.9165 105.972 45.0873 105.249 45.1504 104.511C45.2202 103.805 45.1705 103.044 45.0013 102.226C44.7016 100.778 44.0421 99.693 43.0229 98.9709C42.473 98.5723 41.8788 98.3215 41.2405 98.2186L40.399 93.8324L42.5858 93.4128L43.3994 97.6536L46.1794 97.1203L45.3658 92.8795L47.6146 92.4481L48.4774 96.9456L51.3194 96.4004L50.1264 90.1822L56.8121 90.6086L56.1257 87.2915L50.104 87.0614C49.7851 87.0415 49.5373 87.0327 49.3603 87.035C48.9967 87.0473 48.6285 87.052 48.256 87.049C48.3722 87.002 48.5278 86.9384 48.7229 86.8579C48.9234 86.7764 49.0763 86.7133 49.1815 86.6686C49.474 86.5337 49.7287 86.4094 49.9456 86.2959L55.3609 83.5959L54.8124 80.9455L48.7373 80.6234C48.4537 80.6077 48.0767 80.597 47.6063 80.5914C47.4556 80.5825 47.2028 80.5776 46.8479 80.5766C47.0178 80.5129 47.3077 80.3928 47.7175 80.2164C48.1054 80.0446 48.3908 79.9168 48.5738 79.8332L53.8922 77.3319L59.5163 77.475L59.4364 80.6171L62.751 80.7014L62.9351 73.4651C63.2461 73.431 63.5372 73.3689 63.8085 73.2789C64.3127 73.101 64.7323 72.8487 65.0673 72.5219C65.5989 72.0226 66.0932 70.9766 66.5501 69.384C66.5639 69.3449 66.5711 69.3155 66.5716 69.2957C66.5785 69.2762 66.5854 69.2534 66.5925 69.2272C66.8035 68.4897 67.018 67.9888 67.2361 67.7248C67.4667 67.4743 67.7517 67.3533 68.091 67.3619C68.4431 67.3709 68.721 67.5259 68.9248 67.827C69.141 68.1415 69.2432 68.5287 69.2315 68.9886C69.22 69.442 69.1154 69.9029 68.9177 70.3712C68.7068 70.8524 68.4135 71.3052 68.0375 71.7296L70.7622 73.0317C71.1946 72.4049 71.5254 71.7394 71.7547 71.0352C71.9832 70.3638 72.1081 69.6108 72.1293 68.7764C72.1669 67.298 71.7716 66.0913 70.9434 65.1563C70.4985 64.643 69.977 64.2636 69.3788 64.0183L69.5572 59.5556L71.7821 59.6445L71.6096 63.9592L74.4381 64.0723L74.6105 59.7576L76.8985 59.849L76.7156 64.425L79.6071 64.5406L79.86 58.214L86.2734 60.1502L86.3595 56.7639L80.5481 55.1699C80.2421 55.078 80.0027 55.0131 79.8299 54.9751C79.473 54.9043 79.1135 54.8251 78.7513 54.7374C78.8752 54.7182 79.0412 54.6916 79.2495 54.6576C79.4633 54.6238 79.6265 54.5971 79.7392 54.5776C80.0547 54.5127 80.331 54.4497 80.568 54.3885L86.4555 52.9912L86.5243 50.2855L80.6818 48.5898C80.4092 48.51 80.0445 48.4139 79.5877 48.3013C79.4431 48.2584 79.198 48.1961 78.8526 48.1145C79.0325 48.091 79.3421 48.04 79.7813 47.9615C80.1982 47.8825 80.5051 47.823 80.7024 47.7832L86.6201 46.5212L86.6234 46.3908L92.0744 47.8361L91.2688 50.8742L94.4737 51.724L96.3289 44.727C96.6394 44.766 96.937 44.773 97.2217 44.7482C97.7534 44.692 98.22 44.5437 98.6216 44.3034C99.2544 43.9408 99.9775 43.0377 100.791 41.5942C100.813 41.5594 100.827 41.5325 100.832 41.5134C100.839 41.5027 100.846 41.4907 100.854 41.4776C100.859 41.4694 100.864 41.4607 100.868 41.4516C101.245 40.7829 101.569 40.3454 101.843 40.1391C102.125 39.9488 102.43 39.8971 102.758 39.9841C103.099 40.0744 103.333 40.2895 103.462 40.6296C103.599 40.9856 103.609 41.386 103.491 41.8308C103.375 42.2691 103.166 42.6932 102.865 43.1031C102.549 43.5223 102.159 43.8948 101.695 44.2206L104.044 46.1184C104.609 45.6088 105.085 45.038 105.472 44.406C105.849 43.8058 106.145 43.1023 106.359 42.2954C106.738 40.866 106.633 39.6005 106.044 38.4991C105.73 37.8967 105.311 37.4069 104.785 37.0296L105.993 32.7297L108.136 33.3315L106.969 37.4889L109.695 38.254L110.862 34.0966L113.066 34.7155L111.829 39.1247L114.615 39.9068L116.326 33.8109L122.117 37.1799L122.985 33.9057L117.7 31.009C117.424 30.8487 117.206 30.7301 117.047 30.6531C116.716 30.5016 116.385 30.3413 116.053 30.1721C116.178 30.182 116.345 30.1946 116.556 30.2098C116.772 30.2265 116.937 30.2383 117.051 30.2454C117.373 30.2554 117.656 30.2581 117.901 30.2534L123.952 30.2578L124.646 27.6416L119.355 24.6388C119.108 24.498 118.775 24.32 118.357 24.1047C118.226 24.0295 118.002 23.9121 117.685 23.7527C117.866 23.7715 118.179 23.7937 118.624 23.819C119.048 23.8386 119.36 23.8519 119.562 23.8588L125.611 24.0018L125.641 23.8864L130.525 26.5182L129.034 29.2852L131.953 30.858L135.387 24.4856C135.68 24.5958 135.968 24.672 136.25 24.7141C136.781 24.7833 137.269 24.7478 137.715 24.6076C138.415 24.4024 139.329 23.6926 140.456 22.4782C140.486 22.4496 140.506 22.4266 140.515 22.4092C140.53 22.3949 140.547 22.3777 140.565 22.3576C141.086 21.7949 141.504 21.445 141.818 21.3081C142.137 21.1887 142.445 21.2096 142.744 21.3706C143.054 21.5377 143.232 21.8015 143.278 22.1621C143.329 22.5404 143.245 22.9321 143.027 23.3371C142.812 23.7363 142.51 24.1002 142.122 24.4287C141.717 24.7627 141.25 25.0341 140.723 25.2428L142.566 27.6355C143.234 27.2717 143.83 26.8275 144.353 26.3029C144.86 25.8071 145.312 25.1918 145.708 24.457C146.409 23.1551 146.602 21.9 146.285 20.6917C146.121 20.0328 145.827 19.4587 145.404 18.9695L147.579 15.069L149.524 16.1536L147.421 19.9248L149.893 21.3036L151.996 17.5324L153.996 18.6478L151.765 22.6473L154.293 24.0569L157.377 18.5272L162.223 23.1522L163.83 20.1702L159.366 16.1224C159.135 15.9023 158.95 15.7362 158.813 15.6242C158.527 15.3998 158.242 15.1667 157.959 14.9248C158.078 14.9636 158.238 15.0149 158.439 15.0787C158.645 15.1452 158.803 15.1951 158.912 15.2285C159.223 15.3133 159.498 15.3819 159.737 15.4343L165.62 16.8479L166.904 14.4653L162.458 10.3127C162.251 10.1184 161.969 9.8678 161.613 9.56104C161.503 9.4574 161.313 9.29111 161.041 9.06217C161.212 9.12257 161.512 9.21697 161.939 9.34538C162.346 9.46316 162.647 9.54883 162.841 9.6024L168.691 11.1503L168.75 11.0392L172.889 14.7245L170.799 17.0718L173.275 19.2768L178.089 13.8707C178.348 14.0456 178.611 14.1863 178.876 14.2926C179.376 14.4825 179.859 14.5608 180.326 14.5277C181.054 14.4898 182.107 14.0104 183.485 13.0895C183.52 13.0686 183.545 13.0507 183.558 13.036C183.565 13.032 183.572 13.0278 183.579 13.0231L183.591 13.0156C183.6 13.0099 183.609 13.0038 183.618 12.9972C184.256 12.5703 184.743 12.3265 185.08 12.2658C185.418 12.2234 185.713 12.3151 185.967 12.5408C186.23 12.775 186.342 13.0729 186.303 13.4343C186.265 13.8141 186.093 14.1758 185.787 14.5194C185.486 14.8581 185.108 15.1424 184.655 15.3723C184.183 15.6035 183.666 15.7597 183.105 15.8409L184.345 18.5948C185.08 18.3954 185.762 18.101 186.392 17.7114C187 17.3463 187.582 16.8521 188.137 16.2287C189.12 15.1242 189.598 13.9477 189.569 12.6989C189.561 12.0197 189.408 11.3933 189.11 10.8196L192.128 7.52759L193.769 9.03237L190.851 12.2152L192.937 14.1282L195.856 10.9453L197.543 12.4928L194.448 15.8683L196.581 17.8239L200.86 13.157L204.507 18.7771L206.759 16.2473L203.352 11.2772C203.177 11.0095 203.036 10.8053 202.929 10.6647C202.702 10.3801 202.479 10.0875 202.259 9.78665C202.366 9.85189 202.51 9.93881 202.691 10.0474C202.876 10.1597 203.018 10.2448 203.117 10.3025C203.399 10.4568 203.651 10.5871 203.871 10.6934Z" fill="#E7E7E7"/>
</svg>
