<svg width="256" height="256" viewBox="0 0 256 256" fill="none" xmlns="http://www.w3.org/2000/svg">
<g filter="url(#filter0_i_335_86)">
<path d="M130.386 207.198C128.977 208.273 127.021 208.273 125.613 207.198C82.1867 174.048 50.5012 130.095 49.0519 74.2473C48.9945 72.0389 50.7909 70.2405 53 70.2405L70.2499 70.2405C72.459 70.2405 74.2499 68.4496 74.2499 66.2405L74.2498 51C74.2498 48.7909 76.0407 47 78.2498 47L177.094 47C179.303 47 181.094 48.7908 181.094 51L181.094 66.2405C181.094 68.4496 182.885 70.2405 185.094 70.2405L203 70.2405C205.209 70.2405 207.005 72.0394 206.949 74.2478C205.506 130.404 173.818 174.056 130.386 207.198Z" fill="#000811"/>
</g>
<path d="M185.094 75.2405L201.917 75.2405C200.147 128.549 170.086 170.421 127.999 202.728C85.9258 170.416 55.863 128.254 54.0836 75.2405L70.2499 75.2405C75.2204 75.2405 79.2499 71.2111 79.2499 66.2405L79.2498 52L176.094 52L176.094 66.2405C176.094 71.2111 180.124 75.2405 185.094 75.2405Z" stroke="#8C7336" stroke-width="10"/>
<g filter="url(#filter1_d_335_86)">
<path d="M139.883 83.5714C139.883 94.9327 130.711 104.143 119.397 104.143C108.084 104.143 98.9121 94.9327 98.9121 83.5714C98.9121 72.2101 108.084 63 119.397 63C130.711 63 139.883 72.2101 139.883 83.5714Z" fill="#9E9E9E"/>
<path d="M164.209 93.4286C164.209 104.79 155.038 114 143.724 114C132.41 114 123.238 104.79 123.238 93.4286C123.238 82.0673 132.41 72.8571 143.724 72.8571C155.038 72.8571 164.209 82.0673 164.209 93.4286Z" fill="#9E9E9E"/>
<path d="M164.209 93.4286C164.209 104.79 155.038 114 143.724 114C132.41 114 123.238 104.79 123.238 93.4286C123.238 82.0673 132.41 72.8571 143.724 72.8571C155.038 72.8571 164.209 82.0673 164.209 93.4286Z" fill="#9E9E9E"/>
<path d="M142.87 118.5C142.87 126.429 136.469 132.857 128.573 132.857C120.677 132.857 114.276 126.429 114.276 118.5C114.276 110.571 120.677 104.143 128.573 104.143C136.469 104.143 142.87 110.571 142.87 118.5Z" fill="#9E9E9E"/>
<path d="M134.335 107.571C134.335 118.933 125.163 128.143 113.849 128.143C102.536 128.143 93.364 118.933 93.364 107.571C93.364 96.2101 102.536 87 113.849 87C125.163 87 134.335 96.2101 134.335 107.571Z" fill="#9E9E9E"/>
<path d="M164.209 107.143C164.209 118.504 155.038 127.714 143.724 127.714C132.41 127.714 123.238 118.504 123.238 107.143C123.238 95.7816 132.41 86.5714 143.724 86.5714C155.038 86.5714 164.209 95.7816 164.209 107.143Z" fill="#9E9E9E"/>
<path d="M180 102.429C180 113.79 170.828 123 159.515 123C148.201 123 139.029 113.79 139.029 102.429C139.029 91.0673 148.201 81.8571 159.515 81.8571C170.828 81.8571 180 91.0673 180 102.429Z" fill="#9E9E9E"/>
<path d="M179.573 102.429C179.573 113.79 170.402 123 159.088 123C147.774 123 138.603 113.79 138.603 102.429C138.603 91.0673 147.774 81.8571 159.088 81.8571C170.402 81.8571 179.573 91.0673 179.573 102.429Z" fill="#9E9E9E"/>
<path d="M120.251 139.5C120.251 144.589 116.143 148.714 111.075 148.714C106.008 148.714 101.9 144.589 101.9 139.5C101.9 134.411 106.008 130.286 111.075 130.286C116.143 130.286 120.251 134.411 120.251 139.5Z" fill="#9E9E9E"/>
<path d="M101.9 150.429C101.9 153.506 99.4156 156 96.3515 156C93.2873 156 90.8033 153.506 90.8033 150.429C90.8033 147.352 93.2873 144.857 96.3515 144.857C99.4156 144.857 101.9 147.352 101.9 150.429Z" fill="#9E9E9E"/>
<path d="M119.397 102.429C119.397 113.79 110.226 123 98.9121 123C87.5984 123 78.4268 113.79 78.4268 102.429C78.4268 91.0673 87.5984 81.8571 98.9121 81.8571C110.226 81.8571 119.397 91.0673 119.397 102.429Z" fill="#9E9E9E"/>
<path d="M118.971 102.429C118.971 113.79 109.799 123 98.4854 123C87.1716 123 78 113.79 78 102.429C78 91.0673 87.1716 81.8571 98.4854 81.8571C109.799 81.8571 118.971 91.0673 118.971 102.429Z" fill="#9E9E9E"/>
</g>
<path d="M139.883 83.5714C139.883 94.9327 130.711 104.143 119.397 104.143C108.084 104.143 98.9121 94.9327 98.9121 83.5714C98.9121 72.2101 108.084 63 119.397 63C130.711 63 139.883 72.2101 139.883 83.5714Z" fill="#CBC2AA"/>
<path d="M164.209 93.4286C164.209 104.79 155.038 114 143.724 114C132.41 114 123.238 104.79 123.238 93.4286C123.238 82.0673 132.41 72.8571 143.724 72.8571C155.038 72.8571 164.209 82.0673 164.209 93.4286Z" fill="#CBC2AA"/>
<path d="M164.209 93.4286C164.209 104.79 155.038 114 143.724 114C132.41 114 123.238 104.79 123.238 93.4286C123.238 82.0673 132.41 72.8571 143.724 72.8571C155.038 72.8571 164.209 82.0673 164.209 93.4286Z" fill="#CBC2AA"/>
<path d="M142.87 118.5C142.87 126.429 136.469 132.857 128.573 132.857C120.677 132.857 114.276 126.429 114.276 118.5C114.276 110.571 120.677 104.143 128.573 104.143C136.469 104.143 142.87 110.571 142.87 118.5Z" fill="#CBC2AA"/>
<path d="M134.335 107.571C134.335 118.933 125.163 128.143 113.849 128.143C102.536 128.143 93.364 118.933 93.364 107.571C93.364 96.2101 102.536 87 113.849 87C125.163 87 134.335 96.2101 134.335 107.571Z" fill="#CBC2AA"/>
<path d="M164.209 107.143C164.209 118.504 155.038 127.714 143.724 127.714C132.41 127.714 123.238 118.504 123.238 107.143C123.238 95.7816 132.41 86.5714 143.724 86.5714C155.038 86.5714 164.209 95.7816 164.209 107.143Z" fill="#CBC2AA"/>
<path d="M180 102.429C180 113.79 170.828 123 159.515 123C148.201 123 139.029 113.79 139.029 102.429C139.029 91.0673 148.201 81.8571 159.515 81.8571C170.828 81.8571 180 91.0673 180 102.429Z" fill="#CBC2AA"/>
<path d="M179.573 102.429C179.573 113.79 170.402 123 159.088 123C147.774 123 138.603 113.79 138.603 102.429C138.603 91.0673 147.774 81.8571 159.088 81.8571C170.402 81.8571 179.573 91.0673 179.573 102.429Z" fill="#CBC2AA"/>
<path d="M120.251 139.5C120.251 144.589 116.143 148.714 111.075 148.714C106.008 148.714 101.9 144.589 101.9 139.5C101.9 134.411 106.008 130.286 111.075 130.286C116.143 130.286 120.251 134.411 120.251 139.5Z" fill="#CBC2AA"/>
<path d="M101.9 150.429C101.9 153.506 99.4156 156 96.3515 156C93.2873 156 90.8033 153.506 90.8033 150.429C90.8033 147.352 93.2873 144.857 96.3515 144.857C99.4156 144.857 101.9 147.352 101.9 150.429Z" fill="#CBC2AA"/>
<path d="M119.397 102.429C119.397 113.79 110.226 123 98.9121 123C87.5984 123 78.4268 113.79 78.4268 102.429C78.4268 91.0673 87.5984 81.8571 98.9121 81.8571C110.226 81.8571 119.397 91.0673 119.397 102.429Z" fill="#CBC2AA"/>
<path d="M118.971 102.429C118.971 113.79 109.799 123 98.4854 123C87.1716 123 78 113.79 78 102.429C78 91.0673 87.1716 81.8571 98.4854 81.8571C109.799 81.8571 118.971 91.0673 118.971 102.429Z" fill="#CBC2AA"/>
<defs>
<filter id="filter0_i_335_86" x="49.0508" y="47" width="157.899" height="161.004" filterUnits="userSpaceOnUse" color-interpolation-filters="sRGB">
<feFlood flood-opacity="0" result="BackgroundImageFix"/>
<feBlend mode="normal" in="SourceGraphic" in2="BackgroundImageFix" result="shape"/>
<feColorMatrix in="SourceAlpha" type="matrix" values="0 0 0 0 0 0 0 0 0 0 0 0 0 0 0 0 0 0 127 0" result="hardAlpha"/>
<feOffset/>
<feGaussianBlur stdDeviation="12"/>
<feComposite in2="hardAlpha" operator="arithmetic" k2="-1" k3="1"/>
<feColorMatrix type="matrix" values="0 0 0 0 1 0 0 0 0 1 0 0 0 0 1 0 0 0 1 0"/>
<feBlend mode="normal" in2="shape" result="effect1_innerShadow_335_86"/>
</filter>
<filter id="filter1_d_335_86" x="72" y="57" width="114" height="105" filterUnits="userSpaceOnUse" color-interpolation-filters="sRGB">
<feFlood flood-opacity="0" result="BackgroundImageFix"/>
<feColorMatrix in="SourceAlpha" type="matrix" values="0 0 0 0 0 0 0 0 0 0 0 0 0 0 0 0 0 0 127 0" result="hardAlpha"/>
<feOffset/>
<feGaussianBlur stdDeviation="3"/>
<feComposite in2="hardAlpha" operator="out"/>
<feColorMatrix type="matrix" values="0 0 0 0 1 0 0 0 0 1 0 0 0 0 1 0 0 0 1 0"/>
<feBlend mode="normal" in2="BackgroundImageFix" result="effect1_dropShadow_335_86"/>
<feBlend mode="normal" in="SourceGraphic" in2="effect1_dropShadow_335_86" result="shape"/>
</filter>
</defs>
</svg>
