<svg width="512" height="512" viewBox="0 0 512 512" fill="none" xmlns="http://www.w3.org/2000/svg">
<path d="M430.659 106.716L398.895 462.55L256.116 502.133L113.73 462.606L82 106.716H430.659Z" fill="#264DE4"/>
<path d="M371.702 439.892L398.846 135.815H256.329V471.878L371.702 439.892Z" fill="#2965F1"/>
<path d="M154.74 267.81L158.652 311.458H256.329V267.81H154.74Z" fill="#EBEBEB"/>
<path d="M256.33 179.464H256.179H146.88L150.848 223.113H256.33V179.464Z" fill="#EBEBEB"/>
<path d="M256.329 426.582V381.17L256.138 381.221L207.526 368.094L204.419 333.283H180.797H160.603L166.718 401.817L256.128 426.638L256.329 426.582Z" fill="#EBEBEB"/>
<path d="M164.055 10H216.921V32.1076H186.162V54.2151H216.921V76.3227H164.055V10Z" fill="black"/>
<path d="M227.493 10H280.359V29.224H249.601V33.0687H280.359V77.2839H227.493V57.0987H258.251V53.2539H227.493V10Z" fill="black"/>
<path d="M290.933 10H343.799V29.224H313.04V33.0687H343.799V77.2839H290.933V57.0987H321.691V53.2539H290.933V10Z" fill="black"/>
<path d="M309.927 311.458L304.86 368.066L256.179 381.206V426.617L345.66 401.817L346.317 394.443L356.574 279.53L357.639 267.81L365.519 179.464H256.179V223.113H317.684L313.712 267.81H256.179V311.458H309.927Z" fill="white"/>
</svg>
