<svg width="512" height="512" viewBox="0 0 512 512" fill="none" xmlns="http://www.w3.org/2000/svg">
<circle cx="338" cy="256" r="82" fill="#1ABCFE"/>
<path d="M256 10H338C383.287 10 420 46.7127 420 92C420 137.287 383.287 174 338 174H256V10Z" fill="#FF7262"/>
<path d="M256 174L174 174C128.713 174 92 137.287 92 92C92 46.7127 128.713 10 174 10L256 10L256 174Z" fill="#F24E1E"/>
<path d="M256 338L174 338C128.713 338 92 301.287 92 256C92 210.713 128.713 174 174 174L256 174L256 338Z" fill="#A259FF"/>
<path d="M92 420C92 374.713 128.713 338 174 338H256V420C256 465.287 219.287 502 174 502C128.713 502 92 465.287 92 420Z" fill="#0ACF83"/>
</svg>
