<svg width="2048" height="584" viewBox="0 0 2048 584" fill="none" xmlns="http://www.w3.org/2000/svg">
<path d="M197.584 298.724C197.584 323.124 190.346 342.563 175.868 357.04C159.602 374.283 138.211 382.904 111.696 382.904C86.3204 382.904 64.8484 374.12 47.2804 356.552C29.7124 338.984 20.9284 317.349 20.9284 291.648C20.9284 265.947 29.7124 244.312 47.2804 226.744C64.8484 209.176 86.3204 200.392 111.696 200.392C124.547 200.392 136.666 202.669 148.052 207.224C159.439 211.779 168.792 218.204 176.112 226.5L160.008 242.604C154.64 236.097 147.646 231.055 139.024 227.476C130.566 223.735 121.456 221.864 111.696 221.864C92.6644 221.864 76.5604 228.452 63.3844 241.628C50.3711 254.967 43.8644 271.64 43.8644 291.648C43.8644 311.656 50.3711 328.329 63.3844 341.668C76.5604 354.844 92.6644 361.432 111.696 361.432C129.102 361.432 143.579 356.552 155.128 346.792C166.678 337.032 173.347 323.612 175.136 306.532H111.696V285.548H196.364C197.178 290.103 197.584 294.495 197.584 298.724ZM547.705 362.408C558.767 362.408 567.795 358.423 574.789 350.452C582.109 342.481 585.769 332.071 585.769 319.22C585.769 306.695 582.109 296.365 574.789 288.232C567.632 280.099 558.604 276.032 547.705 276.032C536.969 276.032 527.941 280.099 520.621 288.232C513.301 296.365 509.641 306.695 509.641 319.22C509.641 331.908 513.301 342.237 520.621 350.208C527.941 358.341 536.969 362.408 547.705 362.408ZM546.973 435.608C540.304 435.608 534.041 434.713 528.185 432.924C522.329 431.297 516.961 428.939 512.081 425.848C507.364 422.757 503.297 419.097 499.881 414.868C496.465 410.639 493.863 405.921 492.073 400.716L513.301 391.932C515.741 398.927 519.971 404.539 525.989 408.768C532.008 412.997 539.003 415.112 546.973 415.112C559.173 415.112 568.689 411.452 575.521 404.132C582.353 396.812 585.769 386.727 585.769 373.876V362.408H584.793C580.564 368.752 574.789 373.795 567.469 377.536C560.312 381.115 552.504 382.904 544.045 382.904C528.429 382.904 515.009 376.804 503.785 364.604C492.724 352.079 487.193 336.951 487.193 319.22C487.193 301.489 492.724 286.443 503.785 274.08C515.009 261.717 528.429 255.536 544.045 255.536C552.504 255.536 560.312 257.407 567.469 261.148C574.789 264.727 580.564 269.688 584.793 276.032H585.769V259.44H607.241V373.876C607.241 393.071 601.792 408.117 590.893 419.016C579.832 430.077 565.192 435.608 546.973 435.608Z" fill="#4285F4"/>
<path d="M214.123 319.22C214.123 300.839 219.898 285.629 231.447 273.592C243.159 261.555 257.88 255.536 275.611 255.536C293.342 255.536 307.982 261.555 319.531 273.592C331.243 285.629 337.099 300.839 337.099 319.22C337.099 337.764 331.243 352.973 319.531 364.848C307.982 376.885 293.342 382.904 275.611 382.904C257.88 382.904 243.159 376.885 231.447 364.848C219.898 352.811 214.123 337.601 214.123 319.22ZM236.571 319.22C236.571 332.071 240.312 342.481 247.795 350.452C255.278 358.423 264.55 362.408 275.611 362.408C286.672 362.408 295.944 358.423 303.427 350.452C310.91 342.481 314.651 332.071 314.651 319.22C314.651 306.532 310.91 296.203 303.427 288.232C295.782 280.099 286.51 276.032 275.611 276.032C264.712 276.032 255.44 280.099 247.795 288.232C240.312 296.203 236.571 306.532 236.571 319.22ZM738.092 382.904C720.524 382.904 706.047 376.885 694.66 364.848C683.273 352.811 677.58 337.601 677.58 319.22C677.58 301.001 683.111 285.873 694.172 273.836C705.233 261.636 719.385 255.536 736.628 255.536C754.359 255.536 768.429 261.311 778.84 272.86C789.413 284.247 794.7 300.269 794.7 320.928L794.456 323.368H700.516C700.841 335.08 704.745 344.515 712.228 351.672C719.711 358.829 728.657 362.408 739.068 362.408C753.383 362.408 764.607 355.251 772.74 340.936L792.748 350.696C787.38 360.781 779.897 368.671 770.3 374.364C760.865 380.057 750.129 382.904 738.092 382.904ZM702.224 304.824H770.788C770.137 296.528 766.721 289.696 760.54 284.328C754.521 278.797 746.388 276.032 736.14 276.032C727.681 276.032 720.361 278.635 714.18 283.84C708.161 289.045 704.176 296.04 702.224 304.824Z" fill="#EA4335"/>
<path d="M350.658 319.22C350.658 300.839 356.433 285.629 367.982 273.592C379.694 261.555 394.416 255.536 412.146 255.536C429.877 255.536 444.517 261.555 456.066 273.592C467.778 285.629 473.634 300.839 473.634 319.22C473.634 337.764 467.778 352.973 456.066 364.848C444.517 376.885 429.877 382.904 412.146 382.904C394.416 382.904 379.694 376.885 367.982 364.848C356.433 352.811 350.658 337.601 350.658 319.22ZM373.106 319.22C373.106 332.071 376.848 342.481 384.33 350.452C391.813 358.423 401.085 362.408 412.146 362.408C423.208 362.408 432.48 358.423 439.962 350.452C447.445 342.481 451.186 332.071 451.186 319.22C451.186 306.532 447.445 296.203 439.962 288.232C432.317 280.099 423.045 276.032 412.146 276.032C401.248 276.032 391.976 280.099 384.33 288.232C376.848 296.203 373.106 306.532 373.106 319.22Z" fill="#FBBC05"/>
<path d="M657.059 204.296V379H634.611V204.296H657.059Z" fill="#34A853"/>
<path d="M1052.82 204.296H1076.24L1029.64 379H1006.7L969.126 263.832H968.15L930.574 379H907.638L859.082 204.296H882.506L919.35 341.668H920.326L958.146 227.72H979.13L1016.95 341.668H1017.93L1052.82 204.296ZM1073.6 319.22C1073.6 300.839 1079.38 285.629 1090.93 273.592C1102.64 261.555 1117.36 255.536 1135.09 255.536C1152.82 255.536 1167.46 261.555 1179.01 273.592C1190.72 285.629 1196.58 300.839 1196.58 319.22C1196.58 337.764 1190.72 352.973 1179.01 364.848C1167.46 376.885 1152.82 382.904 1135.09 382.904C1117.36 382.904 1102.64 376.885 1090.93 364.848C1079.38 352.811 1073.6 337.601 1073.6 319.22ZM1096.05 319.22C1096.05 332.071 1099.79 342.481 1107.28 350.452C1114.76 358.423 1124.03 362.408 1135.09 362.408C1146.15 362.408 1155.42 358.423 1162.91 350.452C1170.39 342.481 1174.13 332.071 1174.13 319.22C1174.13 306.532 1170.39 296.203 1162.91 288.232C1155.26 280.099 1145.99 276.032 1135.09 276.032C1124.19 276.032 1114.92 280.099 1107.28 288.232C1099.79 296.203 1096.05 306.532 1096.05 319.22ZM1237.04 379H1214.59V259.44H1236.06V278.96H1237.04C1239.31 272.616 1243.95 267.248 1250.94 262.856C1258.1 258.301 1265.1 256.024 1271.93 256.024C1278.43 256.024 1283.97 257 1288.52 258.952L1281.69 280.668C1278.92 279.529 1274.53 278.96 1268.51 278.96C1260.05 278.96 1252.65 282.376 1246.31 289.208C1240.13 296.04 1237.04 304.011 1237.04 313.12V379ZM1409.58 379H1382.5L1345.17 322.636L1326.87 340.692V379H1304.42V204.296H1326.87V311.9L1378.6 259.44H1407.39V260.416L1360.78 306.776L1409.58 378.024V379ZM1511.49 345.816C1511.49 356.227 1506.93 365.011 1497.82 372.168C1488.71 379.325 1477.24 382.904 1463.42 382.904C1451.38 382.904 1440.81 379.813 1431.7 373.632C1422.59 367.288 1416.08 358.992 1412.18 348.744L1432.19 340.204C1435.11 347.361 1439.34 352.973 1444.87 357.04C1450.57 360.944 1456.75 362.896 1463.42 362.896C1470.58 362.896 1476.51 361.351 1481.23 358.26C1486.11 355.169 1488.55 351.509 1488.55 347.28C1488.55 339.635 1482.69 334.023 1470.98 330.444L1450.49 325.32C1427.22 319.464 1415.59 308.24 1415.59 291.648C1415.59 280.749 1419.99 272.047 1428.77 265.54C1437.72 258.871 1449.1 255.536 1462.93 255.536C1473.5 255.536 1483.02 258.057 1491.48 263.1C1500.1 268.143 1506.12 274.893 1509.53 283.352L1489.53 291.648C1487.25 286.605 1483.51 282.701 1478.3 279.936C1473.26 277.008 1467.57 275.544 1461.22 275.544C1455.37 275.544 1450.08 277.008 1445.36 279.936C1440.81 282.864 1438.53 286.443 1438.53 290.672C1438.53 297.504 1444.96 302.384 1457.81 305.312L1475.86 309.948C1499.61 315.804 1511.49 327.76 1511.49 345.816ZM1588.39 362.408C1599.13 362.408 1608.16 358.341 1615.48 350.208C1622.8 342.237 1626.46 331.908 1626.46 319.22C1626.46 306.695 1622.8 296.365 1615.48 288.232C1608.16 280.099 1599.13 276.032 1588.39 276.032C1577.5 276.032 1568.39 280.099 1561.07 288.232C1553.91 296.365 1550.33 306.695 1550.33 319.22C1550.33 331.908 1553.91 342.319 1561.07 350.452C1568.39 358.423 1577.5 362.408 1588.39 362.408ZM1592.05 382.904C1583.27 382.904 1575.22 381.033 1567.9 377.292C1560.74 373.551 1555.21 368.589 1551.31 362.408H1550.33L1551.31 379V431.704H1528.86V259.44H1550.33V276.032H1551.31C1555.21 269.851 1560.74 264.889 1567.9 261.148C1575.22 257.407 1583.27 255.536 1592.05 255.536C1607.83 255.536 1621.17 261.717 1632.07 274.08C1643.29 286.605 1648.91 301.652 1648.91 319.22C1648.91 336.951 1643.29 351.997 1632.07 364.36C1621.17 376.723 1607.83 382.904 1592.05 382.904ZM1685.81 342.4C1685.81 348.256 1688.25 353.136 1693.13 357.04C1698.18 360.944 1704.03 362.896 1710.7 362.896C1720.14 362.896 1728.51 359.399 1735.83 352.404C1743.32 345.409 1747.06 337.195 1747.06 327.76C1740.06 322.229 1730.3 319.464 1717.78 319.464C1708.67 319.464 1701.02 321.66 1694.84 326.052C1688.82 330.444 1685.81 335.893 1685.81 342.4ZM1714.85 255.536C1731.44 255.536 1744.54 260.009 1754.13 268.956C1763.73 277.74 1768.53 289.859 1768.53 305.312V379H1747.06V362.408H1746.08C1736.81 376.072 1724.45 382.904 1708.99 382.904C1695.82 382.904 1684.76 379 1675.81 371.192C1667.03 363.384 1662.63 353.624 1662.63 341.912C1662.63 329.549 1667.27 319.708 1676.54 312.388C1685.98 305.068 1698.5 301.408 1714.12 301.408C1727.46 301.408 1738.44 303.848 1747.06 308.728V303.604C1747.06 295.796 1743.97 289.208 1737.79 283.84C1731.61 278.309 1724.37 275.544 1716.07 275.544C1703.55 275.544 1693.62 280.831 1686.3 291.404L1666.54 278.96C1677.44 263.344 1693.54 255.536 1714.85 255.536ZM1847.31 382.904C1829.58 382.904 1814.86 376.885 1803.15 364.848C1791.6 352.485 1785.83 337.276 1785.83 319.22C1785.83 300.839 1791.6 285.629 1803.15 273.592C1814.86 261.555 1829.58 255.536 1847.31 255.536C1859.51 255.536 1870.17 258.627 1879.28 264.808C1888.39 270.827 1895.22 279.204 1899.77 289.94L1879.28 298.48C1872.93 283.515 1861.79 276.032 1845.85 276.032C1835.6 276.032 1826.74 280.18 1819.25 288.476C1811.93 296.772 1808.27 307.02 1808.27 319.22C1808.27 331.42 1811.93 341.668 1819.25 349.964C1826.74 358.26 1835.6 362.408 1845.85 362.408C1862.28 362.408 1873.83 354.925 1880.5 339.96L1900.51 348.5C1896.11 359.236 1889.2 367.695 1879.77 373.876C1870.49 379.895 1859.68 382.904 1847.31 382.904ZM1972.63 382.904C1955.06 382.904 1940.58 376.885 1929.2 364.848C1917.81 352.811 1912.12 337.601 1912.12 319.22C1912.12 301.001 1917.65 285.873 1928.71 273.836C1939.77 261.636 1953.92 255.536 1971.16 255.536C1988.89 255.536 2002.96 261.311 2013.38 272.86C2023.95 284.247 2029.24 300.269 2029.24 320.928L2028.99 323.368H1935.05C1935.38 335.08 1939.28 344.515 1946.76 351.672C1954.25 358.829 1963.19 362.408 1973.6 362.408C1987.92 362.408 1999.14 355.251 2007.28 340.936L2027.28 350.696C2021.92 360.781 2014.43 368.671 2004.84 374.364C1995.4 380.057 1984.66 382.904 1972.63 382.904ZM1936.76 304.824H2005.32C2004.67 296.528 2001.26 289.696 1995.08 284.328C1989.06 278.797 1980.92 276.032 1970.68 276.032C1962.22 276.032 1954.9 278.635 1948.72 283.84C1942.7 289.045 1938.71 296.04 1936.76 304.824Z" fill="#4C4C4C"/>
</svg>
