<svg width="512" height="512" viewBox="0 0 512 512" fill="none" xmlns="http://www.w3.org/2000/svg">
<path d="M113.67 462.514L82 107H430L398.296 462.459L255.787 502L113.67 462.514Z" fill="#E44D26"/>
<path d="M256 472L371.764 439.925L399 135H256V472Z" fill="#F16529"/>
<path d="M256 268.35H198.479L194.506 223.651H256V180H255.85H147L148.041 191.711L158.724 312H256V268.35Z" fill="#EBEBEB"/>
<path d="M256 381.218L255.808 381.269L207.058 368.052L203.941 333H180.252H160L166.133 402.008L255.799 427L256 426.944V381.218Z" fill="#EBEBEB"/>
<path d="M114 10H136.3V32.125H156.699V10H179V77H156.7V54.5644H136.301V77H114.001V10H114Z" fill="black"/>
<path d="M208.449 32.2182H189V10H250V32.2182H230.543V77H208.45V32.2182H208.449Z" fill="black"/>
<path d="M259 10H282.22L296.503 33.5418L310.772 10H334V77H311.823V43.7911L296.503 67.6134H296.12L280.789 43.7911V77H259V10Z" fill="black"/>
<path d="M345 10H367.445V54.8536H399V77H345V10Z" fill="black"/>
<path d="M255 268V311.701H309.034L303.941 368.379L255 381.534V427L344.958 402.17L345.618 394.787L355.929 279.735L357 268H345.175H255Z" fill="white"/>
<path d="M255 180V206.707V222.895V223H360.927H361.068L361.949 213.335L363.95 191.536L365 180H255Z" fill="white"/>
</svg>
