<svg width="512" height="512" viewBox="0 0 512 512" fill="none" xmlns="http://www.w3.org/2000/svg">
<path d="M502 10H10V502H502V10Z" fill="#F7DF1E"/>
<path d="M340.423 394.658C350.357 410.895 363.28 422.829 386.137 422.829C405.339 422.829 417.605 413.222 417.605 399.948C417.605 384.041 405.002 378.406 383.867 369.152L372.282 364.176C338.842 349.914 316.627 332.048 316.627 294.278C316.627 259.486 343.108 233 384.494 233C413.957 233 435.139 243.265 450.403 270.143L414.317 293.338C406.372 279.076 397.801 273.458 384.494 273.458C370.92 273.458 362.318 282.077 362.318 293.338C362.318 307.255 370.928 312.889 390.811 321.509L402.396 326.477C441.769 343.379 464 360.611 464 399.352C464 441.119 431.225 464 387.21 464C344.173 464 316.369 443.469 302.764 416.56L340.423 394.658ZM176.722 398.678C184.002 411.608 190.624 422.539 206.546 422.539C221.771 422.539 231.375 416.576 231.375 393.389V235.649H277.715V394.016C277.715 442.051 249.583 463.914 208.518 463.914C171.415 463.914 149.928 444.692 139 421.54L176.722 398.678Z" fill="black"/>
</svg>
