<svg width="156" height="156" viewBox="0 0 156 156" fill="none" xmlns="http://www.w3.org/2000/svg">
<path fill-rule="evenodd" clip-rule="evenodd" d="M115.325 83.1013C115.323 83.1036 115.323 83.1048 115.319 83.11C115.141 83.3654 101.699 102.711 94.4906 114.439C88.9542 123.447 82.4672 135.548 79.5542 141.066C78.8964 142.311 77.1036 142.311 76.4458 141.066C73.5328 135.548 67.0458 123.447 61.5094 114.439C54.3005 102.711 40.8589 83.3659 40.681 83.11C40.6775 83.1049 40.6766 83.1037 40.6749 83.1013C40.6749 83.1013 40.6728 83.0984 40.6707 83.0956C35.2115 75.5111 32 66.1959 32 56.1273C32 30.652 52.5946 10 78 10C103.405 10 124 30.652 124 56.1273C124 66.1959 120.788 75.5111 115.329 83.0957C115.327 83.0984 115.325 83.1013 115.325 83.1013ZM89.8938 48.5522L78 27.4065L66.1062 48.5522L45.0189 60.4789L66.1062 72.4057L78 93.5514L89.8938 72.4057L110.981 60.4789L89.8938 48.5522Z" fill="#58481D"/>
<g filter="url(#filter0_f_275_165)">
<path d="M78 36.2914L85.891 50.4877L86.5681 51.7058L87.7776 52.398L101.934 60.5L87.7776 68.602L86.5681 69.2942L85.891 70.5123L78 84.7086L70.109 70.5123L69.4319 69.2942L68.2224 68.602L54.066 60.5L68.2224 52.398L69.4319 51.7058L70.109 50.4877L78 36.2914Z" stroke="#9E9E9E" stroke-width="10"/>
</g>
<path d="M78 35.2359L86.4041 50.3618L86.9455 51.3364L87.9131 51.8903L102.95 60.5L87.9131 69.1097L86.9455 69.6636L86.4041 70.6382L78 85.7641L69.5959 70.6382L69.0545 69.6636L68.0869 69.1097L53.0501 60.5L68.0869 51.8903L69.0545 51.3364L69.5959 50.3618L78 35.2359Z" stroke="#CBC2AA" stroke-width="8"/>
<path d="M90.2224 112.59C86.0322 119.457 81.3311 128.035 78 134.264C74.6689 128.035 69.9677 119.457 65.7776 112.59L65.7775 112.59C58.488 100.645 44.9787 81.0635 44.797 80.8002L44.7724 80.7648C44.7596 80.7465 44.7473 80.7293 44.7355 80.7127L44.7377 80.7159C44.7362 80.7138 44.7347 80.7117 44.7332 80.7096C39.8666 73.8961 37 65.5278 37 56.461C37 33.5157 55.4029 15 78 15C100.597 15 119 33.5157 119 56.461C119 65.5283 116.133 73.897 111.266 80.7106C111.265 80.7124 111.264 80.7141 111.262 80.7159L111.265 80.7127C111.253 80.7292 111.24 80.7464 111.228 80.7647L111.203 80.8C111.022 81.0627 97.5113 100.645 90.2224 112.59ZM90.2224 112.59L94.4906 115.195L90.2224 112.59Z" stroke="#CBC2AA" stroke-width="10"/>
<g filter="url(#filter1_f_275_165)">
<path d="M65.7689 111.797L65.7688 111.797C58.479 99.9398 44.9702 80.5037 44.7871 80.2404L44.7624 80.2051C44.7495 80.1869 44.7372 80.1697 44.7253 80.1532L44.7274 80.1562C44.7259 80.1542 44.7245 80.1521 44.7231 80.1501C39.861 73.3936 37 65.0996 37 56.1169C37 33.3967 55.368 15 78 15C100.632 15 119 33.3967 119 56.1169C119 65.0993 116.139 73.393 111.277 80.1494C111.276 80.1517 111.274 80.1539 111.273 80.1562L111.275 80.1532C111.27 80.1603 111.264 80.1675 111.259 80.1748C111.252 80.1846 111.245 80.1946 111.238 80.205L111.213 80.2403C111.03 80.5029 97.5203 99.9393 90.2311 111.797C86.0372 118.619 81.3318 127.142 78 133.326C74.6682 127.142 69.9628 118.619 65.7689 111.797Z" stroke="#CBC2AA" stroke-width="10"/>
</g>
<defs>
<filter id="filter0_f_275_165" x="40" y="22" width="76" height="77" filterUnits="userSpaceOnUse" color-interpolation-filters="sRGB">
<feFlood flood-opacity="0" result="BackgroundImageFix"/>
<feBlend mode="normal" in="SourceGraphic" in2="BackgroundImageFix" result="shape"/>
<feGaussianBlur stdDeviation="2" result="effect1_foregroundBlur_275_165"/>
</filter>
<filter id="filter1_f_275_165" x="28" y="6" width="100" height="139.664" filterUnits="userSpaceOnUse" color-interpolation-filters="sRGB">
<feFlood flood-opacity="0" result="BackgroundImageFix"/>
<feBlend mode="normal" in="SourceGraphic" in2="BackgroundImageFix" result="shape"/>
<feGaussianBlur stdDeviation="2" result="effect1_foregroundBlur_275_165"/>
</filter>
</defs>
</svg>
