<svg width="512" height="512" viewBox="0 0 512 512" fill="none" xmlns="http://www.w3.org/2000/svg">
<path d="M65.876 88.375H487.001V502H125.876C92.7389 502 65.876 475.137 65.876 442V88.375Z" fill="#36687F"/>
<path d="M25 55L100.937 10H393.062C426.199 10 453.062 36.8629 453.062 70V355.75H100.937L25 400.75V55Z" fill="#39A5CC"/>
<path d="M25 55L100.937 10V355.75L25 400.75V55Z" fill="#7FC5DE"/>
<path d="M161.287 82.8867H220.96L271.58 206.321H273.916L324.536 82.8867H384.208V282.25H337.288V159.79H335.633L287.739 280.985H257.757L209.863 159.108H208.208V282.25H161.287V82.8867Z" fill="white"/>
<path d="M194.167 460.75H176.031L199.587 390.932H222.053L245.61 460.75H227.474L211.076 408.523H210.531L194.167 460.75ZM191.747 433.273H229.656V446.091H191.747V433.273Z" fill="white"/>
<path d="M242.525 390.932H261.377L276.139 420.148H276.752L291.514 390.932H310.366L284.832 437.432V460.75H268.059V437.432L242.525 390.932Z" fill="white"/>
<path d="M325.417 460.75H307.281L330.837 390.932H353.303L376.86 460.75H358.724L342.326 408.523H341.781L325.417 460.75ZM322.997 433.273H360.906V446.091H322.997V433.273Z" fill="white"/>
</svg>
