<svg width="156" height="156" viewBox="0 0 156 156" fill="none" xmlns="http://www.w3.org/2000/svg">
<circle cx="78" cy="73.9998" r="39" fill="#746132"/>
<g filter="url(#filter0_f_226_54)">
<path fill-rule="evenodd" clip-rule="evenodd" d="M78.1059 74.2273C94.5079 90.6293 109.704 102.026 112.047 99.6831C112.555 99.1752 112.417 98.0635 111.723 96.4666C112.177 96.481 112.524 96.3773 112.754 96.1476C113.081 95.8204 113.153 95.255 112.991 94.4817C124.955 110.606 130.63 123.527 126.508 127.648C120.055 134.102 92.0295 116.539 63.9117 88.4214C35.794 60.3036 18.2315 32.2782 24.6849 25.8249C28.8064 21.7034 41.7272 27.3778 57.8514 39.3417C57.0782 39.1802 56.5127 39.2518 56.1856 39.579C55.9558 39.8088 55.8521 40.156 55.8666 40.6101C54.2696 39.9159 53.1579 39.7782 52.65 40.2861C50.3069 42.6293 61.7039 57.8252 78.1059 74.2273Z" fill="white"/>
</g>
<path fill-rule="evenodd" clip-rule="evenodd" d="M76.692 75.6414C94.2656 93.215 111.045 104.929 114.169 101.804C114.865 101.108 114.824 99.7316 114.144 97.8191C123.747 111.301 128.14 121.774 124.723 125.191C118.865 131.049 92.2725 113.953 65.3264 87.0071C38.3802 60.0609 21.2847 33.4679 27.1426 27.6101C30.5596 24.1931 41.032 28.5862 54.5144 38.1889C52.6018 37.5092 51.2259 37.4679 50.5291 38.1647C47.4049 41.2889 59.1184 58.0678 76.692 75.6414Z" fill="#B6AD93"/>
<g filter="url(#filter1_f_226_54)">
<path fill-rule="evenodd" clip-rule="evenodd" d="M77.2282 74.2274C93.6303 57.8253 105.027 42.6294 102.684 40.2862C102.176 39.7784 101.064 39.916 99.4675 40.6102C99.482 40.1561 99.3783 39.8089 99.1485 39.5791C98.8214 39.252 98.256 39.1803 97.4827 39.3418C113.607 27.3779 126.528 21.7035 130.649 25.825C137.103 32.2784 119.54 60.3038 91.4224 88.4215C63.3046 116.539 35.2792 134.102 28.8259 127.648C24.7043 123.527 30.3788 110.606 42.3426 94.4818C42.1812 95.2551 42.2528 95.8205 42.58 96.1477C42.8097 96.3774 43.1569 96.4811 43.6111 96.4667C42.9169 98.0636 42.7792 99.1753 43.2871 99.6832C45.6303 102.026 60.8262 90.6294 77.2282 74.2274Z" fill="white"/>
</g>
<path fill-rule="evenodd" clip-rule="evenodd" d="M79.6423 75.6414C97.2159 58.0678 108.929 41.2889 105.805 38.1647C105.108 37.4678 103.732 37.5092 101.819 38.1893C115.302 28.5863 125.774 24.1931 129.191 27.6101C135.049 33.468 117.954 60.0609 91.0075 87.0071C64.0613 113.953 37.4684 131.049 31.6105 125.191C28.1934 121.774 32.587 111.301 42.1903 97.8177C41.5101 99.731 41.4687 101.107 42.1656 101.804C45.2898 104.929 62.0687 93.215 79.6423 75.6414Z" fill="#B6AD93"/>
<defs>
<filter id="filter0_f_226_54" x="19.3496" y="20.4897" width="112.494" height="112.494" filterUnits="userSpaceOnUse" color-interpolation-filters="sRGB">
<feFlood flood-opacity="0" result="BackgroundImageFix"/>
<feBlend mode="normal" in="SourceGraphic" in2="BackgroundImageFix" result="shape"/>
<feGaussianBlur stdDeviation="2" result="effect1_foregroundBlur_226_54"/>
</filter>
<filter id="filter1_f_226_54" x="23.4902" y="20.4897" width="112.494" height="112.494" filterUnits="userSpaceOnUse" color-interpolation-filters="sRGB">
<feFlood flood-opacity="0" result="BackgroundImageFix"/>
<feBlend mode="normal" in="SourceGraphic" in2="BackgroundImageFix" result="shape"/>
<feGaussianBlur stdDeviation="2" result="effect1_foregroundBlur_226_54"/>
</filter>
</defs>
</svg>
