<svg width="156" height="156" viewBox="0 0 156 156" fill="none" xmlns="http://www.w3.org/2000/svg">
<path d="M56.739 26.4311L78.17 37.8487L99.601 26.4311L106.681 49.6586L129.909 56.7391L118.491 78.1701L129.909 99.6011L106.681 106.682L99.601 129.909L78.17 118.491L56.739 129.909L49.6585 106.682L26.431 99.6011L37.8486 78.1701L26.431 56.7391L49.6585 49.6586L56.739 26.4311Z" fill="#58481D"/>
<g filter="url(#filter0_f_226_52)">
<path d="M78 18.1699L94.5319 38.2583L120.426 35.7435L117.912 61.638L138 78.1699L117.912 94.7018L120.426 120.596L94.5319 118.082L78 138.17L61.4681 118.082L35.5736 120.596L38.0884 94.7018L18 78.1699L38.0884 61.638L35.5736 35.7435L61.4681 38.2583L78 18.1699Z" fill="#9E9E9E"/>
</g>
<path d="M78 22L93.4298 40.7492L117.598 38.402L115.251 62.5702L134 78L115.251 93.4298L117.598 117.598L93.4298 115.251L78 134L62.5702 115.251L38.402 117.598L40.7492 93.4298L22 78L40.7492 62.5702L38.402 38.402L62.5702 40.7492L78 22Z" fill="#6A6451"/>
<circle cx="79" cy="78" r="33" fill="#9E9E9E"/>
<g filter="url(#filter1_f_226_52)">
<circle cx="79" cy="78" r="30" fill="#58481D"/>
</g>
<defs>
<filter id="filter0_f_226_52" x="14" y="14.1699" width="128" height="128" filterUnits="userSpaceOnUse" color-interpolation-filters="sRGB">
<feFlood flood-opacity="0" result="BackgroundImageFix"/>
<feBlend mode="normal" in="SourceGraphic" in2="BackgroundImageFix" result="shape"/>
<feGaussianBlur stdDeviation="2" result="effect1_foregroundBlur_226_52"/>
</filter>
<filter id="filter1_f_226_52" x="45" y="44" width="68" height="68" filterUnits="userSpaceOnUse" color-interpolation-filters="sRGB">
<feFlood flood-opacity="0" result="BackgroundImageFix"/>
<feBlend mode="normal" in="SourceGraphic" in2="BackgroundImageFix" result="shape"/>
<feGaussianBlur stdDeviation="2" result="effect1_foregroundBlur_226_52"/>
</filter>
</defs>
</svg>
