<svg width="156" height="156" viewBox="0 0 156 156" fill="none" xmlns="http://www.w3.org/2000/svg">
<path d="M78 137L57.2271 106.591L21.8877 96.232L44.3887 67.079L43.3207 30.268L78 42.659L112.679 30.268L111.611 67.079L134.112 96.232L98.7729 106.591L78 137Z" fill="#58481D"/>
<g filter="url(#filter0_f_226_53)">
<path d="M78 30.0002L88.5758 45.4513L106.214 39.1674L105.688 57.8839L123.651 63.1674L112.224 78.0002L123.651 92.8331L105.688 98.1166L106.214 116.833L88.5758 110.549L78 126L67.4242 110.549L49.7863 116.833L50.3122 98.1166L32.3493 92.8331L43.776 78.0002L32.3493 63.1674L50.3122 57.8839L49.7863 39.1674L67.4242 45.4513L78 30.0002Z" fill="#9E9E9E"/>
</g>
<path d="M78 33.0002L87.9148 47.4856L104.45 41.5945L103.957 59.1412L120.798 64.0945L110.085 78.0002L120.798 91.906L103.957 96.8593L104.45 114.406L87.9148 108.515L78 123L68.0852 108.515L51.5497 114.406L52.0427 96.8593L35.2025 91.906L45.915 78.0002L35.2025 64.0945L52.0427 59.1412L51.5497 41.5945L68.0852 47.4856L78 33.0002Z" fill="#6A6451"/>
<path d="M78 106L73.12 93.0191L61.542 100.652L65.224 87.2823L51.3704 86.6525L62.208 78L51.3704 69.3475L65.224 68.7177L61.542 55.3475L73.12 62.9809L78 50L82.88 62.9809L94.458 55.3475L90.776 68.7177L104.63 69.3475L93.792 78L104.63 86.6525L90.776 87.2823L94.458 100.652L82.88 93.0191L78 106Z" fill="#9E9E9E"/>
<g filter="url(#filter1_f_226_53)">
<path d="M78 102L73.8171 90.8735L63.8932 97.4164L67.0491 85.9563L55.1746 85.4164L64.464 78L55.1746 70.5836L67.0491 70.0437L63.8932 58.5836L73.8171 65.1265L78 54L82.1829 65.1265L92.1068 58.5836L88.9509 70.0437L100.825 70.5836L91.536 78L100.825 85.4164L88.9509 85.9563L92.1068 97.4164L82.1829 90.8735L78 102Z" fill="#58481D"/>
</g>
<defs>
<filter id="filter0_f_226_53" x="28.3496" y="26.0002" width="99.3008" height="104" filterUnits="userSpaceOnUse" color-interpolation-filters="sRGB">
<feFlood flood-opacity="0" result="BackgroundImageFix"/>
<feBlend mode="normal" in="SourceGraphic" in2="BackgroundImageFix" result="shape"/>
<feGaussianBlur stdDeviation="2" result="effect1_foregroundBlur_226_53"/>
</filter>
<filter id="filter1_f_226_53" x="51.1748" y="50" width="53.6504" height="56" filterUnits="userSpaceOnUse" color-interpolation-filters="sRGB">
<feFlood flood-opacity="0" result="BackgroundImageFix"/>
<feBlend mode="normal" in="SourceGraphic" in2="BackgroundImageFix" result="shape"/>
<feGaussianBlur stdDeviation="2" result="effect1_foregroundBlur_226_53"/>
</filter>
</defs>
</svg>
