<svg width="156" height="156" viewBox="0 0 156 156" fill="none" xmlns="http://www.w3.org/2000/svg">
<circle cx="78.9997" cy="78.0002" r="48.1667" fill="#746132"/>
<g filter="url(#filter0_f_226_51)">
<path fill-rule="evenodd" clip-rule="evenodd" d="M115.281 42.1571C111.932 41.1761 108.397 40.6497 104.749 40.6497C84.2595 40.6497 67.9621 57.2568 68.3478 77.7427C68.7336 98.2287 85.6563 114.836 106.146 114.836C109.375 114.836 112.5 114.423 115.472 113.648C106.212 123.121 93.2928 129 79 129C50.8335 129 28 106.167 28 78C28 49.8335 50.8335 27 79 27C93.1946 27 106.035 32.799 115.281 42.1571Z" fill="white"/>
</g>
<path fill-rule="evenodd" clip-rule="evenodd" d="M105.865 38.0153C105.495 38.0051 105.123 38 104.75 38C82.7965 38 65.335 55.7934 65.7483 77.7426C66.1616 99.6918 84.2931 117.485 106.246 117.485C106.363 117.485 106.479 117.485 106.596 117.484C98.7803 122.956 89.2654 126.167 79.0006 126.167C52.3989 126.167 30.834 104.602 30.834 78.0002C30.834 51.3984 52.3989 29.8335 79.0006 29.8335C88.9479 29.8335 98.1909 32.8488 105.865 38.0153Z" fill="#B6AD93"/>
<defs>
<filter id="filter0_f_226_51" x="24" y="23" width="95.4717" height="110" filterUnits="userSpaceOnUse" color-interpolation-filters="sRGB">
<feFlood flood-opacity="0" result="BackgroundImageFix"/>
<feBlend mode="normal" in="SourceGraphic" in2="BackgroundImageFix" result="shape"/>
<feGaussianBlur stdDeviation="2" result="effect1_foregroundBlur_226_51"/>
</filter>
</defs>
</svg>
