<svg width="156" height="156" viewBox="0 0 156 156" fill="none" xmlns="http://www.w3.org/2000/svg">
<circle cx="78" cy="71" r="43" fill="#746132"/>
<g filter="url(#filter0_f_226_54)">
<path fill-rule="evenodd" clip-rule="evenodd" d="M80.4931 66.7723C99.4941 80.0769 116.438 88.662 118.339 85.9476C118.751 85.3592 118.422 84.2883 117.461 82.8361C117.911 82.7715 118.235 82.6091 118.421 82.343C118.687 81.9639 118.659 81.3947 118.366 80.6612C132.948 94.463 140.78 106.202 137.437 110.977C132.202 118.453 101.553 106.024 68.9794 83.2156C36.4062 60.4076 14.244 35.8576 19.4787 28.3817C22.8219 23.6071 36.5317 26.9517 54.4885 35.9338C53.699 35.9091 53.1546 36.0778 52.8892 36.4568C52.7029 36.723 52.661 37.0829 52.7541 37.5277C51.0609 37.1213 49.9421 37.1788 49.5302 37.7671C47.6295 40.4816 61.4921 53.4676 80.4931 66.7723Z" fill="white"/>
</g>
<path fill-rule="evenodd" clip-rule="evenodd" d="M79.3459 68.4104C99.7041 82.6654 118.262 91.2874 120.796 87.6682C121.362 86.861 121.082 85.5131 120.08 83.7476C131.878 95.3577 138.023 104.908 135.252 108.867C130.5 115.653 101.342 103.435 70.1265 81.5771C38.9106 59.7194 17.457 36.4991 22.2087 29.713C24.9804 25.7546 36.0566 28.2625 51.0016 35.3781C49.0001 35.0408 47.6379 35.2391 47.0726 36.0463C44.5384 39.6655 58.9876 54.1555 79.3459 68.4104Z" fill="#B6AD93"/>
<g filter="url(#filter1_f_226_54)">
<path fill-rule="evenodd" clip-rule="evenodd" d="M74.913 67.7722C93.9141 54.4676 107.777 41.4815 105.876 38.7671C105.464 38.1787 104.345 38.1213 102.652 38.5276C102.745 38.0829 102.703 37.7229 102.517 37.4568C102.252 37.0778 101.707 36.9091 100.918 36.9338C118.874 27.9516 132.584 24.607 135.927 29.3817C141.162 36.8576 119 61.4075 86.4268 84.2155C53.8536 107.024 23.2043 119.453 17.9696 111.977C14.6263 107.202 22.4583 95.4629 37.0403 81.6612C36.747 82.3946 36.7194 82.9639 36.9848 83.3429C37.1711 83.6091 37.495 83.7715 37.9448 83.8361C36.9838 85.2882 36.6552 86.3592 37.0672 86.9475C38.9679 89.662 55.912 81.0769 74.913 67.7722Z" fill="white"/>
</g>
<path fill-rule="evenodd" clip-rule="evenodd" d="M77.0444 69.5841C97.4026 55.3291 111.852 40.8392 109.318 37.2199C108.752 36.4126 107.39 36.2144 105.388 36.5519C120.333 29.4361 131.409 26.9281 134.181 30.8866C138.933 37.6727 117.479 60.893 86.2633 82.7506C55.0474 104.608 25.8898 116.826 21.1382 110.04C18.3663 106.082 24.5118 96.5306 36.3105 84.9201C35.3085 86.6861 35.0286 88.0344 35.594 88.8418C38.1282 92.4611 56.6862 83.8391 77.0444 69.5841Z" fill="#B6AD93"/>
<defs>
<filter id="filter0_f_226_54" x="14.7129" y="22.208" width="127.489" height="94.9424" filterUnits="userSpaceOnUse" color-interpolation-filters="sRGB">
<feFlood flood-opacity="0" result="BackgroundImageFix"/>
<feBlend mode="normal" in="SourceGraphic" in2="BackgroundImageFix" result="shape"/>
<feGaussianBlur stdDeviation="2" result="effect1_foregroundBlur_226_54"/>
</filter>
<filter id="filter1_f_226_54" x="13.2041" y="23.208" width="127.489" height="94.9424" filterUnits="userSpaceOnUse" color-interpolation-filters="sRGB">
<feFlood flood-opacity="0" result="BackgroundImageFix"/>
<feBlend mode="normal" in="SourceGraphic" in2="BackgroundImageFix" result="shape"/>
<feGaussianBlur stdDeviation="2" result="effect1_foregroundBlur_226_54"/>
</filter>
</defs>
</svg>
