<svg width="512" height="512" viewBox="0 0 512 512" fill="none" xmlns="http://www.w3.org/2000/svg">
<path d="M116.6 10H395.4C453.825 10 502 58.175 502 116.6V395.4C502 453.825 453.825 502 395.4 502H116.6C58.175 502 10 453.825 10 395.4V116.6C10 58.175 58.175 10 116.6 10Z" fill="#FFD02F"/>
<path fill-rule="evenodd" clip-rule="evenodd" d="M351.325 71.5H297L342.1 150.425L243.7 71.5H189.375L238.575 167.85L136.075 71.5H81.75L136.075 194.5L81.75 440.5H136.075L239.6 177.075L189.375 440.5H243.7L343.125 159.65L298.025 440.5H352.35L450.75 133L351.325 71.5Z" fill="#050038"/>
</svg>
