<svg width="156" height="156" viewBox="0 0 156 156" fill="none" xmlns="http://www.w3.org/2000/svg">
<path fill-rule="evenodd" clip-rule="evenodd" d="M50.1385 48.4995C49.2973 48.4995 47.9469 49.3985 47.4109 50.0877L18.8073 92.7797C18.3889 93.3176 18.16 93.9937 18.16 94.6916L18.1582 130C18.1582 131.656 19.4216 133 20.98 133H134.792C136.351 133 137.614 131.656 137.614 130L137.616 94.6916C137.616 93.9937 137.387 93.3176 136.969 92.7797L108.361 50.0877C107.825 49.3985 106.475 48.4995 105.634 48.4995C105.634 48.4995 100.931 47.9995 77.8861 47.9995C54.8415 47.9995 50.1385 48.4995 50.1385 48.4995ZM87.1259 80.23L77.5333 70L67.9407 80.23L50.9333 86L67.9407 91.77L77.5333 102L87.1259 91.77L104.133 86L87.1259 80.23Z" fill="#58481D"/>
<g filter="url(#filter0_f_275_175)">
<path fill-rule="evenodd" clip-rule="evenodd" d="M47.4043 50.0882C47.9404 49.399 49.2909 48.5 50.1321 48.5C50.1321 48.5 54.8355 48 77.8818 48C100.928 48 105.632 48.5 105.632 48.5C106.473 48.5 107.823 49.399 108.359 50.0882L136.969 92.7802C137.387 93.3181 137.616 93.9941 137.616 94.6921L137.614 130C137.614 131.657 136.351 133 134.792 133H20.9714C19.4129 133 18.1494 131.657 18.1494 130L18.1513 94.6921C18.1513 93.9941 18.3801 93.3181 18.7985 92.7802L47.4043 50.0882ZM56.1072 61C55.2687 61 54.4735 61.3965 53.9374 62.0819L31.9727 96.082C31.5513 96.6207 31.3206 97.2993 31.3206 98L31.3188 118C31.3188 119.657 32.5822 121 34.1408 121H121.623C123.181 121 124.445 119.657 124.445 118L124.447 98C124.447 97.2993 124.216 96.6207 123.795 96.082L101.826 62.0819C101.29 61.3965 100.495 61 99.6564 61H56.1072Z" fill="#9E9E9E"/>
</g>
<path fill-rule="evenodd" clip-rule="evenodd" d="M47.4043 50.0882C47.9404 49.399 49.2909 48.5 50.1321 48.5C50.1321 48.5 54.8355 48 77.8818 48C100.928 48 105.632 48.5 105.632 48.5C106.473 48.5 107.823 49.399 108.359 50.0882L136.969 92.7802C137.387 93.3181 137.616 93.9941 137.616 94.6921L137.614 130C137.614 131.657 136.351 133 134.792 133H20.9714C19.4129 133 18.1494 131.657 18.1494 130L18.1513 94.6921C18.1513 93.9941 18.3801 93.3181 18.7985 92.7802L47.4043 50.0882ZM56.1072 61C55.2687 61 54.4735 61.3965 53.9374 62.0819L31.9727 96.082C31.5513 96.6207 31.3206 97.2993 31.3206 98L31.3188 118C31.3188 119.657 32.5822 121 34.1408 121H121.623C123.181 121 124.445 119.657 124.445 118L124.447 98C124.447 97.2993 124.216 96.6207 123.795 96.082L101.826 62.0819C101.29 61.3965 100.495 61 99.6564 61H56.1072Z" fill="#CBC2AA"/>
<g filter="url(#filter1_f_275_175)">
<path d="M78.0005 44.439C90.1243 44.439 102.273 45.0926 114.309 46.6829C115.244 46.8063 115.757 47.0909 116.414 47.8049L118.519 50.0488C119.455 51.065 119.571 51.9956 119.571 53.4146V55.6585C119.595 56.6446 119.775 57.4951 120.624 57.9024L134.544 67.7794C135.748 68.3568 136.915 67.7114 137.972 66.8724L143.115 63.2445C144.343 62.2121 145.356 61.2683 145.882 59.0244L147.987 44.439C148.13 42.1951 147.083 39.9512 145.882 38.8293L131.704 25.628C130.911 25.1872 129.885 24.8097 128.994 24.7046C126.351 24.393 106.051 22 78.0005 22C49.95 22 29.6503 24.393 27.0076 24.7046C26.1158 24.8097 25.09 25.1872 24.297 25.628L10.1191 38.8293C8.91162 39.9512 7.86505 42.1951 8.01422 44.439L10.1191 59.0244C10.6453 61.2683 11.6584 62.2121 12.886 63.2445L18.0287 66.8724C19.0857 67.7114 20.2534 68.3568 21.4567 67.7794L35.3773 57.9024C36.2261 57.4951 36.4062 56.6446 36.4297 55.6585V53.4146C36.4297 51.9956 36.5464 51.065 37.4821 50.0488L39.587 47.8049C40.2444 47.0909 40.7572 46.8063 41.6918 46.6829C44.5241 46.3091 58.371 44.439 78.0005 44.439Z" fill="#9E9E9E"/>
</g>
<path d="M78.0005 44.439C90.1243 44.439 102.273 45.0926 114.309 46.6829C115.244 46.8063 115.757 47.0909 116.414 47.8049L118.519 50.0488C119.455 51.065 119.571 51.9956 119.571 53.4146V55.6585C119.595 56.6446 119.775 57.4951 120.624 57.9024L134.544 67.7794C135.748 68.3568 136.915 67.7114 137.972 66.8724L143.115 63.2445C144.343 62.2121 145.356 61.2683 145.882 59.0244L147.987 44.439C148.13 42.1951 147.083 39.9512 145.882 38.8293L131.704 25.628C130.911 25.1872 129.885 24.8097 128.994 24.7046C126.351 24.393 106.051 22 78.0005 22C49.95 22 29.6503 24.393 27.0076 24.7046C26.1158 24.8097 25.09 25.1872 24.297 25.628L10.1191 38.8293C8.91162 39.9512 7.86505 42.1951 8.01422 44.439L10.1191 59.0244C10.6453 61.2683 11.6584 62.2121 12.886 63.2445L18.0287 66.8724C19.0857 67.7114 20.2534 68.3568 21.4567 67.7794L35.3773 57.9024C36.2261 57.4951 36.4062 56.6446 36.4297 55.6585V53.4146C36.4297 51.9956 36.5464 51.065 37.4821 50.0488L39.587 47.8049C40.2444 47.0909 40.7572 46.8063 41.6918 46.6829C44.5241 46.3091 58.371 44.439 78.0005 44.439Z" fill="#CBC2AA"/>
<g filter="url(#filter2_f_275_175)">
<path fill-rule="evenodd" clip-rule="evenodd" d="M77.5335 104C94.2862 104 107.867 95.9411 107.867 86C107.867 76.0589 94.2862 68 77.5335 68C60.7809 68 47.2002 76.0589 47.2002 86C47.2002 95.9411 60.7809 104 77.5335 104ZM87.1261 80.23L77.5335 70L67.9409 80.23L50.9335 86L67.9409 91.77L77.5335 102L87.1261 91.77L104.134 86L87.1261 80.23Z" fill="#9E9E9E"/>
</g>
<path fill-rule="evenodd" clip-rule="evenodd" d="M77.5335 104C94.2862 104 107.867 95.9411 107.867 86C107.867 76.0589 94.2862 68 77.5335 68C60.7809 68 47.2002 76.0589 47.2002 86C47.2002 95.9411 60.7809 104 77.5335 104ZM87.1261 80.23L77.5335 70L67.9409 80.23L50.9335 86L67.9409 91.77L77.5335 102L87.1261 91.77L104.134 86L87.1261 80.23Z" fill="#CBC2AA"/>
<defs>
<filter id="filter0_f_275_175" x="10.1494" y="40" width="135.467" height="101" filterUnits="userSpaceOnUse" color-interpolation-filters="sRGB">
<feFlood flood-opacity="0" result="BackgroundImageFix"/>
<feBlend mode="normal" in="SourceGraphic" in2="BackgroundImageFix" result="shape"/>
<feGaussianBlur stdDeviation="4" result="effect1_foregroundBlur_275_175"/>
</filter>
<filter id="filter1_f_275_175" x="0" y="14" width="156" height="62" filterUnits="userSpaceOnUse" color-interpolation-filters="sRGB">
<feFlood flood-opacity="0" result="BackgroundImageFix"/>
<feBlend mode="normal" in="SourceGraphic" in2="BackgroundImageFix" result="shape"/>
<feGaussianBlur stdDeviation="4" result="effect1_foregroundBlur_275_175"/>
</filter>
<filter id="filter2_f_275_175" x="43.2002" y="64" width="68.667" height="44" filterUnits="userSpaceOnUse" color-interpolation-filters="sRGB">
<feFlood flood-opacity="0" result="BackgroundImageFix"/>
<feBlend mode="normal" in="SourceGraphic" in2="BackgroundImageFix" result="shape"/>
<feGaussianBlur stdDeviation="2" result="effect1_foregroundBlur_275_175"/>
</filter>
</defs>
</svg>
