<svg width="156" height="156" viewBox="0 0 156 156" fill="none" xmlns="http://www.w3.org/2000/svg">
<path fill-rule="evenodd" clip-rule="evenodd" d="M50.1385 51.4995C49.2973 51.4995 47.9469 52.3985 47.4109 53.0877L18.8073 95.7797C18.3889 96.3176 18.16 96.9937 18.16 97.6916L18.1582 133C18.1582 134.656 19.4216 136 20.98 136H134.792C136.351 136 137.614 134.656 137.614 133L137.616 97.6916C137.616 96.9937 137.387 96.3176 136.969 95.7797L108.361 53.0877C107.825 52.3985 106.475 51.4995 105.634 51.4995C105.634 51.4995 100.931 50.9995 77.8861 50.9995C54.8415 50.9995 50.1385 51.4995 50.1385 51.4995ZM87.1259 83.23L77.5333 73L67.9407 83.23L50.9333 89L67.9407 94.77L77.5333 105L87.1259 94.77L104.133 89L87.1259 83.23Z" fill="#58481D"/>
<g filter="url(#filter0_f_275_175)">
<path fill-rule="evenodd" clip-rule="evenodd" d="M47.4043 53.0882C47.9404 52.399 49.2909 51.5 50.1321 51.5C50.1321 51.5 54.8355 51 77.8818 51C100.928 51 105.632 51.5 105.632 51.5C106.473 51.5 107.823 52.399 108.359 53.0882L136.969 95.7802C137.387 96.3181 137.616 96.9941 137.616 97.6921L137.614 133C137.614 134.657 136.351 136 134.792 136H20.9714C19.4129 136 18.1494 134.657 18.1494 133L18.1513 97.6921C18.1513 96.9941 18.3801 96.3181 18.7985 95.7802L47.4043 53.0882ZM56.1072 64C55.2687 64 54.4735 64.3965 53.9374 65.0819L31.9727 99.082C31.5513 99.6207 31.3206 100.299 31.3206 101L31.3188 121C31.3188 122.657 32.5822 124 34.1408 124H121.623C123.181 124 124.445 122.657 124.445 121L124.447 101C124.447 100.299 124.216 99.6207 123.795 99.082L101.826 65.0819C101.29 64.3965 100.495 64 99.6564 64H56.1072Z" fill="#9E9E9E"/>
</g>
<path fill-rule="evenodd" clip-rule="evenodd" d="M47.4043 53.0882C47.9404 52.399 49.2909 51.5 50.1321 51.5C50.1321 51.5 54.8355 51 77.8818 51C100.928 51 105.632 51.5 105.632 51.5C106.473 51.5 107.823 52.399 108.359 53.0882L136.969 95.7802C137.387 96.3181 137.616 96.9941 137.616 97.6921L137.614 133C137.614 134.657 136.351 136 134.792 136H20.9714C19.4129 136 18.1494 134.657 18.1494 133L18.1513 97.6921C18.1513 96.9941 18.3801 96.3181 18.7985 95.7802L47.4043 53.0882ZM56.1072 64C55.2687 64 54.4735 64.3965 53.9374 65.0819L31.9727 99.082C31.5513 99.6207 31.3206 100.299 31.3206 101L31.3188 121C31.3188 122.657 32.5822 124 34.1408 124H121.623C123.181 124 124.445 122.657 124.445 121L124.447 101C124.447 100.299 124.216 99.6207 123.795 99.082L101.826 65.0819C101.29 64.3965 100.495 64 99.6564 64H56.1072Z" fill="#CBC2AA"/>
<g filter="url(#filter1_f_275_175)">
<path d="M78.0005 42.439C90.1243 42.439 102.273 43.0926 114.309 44.6829C115.244 44.8063 115.757 45.0909 116.414 45.8049L118.519 48.0488C119.455 49.065 119.571 49.9956 119.571 51.4146V53.6585C119.595 54.6446 119.775 55.4951 120.624 55.9024L134.544 65.7794C135.748 66.3568 136.915 65.7114 137.972 64.8724L143.115 61.2445C144.343 60.2121 145.356 59.2683 145.882 57.0244L147.987 42.439C148.13 40.1951 147.083 37.9512 145.882 36.8293L131.704 23.628C130.911 23.1872 129.885 22.8097 128.994 22.7046C126.351 22.393 106.051 20 78.0005 20C49.95 20 29.6503 22.393 27.0076 22.7046C26.1158 22.8097 25.09 23.1872 24.297 23.628L10.1191 36.8293C8.91162 37.9512 7.86505 40.1951 8.01422 42.439L10.1191 57.0244C10.6453 59.2683 11.6584 60.2121 12.886 61.2445L18.0287 64.8724C19.0857 65.7114 20.2534 66.3568 21.4567 65.7794L35.3773 55.9024C36.2261 55.4951 36.4062 54.6446 36.4297 53.6585V51.4146C36.4297 49.9956 36.5464 49.065 37.4821 48.0488L39.587 45.8049C40.2444 45.0909 40.7572 44.8063 41.6918 44.6829C44.5241 44.3091 58.371 42.439 78.0005 42.439Z" fill="#9E9E9E"/>
</g>
<path d="M78.0005 42.439C90.1243 42.439 102.273 43.0926 114.309 44.6829C115.244 44.8063 115.757 45.0909 116.414 45.8049L118.519 48.0488C119.455 49.065 119.571 49.9956 119.571 51.4146V53.6585C119.595 54.6446 119.775 55.4951 120.624 55.9024L134.544 65.7794C135.748 66.3568 136.915 65.7114 137.972 64.8724L143.115 61.2445C144.343 60.2121 145.356 59.2683 145.882 57.0244L147.987 42.439C148.13 40.1951 147.083 37.9512 145.882 36.8293L131.704 23.628C130.911 23.1872 129.885 22.8097 128.994 22.7046C126.351 22.393 106.051 20 78.0005 20C49.95 20 29.6503 22.393 27.0076 22.7046C26.1158 22.8097 25.09 23.1872 24.297 23.628L10.1191 36.8293C8.91162 37.9512 7.86505 40.1951 8.01422 42.439L10.1191 57.0244C10.6453 59.2683 11.6584 60.2121 12.886 61.2445L18.0287 64.8724C19.0857 65.7114 20.2534 66.3568 21.4567 65.7794L35.3773 55.9024C36.2261 55.4951 36.4062 54.6446 36.4297 53.6585V51.4146C36.4297 49.9956 36.5464 49.065 37.4821 48.0488L39.587 45.8049C40.2444 45.0909 40.7572 44.8063 41.6918 44.6829C44.5241 44.3091 58.371 42.439 78.0005 42.439Z" fill="#CBC2AA"/>
<g filter="url(#filter2_f_275_175)">
<path fill-rule="evenodd" clip-rule="evenodd" d="M77.5335 107C94.2862 107 107.867 98.9411 107.867 89C107.867 79.0589 94.2862 71 77.5335 71C60.7809 71 47.2002 79.0589 47.2002 89C47.2002 98.9411 60.7809 107 77.5335 107ZM87.1261 83.23L77.5335 73L67.9409 83.23L50.9335 89L67.9409 94.77L77.5335 105L87.1261 94.77L104.134 89L87.1261 83.23Z" fill="#9E9E9E"/>
</g>
<path fill-rule="evenodd" clip-rule="evenodd" d="M77.5335 107C94.2862 107 107.867 98.9411 107.867 89C107.867 79.0589 94.2862 71 77.5335 71C60.7809 71 47.2002 79.0589 47.2002 89C47.2002 98.9411 60.7809 107 77.5335 107ZM87.1261 83.23L77.5335 73L67.9409 83.23L50.9335 89L67.9409 94.77L77.5335 105L87.1261 94.77L104.134 89L87.1261 83.23Z" fill="#CBC2AA"/>
<defs>
<filter id="filter0_f_275_175" x="10.1494" y="43" width="135.467" height="101" filterUnits="userSpaceOnUse" color-interpolation-filters="sRGB">
<feFlood flood-opacity="0" result="BackgroundImageFix"/>
<feBlend mode="normal" in="SourceGraphic" in2="BackgroundImageFix" result="shape"/>
<feGaussianBlur stdDeviation="4" result="effect1_foregroundBlur_275_175"/>
</filter>
<filter id="filter1_f_275_175" x="0" y="12" width="156" height="62" filterUnits="userSpaceOnUse" color-interpolation-filters="sRGB">
<feFlood flood-opacity="0" result="BackgroundImageFix"/>
<feBlend mode="normal" in="SourceGraphic" in2="BackgroundImageFix" result="shape"/>
<feGaussianBlur stdDeviation="4" result="effect1_foregroundBlur_275_175"/>
</filter>
<filter id="filter2_f_275_175" x="43.2002" y="67" width="68.667" height="44" filterUnits="userSpaceOnUse" color-interpolation-filters="sRGB">
<feFlood flood-opacity="0" result="BackgroundImageFix"/>
<feBlend mode="normal" in="SourceGraphic" in2="BackgroundImageFix" result="shape"/>
<feGaussianBlur stdDeviation="2" result="effect1_foregroundBlur_275_175"/>
</filter>
</defs>
</svg>
