<svg width="1480" height="423" viewBox="0 0 1480 423" fill="none" xmlns="http://www.w3.org/2000/svg">
<path d="M0.237305 -0.00012207H1479.74V423C1464.74 423 1449.89 419.925 1436.13 413.965L1326.72 366.596C1295.12 352.913 1259.89 350.001 1226.47 358.309L1144.61 378.657C1116.11 385.743 1086.19 384.691 1058.25 375.619L997.653 355.942C976.458 349.059 954.04 346.768 931.891 349.219L855.128 357.716C841.433 359.232 827.997 362.544 815.166 367.567L761.565 388.551C732.512 399.925 700.73 402.385 670.273 395.617L621.616 384.804C607.274 381.617 592.555 380.459 577.891 381.363L470.002 388.019C454.091 389.001 438.422 392.4 423.534 398.1L410.389 403.132C376.814 415.987 339.844 416.929 305.659 405.801L244.325 385.836C214.616 376.166 182.697 375.579 152.653 384.151L32.1307 418.539C21.7581 421.498 11.0239 423 0.237305 423C0.239326 423 0.239784 -0.00012207 0.237305 -0.00012207Z" fill="#D9D9D9"/>
</svg>
