<svg width="1920" height="8471" viewBox="0 0 1920 8471" fill="none" xmlns="http://www.w3.org/2000/svg">
<path d="M1387.5 699.5C1657.5 479 1887.5 857 1682 1051C1476.5 1245 959.001 667 959.001 1051C959.001 1498.5 959.001 2304.77 959.001 2907C959.001 3131.5 1049.5 3106.41 1382.5 3350.69C1521.64 3452.76 1502.07 3631.1 1416.5 3713.5C1330.93 3795.9 1153.44 3844 959.001 3844M959.001 6600.5C959.001 6887.5 1323.5 6947.5 1552.5 6779C1781.5 6610.5 1748 6340.5 1748 6263.5C1748 6186.5 1769.5 5914.5 1546 5774C1322.5 5633.5 1102.5 5737.5 959.001 5768C815.501 5798.5 596 5896.62 350.5 5830.5C105 5764.38 104 5323 350.5 5254C597 5185 817.501 5368 959.001 5445C1100.5 5522 1373.5 5663 1591.5 5503.5C1809.5 5344 1819 5025 1591.5 4821.5C1364 4618 1100.6 4788.5 959.001 4864C817.399 4939.5 573 5043.5 350.5 4905C128 4766.5 152.5 4347 350.5 4223.5C548.5 4100 770.001 4190.38 959.001 4283.69C1148 4377 1285.5 4436 1439 4350C1592.5 4264 1594 4047.5 1439 3948.5C1284 3849.5 1076.5 3928.5 959.001 3958.5C866.885 3982.02 586.5 4062.24 467.5 3997.5C348.5 3932.76 352 3765.4 467.5 3713.5C583 3661.6 701.588 3844 959.001 3844M959.001 3844C1307.5 3844 1311 3298.5 959.001 3298.5C607.001 3298.5 610.501 3844 959.001 3844Z" stroke="black" stroke-width="24" stroke-linecap="round" stroke-dasharray="48 48"/>
</svg>
