<svg width="390" height="8497" viewBox="0 0 390 8497" fill="none" xmlns="http://www.w3.org/2000/svg">
<g clip-path="url(#clip0_296_13)">
<path d="M206.001 1464.5C206.001 1457.87 200.628 1452.5 194.001 1452.5C187.374 1452.5 182.001 1457.87 182.001 1464.5H206.001ZM188.001 5667.5L193.647 5678.09L188.001 5667.5ZM194.001 4466L191.032 4454.37L194.001 4466ZM823.5 5625L831.5 5616.06L823.5 5625ZM823.5 6371L816.414 6361.32L823.5 6371ZM-417.5 6878L-414.379 6866.41L-417.5 6878ZM-300.5 4221L-305.418 4210.05L-300.5 4221ZM614.5 3858.19L621.556 3848.48L614.5 3858.19ZM648.5 4221L640.176 4212.36L648.5 4221ZM218.553 4370.71C225.179 4370.55 230.422 4365.05 230.264 4358.42C230.106 4351.8 224.606 4346.56 217.981 4346.71L218.553 4370.71ZM265.84 4344.42C259.23 4344.9 254.259 4350.64 254.737 4357.25C255.214 4363.86 260.96 4368.83 267.57 4368.36L265.84 4344.42ZM316.45 4363.61C323.029 4362.8 327.708 4356.81 326.902 4350.24C326.095 4343.66 320.109 4338.98 313.531 4339.78L316.45 4363.61ZM360.894 4332.73C354.367 4333.88 350.007 4340.1 351.156 4346.63C352.304 4353.16 358.527 4357.52 365.054 4356.37L360.894 4332.73ZM413.235 4346.51C419.687 4345 423.692 4338.54 422.18 4332.09C420.667 4325.64 414.211 4321.63 407.758 4323.14L413.235 4346.51ZM453.909 4310.84C447.562 4312.75 443.963 4319.44 445.87 4325.79C447.777 4332.13 454.469 4335.73 460.816 4333.83L453.909 4310.84ZM507.543 4318.02C513.741 4315.68 516.863 4308.75 514.516 4302.55C512.169 4296.35 505.242 4293.23 499.045 4295.58L507.543 4318.02ZM542.774 4276.99C536.791 4279.84 534.253 4287 537.104 4292.98C539.955 4298.96 547.117 4301.5 553.1 4298.65L542.774 4276.99ZM596.858 4275.09C602.518 4271.64 604.311 4264.26 600.863 4258.6C597.415 4252.94 590.032 4251.14 584.372 4254.59L596.858 4275.09ZM622.766 4227.71C617.619 4231.88 616.831 4239.44 621.005 4244.59C625.18 4249.74 632.737 4250.52 637.884 4246.35L622.766 4227.71ZM675.264 4209.31C679.384 4204.11 678.516 4196.57 673.325 4192.45C668.134 4188.33 660.586 4189.19 656.466 4194.38L675.264 4209.31ZM682.035 4152.76C679.231 4158.76 681.826 4165.9 687.831 4168.71C693.836 4171.51 700.977 4168.92 703.781 4162.91L682.035 4152.76ZM721.364 4111.63C722.846 4105.17 718.812 4098.73 712.352 4097.25C705.893 4095.76 699.455 4099.8 697.972 4106.26L721.364 4111.63ZM703.973 4057.43C703.85 4064.06 709.123 4069.53 715.749 4069.65C722.375 4069.77 727.846 4064.5 727.969 4057.87L703.973 4057.43ZM723.217 4003.85C721.93 3997.35 715.616 3993.12 709.115 3994.41C702.614 3995.7 698.387 4002.01 699.674 4008.51L723.217 4003.85ZM684.907 3961.79C687.596 3967.85 694.687 3970.58 700.744 3967.89C706.801 3965.2 709.531 3958.11 706.842 3952.05L684.907 3961.79ZM679.402 3905.17C675.443 3899.85 667.925 3898.75 662.61 3902.71C657.295 3906.67 656.195 3914.19 660.154 3919.5L679.402 3905.17ZM626.794 3883.39C631.763 3887.78 639.346 3887.31 643.732 3882.34C648.118 3877.37 647.645 3869.78 642.676 3865.4L626.794 3883.39ZM602.885 3835.02C597.495 3831.16 590 3832.4 586.143 3837.79C582.287 3843.18 583.53 3850.68 588.92 3854.54L602.885 3835.02ZM552.09 3828.61C557.538 3832.38 565.014 3831.02 568.787 3825.57C572.56 3820.12 571.202 3812.65 565.754 3808.88L552.09 3828.61ZM528.11 3783.24C522.603 3779.55 515.15 3781.03 511.463 3786.53C507.775 3792.04 509.25 3799.5 514.757 3803.18L528.11 3783.24ZM476.986 3778.32C482.549 3781.92 489.979 3780.33 493.58 3774.76C497.182 3769.2 495.592 3761.77 490.028 3758.17L476.986 3778.32ZM451.688 3733.74C446.074 3730.22 438.667 3731.91 435.144 3737.52C431.622 3743.14 433.316 3750.54 438.93 3754.07L451.688 3733.74ZM400.613 3730.32C406.264 3733.79 413.652 3732.01 417.116 3726.36C420.579 3720.71 418.806 3713.33 413.156 3709.86L400.613 3730.32ZM374.413 3686.24C368.753 3682.79 361.37 3684.58 357.922 3690.24C354.474 3695.9 356.267 3703.29 361.927 3706.73L374.413 3686.24ZM323.081 3682.79C328.69 3686.32 336.099 3684.63 339.628 3679.02C343.157 3673.42 341.471 3666.01 335.862 3662.48L323.081 3682.79ZM298.585 3637.9C293.164 3634.09 285.679 3635.39 281.866 3640.81C278.052 3646.23 279.356 3653.72 284.776 3657.53L298.585 3637.9ZM248.036 3628.49C252.924 3632.97 260.514 3632.63 264.99 3627.74C269.466 3622.86 269.132 3615.27 264.244 3610.79L248.036 3628.49ZM236.43 3578.89C232.767 3573.37 225.32 3571.86 219.797 3575.53C214.274 3579.19 212.767 3586.64 216.43 3592.16L236.43 3578.89ZM195.635 3548.39C197.655 3554.7 204.41 3558.18 210.722 3556.16C217.034 3554.14 220.513 3547.39 218.492 3541.08L195.635 3548.39ZM209.551 3498.98C208.71 3492.4 202.698 3487.76 196.124 3488.6C189.551 3489.44 184.904 3495.45 185.746 3502.02L209.551 3498.98ZM182.328 3455.61C182.526 3462.23 188.057 3467.44 194.681 3467.24C201.306 3467.05 206.515 3461.52 206.318 3454.89L182.328 3455.61ZM206.001 3409.29C206.001 3402.66 200.629 3397.29 194.001 3397.29C187.374 3397.29 182.001 3402.66 182.001 3409.29L206.001 3409.29ZM182.001 3362.36C182.001 3368.98 187.374 3374.36 194.001 3374.36C200.629 3374.36 206.001 3368.98 206.001 3362.36L182.001 3362.36ZM206.001 3315.37C206.001 3308.74 200.629 3303.37 194.001 3303.37C187.374 3303.37 182.001 3308.74 182.001 3315.37L206.001 3315.37ZM182.001 3268.62C182.001 3275.25 187.374 3280.62 194.001 3280.62C200.629 3280.62 206.001 3275.25 206.001 3268.62L182.001 3268.62ZM206.001 3221.81C206.001 3215.18 200.629 3209.81 194.001 3209.81C187.374 3209.81 182.001 3215.18 182.001 3221.81L206.001 3221.81ZM182.001 3174.91C182.001 3181.54 187.374 3186.91 194.001 3186.91C200.629 3186.91 206.001 3181.54 206.001 3174.91L182.001 3174.91ZM206.001 3127.95C206.001 3121.32 200.629 3115.95 194.001 3115.95C187.374 3115.95 182.001 3121.32 182.001 3127.95L206.001 3127.95ZM182.001 3081.17C182.001 3087.79 187.374 3093.17 194.001 3093.17C200.629 3093.17 206.001 3087.79 206.001 3081.17L182.001 3081.17ZM206.001 3034.33C206.001 3027.7 200.629 3022.33 194.001 3022.33C187.374 3022.33 182.001 3027.7 182.001 3034.33L206.001 3034.33ZM182.001 2987.42C182.001 2994.05 187.374 2999.42 194.001 2999.42C200.629 2999.42 206.001 2994.05 206.001 2987.42L182.001 2987.42ZM206.001 2940.53C206.001 2933.91 200.629 2928.53 194.001 2928.53C187.374 2928.53 182.001 2933.91 182.001 2940.53L206.001 2940.53ZM182.001 2893.72C182.001 2900.34 187.374 2905.72 194.001 2905.72C200.629 2905.72 206.001 2900.34 206.001 2893.72L182.001 2893.72ZM206.001 2846.84C206.001 2840.21 200.629 2834.84 194.001 2834.84C187.374 2834.84 182.001 2840.21 182.001 2846.84L206.001 2846.84ZM182.001 2799.93C182.001 2806.56 187.374 2811.93 194.001 2811.93C200.629 2811.93 206.001 2806.56 206.001 2799.93L182.001 2799.93ZM206.001 2753.11C206.001 2746.48 200.629 2741.11 194.001 2741.11C187.374 2741.11 182.001 2746.48 182.001 2753.11L206.001 2753.11ZM182.001 2706.24C182.001 2712.86 187.374 2718.24 194.001 2718.24C200.629 2718.24 206.001 2712.86 206.001 2706.24L182.001 2706.24ZM206.001 2659.36C206.001 2652.73 200.629 2647.36 194.001 2647.36C187.374 2647.36 182.001 2652.73 182.001 2659.36L206.001 2659.36ZM182.001 2612.5C182.001 2619.13 187.374 2624.5 194.001 2624.5C200.629 2624.5 206.001 2619.13 206.001 2612.5L182.001 2612.5ZM206.001 2565.63C206.001 2559 200.629 2553.63 194.001 2553.63C187.374 2553.63 182.001 2559 182.001 2565.63L206.001 2565.63ZM182.001 2518.77C182.001 2525.4 187.374 2530.77 194.001 2530.77C200.629 2530.77 206.001 2525.4 206.001 2518.77L182.001 2518.77ZM206.001 2471.91C206.001 2465.28 200.629 2459.91 194.001 2459.91C187.374 2459.91 182.001 2465.28 182.001 2471.91L206.001 2471.91ZM182.001 2425.02C182.001 2431.65 187.374 2437.02 194.001 2437.02C200.629 2437.02 206.001 2431.65 206.001 2425.02L182.001 2425.02ZM206.001 2378.18C206.001 2371.55 200.629 2366.18 194.001 2366.18C187.374 2366.18 182.001 2371.55 182.001 2378.18L206.001 2378.18ZM182.001 2331.33C182.001 2337.95 187.374 2343.33 194.001 2343.33C200.629 2343.33 206.001 2337.95 206.001 2331.33L182.001 2331.33ZM206.001 2284.42C206.001 2277.79 200.629 2272.42 194.001 2272.42C187.374 2272.42 182.001 2277.79 182.001 2284.42L206.001 2284.42ZM182.001 2237.56C182.001 2244.19 187.374 2249.56 194.001 2249.56C200.629 2249.56 206.001 2244.19 206.001 2237.56L182.001 2237.56ZM206.001 2190.78C206.001 2184.15 200.629 2178.78 194.001 2178.78C187.374 2178.78 182.001 2184.15 182.001 2190.78L206.001 2190.78ZM182.001 2143.83C182.001 2150.46 187.374 2155.83 194.001 2155.83C200.629 2155.83 206.001 2150.46 206.001 2143.83L182.001 2143.83ZM206.001 2096.94C206.001 2090.31 200.629 2084.94 194.001 2084.94C187.374 2084.94 182.001 2090.31 182.001 2096.94L206.001 2096.94ZM182.001 2050.13C182.001 2056.75 187.374 2062.13 194.001 2062.13C200.629 2062.13 206.001 2056.75 206.001 2050.13L182.001 2050.13ZM206.001 2003.31C206.001 1996.68 200.629 1991.31 194.001 1991.31C187.374 1991.31 182.001 1996.68 182.001 2003.31L206.001 2003.31ZM182.001 1956.35C182.001 1962.97 187.374 1968.35 194.001 1968.35C200.629 1968.35 206.001 1962.97 206.001 1956.35L182.001 1956.35ZM206.001 1909.45C206.001 1902.83 200.629 1897.45 194.001 1897.45C187.374 1897.45 182.001 1902.83 182.001 1909.45L206.001 1909.45ZM182.001 1862.64C182.001 1869.27 187.374 1874.64 194.001 1874.64C200.629 1874.64 206.001 1869.27 206.001 1862.64L182.001 1862.64ZM206.001 1815.9C206.001 1809.28 200.628 1803.9 194.001 1803.9C187.374 1803.9 182.001 1809.28 182.001 1815.9L206.001 1815.9ZM182.001 1768.96C182.001 1775.58 187.374 1780.96 194.001 1780.96C200.628 1780.96 206.001 1775.58 206.001 1768.96L182.001 1768.96ZM206.001 1722.01C206.001 1715.38 200.628 1710.01 194.001 1710.01C187.374 1710.01 182.001 1715.38 182.001 1722.01L206.001 1722.01ZM182.001 1675.1C182.001 1681.73 187.374 1687.1 194.001 1687.1C200.628 1687.1 206.001 1681.73 206.001 1675.1L182.001 1675.1ZM206.001 1628.22C206.001 1621.59 200.628 1616.22 194.001 1616.22C187.374 1616.22 182.001 1621.59 182.001 1628.22L206.001 1628.22ZM182.001 1581.35C182.001 1587.98 187.374 1593.35 194.001 1593.35C200.628 1593.35 206.001 1587.98 206.001 1581.35L182.001 1581.35ZM206.001 1534.48C206.001 1527.85 200.628 1522.48 194.001 1522.48C187.374 1522.48 182.001 1527.85 182.001 1534.48L206.001 1534.48ZM182.001 1487.59C182.001 1494.22 187.374 1499.59 194.001 1499.59C200.628 1499.59 206.001 1494.22 206.001 1487.59L182.001 1487.59ZM179.911 7132.89C180.403 7139.5 186.159 7144.46 192.768 7143.97C199.377 7143.48 204.336 7137.72 203.845 7131.11L179.911 7132.89ZM210.98 7176.44C209.388 7170.01 202.882 7166.08 196.449 7167.67C190.015 7169.27 186.09 7175.77 187.682 7182.21L210.98 7176.44ZM204.238 7229.52C207.022 7235.54 214.154 7238.16 220.169 7235.37C226.183 7232.59 228.802 7225.46 226.018 7219.44L204.238 7229.52ZM249.159 7258.55C245.223 7253.22 237.71 7252.08 232.378 7256.02C227.045 7259.96 225.912 7267.47 229.848 7272.8L249.159 7258.55ZM263.553 7310.04C268.46 7314.5 276.049 7314.13 280.504 7309.23C284.959 7304.32 284.594 7296.73 279.687 7292.28L263.553 7310.04ZM316.205 7319.74C310.576 7316.24 303.177 7317.97 299.679 7323.6C296.181 7329.23 297.909 7336.63 303.538 7340.13L316.205 7319.74ZM347.857 7362.87C353.972 7365.43 361 7362.54 363.555 7356.43C366.11 7350.31 363.224 7343.28 357.109 7340.73L347.857 7362.87ZM400.933 7355.44C394.52 7353.77 387.965 7357.61 386.292 7364.02C384.619 7370.44 388.461 7376.99 394.874 7378.66L400.933 7355.44ZM443.382 7388.08C449.953 7388.95 455.979 7384.32 456.843 7377.75C457.706 7371.18 453.079 7365.15 446.508 7364.29L443.382 7388.08ZM492.948 7367.7C486.322 7367.58 480.855 7372.86 480.737 7379.48C480.619 7386.11 485.895 7391.58 492.522 7391.7L492.948 7367.7ZM541.668 7389.97C548.271 7389.39 553.155 7383.57 552.579 7376.97C552.002 7370.37 546.183 7365.48 539.58 7366.06L541.668 7389.97ZM585.861 7359.66C579.35 7360.89 575.07 7367.17 576.303 7373.68C577.536 7380.19 583.815 7384.47 590.326 7383.24L585.861 7359.66ZM638.061 7371.75C644.422 7369.89 648.068 7363.23 646.205 7356.87C644.343 7350.51 637.677 7346.86 631.317 7348.72L638.061 7371.75ZM675.498 7333.41C669.349 7335.89 666.369 7342.88 668.841 7349.02C671.314 7355.17 678.303 7358.15 684.452 7355.68L675.498 7333.41ZM729.063 7335.14C734.938 7332.07 737.214 7324.82 734.147 7318.95C731.08 7313.07 723.831 7310.79 717.956 7313.86L729.063 7335.14ZM758.225 7290.18C752.69 7293.83 751.159 7301.27 754.805 7306.81C758.451 7312.34 765.893 7313.87 771.427 7310.23L758.225 7290.18ZM812.38 7280.56C817.635 7276.52 818.621 7268.98 814.582 7263.73C810.544 7258.47 803.01 7257.49 797.755 7261.53L812.38 7280.56ZM837.353 7229.52C832.313 7233.83 831.716 7241.4 836.019 7246.44C840.322 7251.48 847.897 7252.08 852.937 7247.77L837.353 7229.52ZM891.577 7212.51C896.304 7207.86 896.371 7200.26 891.726 7195.54C887.081 7190.81 879.483 7190.74 874.756 7195.39L891.577 7212.51ZM908.902 7158.56C904.66 7163.65 905.348 7171.22 910.439 7175.46C915.531 7179.7 923.098 7179.01 927.34 7173.92L908.902 7158.56ZM958.451 7130.88C961.9 7125.22 960.109 7117.84 954.45 7114.39C948.792 7110.94 941.408 7112.73 937.958 7118.39L958.451 7130.88ZM959.014 7074.38C956.849 7080.64 960.171 7087.47 966.435 7089.64C972.699 7091.8 979.532 7088.48 981.697 7082.22L959.014 7074.38ZM992.815 7029.11C993.364 7022.5 988.455 7016.7 981.851 7016.15C975.246 7015.6 969.447 7020.51 968.898 7027.12L992.815 7029.11ZM968.822 6977.26C969.133 6983.88 974.752 6988.99 981.372 6988.68C987.992 6988.37 993.107 6982.75 992.796 6976.13L968.822 6977.26ZM992.472 6929.79C992.67 6923.17 987.461 6917.64 980.836 6917.44C974.212 6917.24 968.681 6922.45 968.483 6929.08L992.472 6929.79ZM948.203 6918.79C954.6 6920.53 961.191 6916.75 962.923 6910.35C964.656 6903.95 960.875 6897.36 954.479 6895.63L948.203 6918.79ZM915.308 6882C909.184 6879.46 902.165 6882.37 899.631 6888.5C897.096 6894.62 900.006 6901.64 906.129 6904.17L915.308 6882ZM866.241 6885.79C872.163 6888.76 879.375 6886.37 882.351 6880.45C885.326 6874.53 882.936 6867.32 877.014 6864.34L866.241 6885.79ZM839.408 6844.24C833.634 6840.99 826.316 6843.03 823.062 6848.8C819.808 6854.58 821.851 6861.89 827.625 6865.15L839.408 6844.24ZM790.142 6843.13C795.801 6846.58 803.185 6844.79 806.634 6839.13C810.083 6833.47 808.291 6826.09 802.631 6822.64L790.142 6843.13ZM761.951 6798.02C756.166 6794.79 748.855 6796.86 745.621 6802.64C742.388 6808.43 744.456 6815.74 750.241 6818.97L761.951 6798.02ZM705.686 6797.13C711.788 6799.72 718.831 6796.87 721.418 6790.76C724.004 6784.66 721.154 6777.62 715.052 6775.03L705.686 6797.13ZM665.872 6757.38C659.517 6755.5 652.84 6759.13 650.959 6765.48C649.077 6771.84 652.703 6778.51 659.058 6780.4L665.872 6757.38ZM610.872 6769.04C617.397 6770.2 623.626 6765.85 624.784 6759.32C625.943 6752.79 621.592 6746.57 615.066 6745.41L610.872 6769.04ZM563.267 6739.06C556.656 6738.6 550.924 6743.59 550.464 6750.2C550.004 6756.81 554.991 6762.55 561.603 6763.01L563.267 6739.06ZM511.886 6761.99C518.511 6761.81 523.741 6756.3 523.567 6749.67C523.393 6743.05 517.881 6737.82 511.256 6737.99L511.886 6761.99ZM459.469 6741.55C452.881 6742.27 448.122 6748.2 448.841 6754.78C449.559 6761.37 455.482 6766.13 462.071 6765.41L459.469 6741.55ZM412.486 6772.58C419.012 6771.42 423.362 6765.19 422.203 6758.67C421.043 6752.14 414.814 6747.79 408.289 6748.95L412.486 6772.58ZM357.84 6759.31C351.382 6760.8 347.353 6767.24 348.842 6773.7C350.331 6780.16 356.773 6784.19 363.231 6782.7L357.84 6759.31ZM314.195 6794.93C320.602 6793.23 324.42 6786.66 322.723 6780.26C321.027 6773.85 314.458 6770.03 308.051 6771.73L314.195 6794.93ZM258.818 6785.13C252.427 6786.89 248.67 6793.49 250.426 6799.88C252.182 6806.27 258.786 6810.03 265.177 6808.27L258.818 6785.13ZM215.645 6821.41C222.078 6819.81 226 6813.31 224.405 6806.87C222.811 6800.44 216.303 6796.52 209.87 6798.11L215.645 6821.41ZM160.108 6809.63C153.673 6811.21 149.744 6817.72 151.331 6824.15C152.919 6830.59 159.422 6834.51 165.856 6832.93L160.108 6809.63ZM116.495 6846.06C122.879 6844.28 126.611 6837.66 124.83 6831.28C123.05 6824.89 116.432 6821.16 110.048 6822.94L116.495 6846.06ZM60.5315 6836.89C54.1503 6838.68 50.4279 6845.3 52.2173 6851.68C54.0067 6858.06 60.6304 6861.79 67.0117 6860L60.5315 6836.89ZM17.1807 6873.58C23.5915 6871.9 27.4259 6865.34 25.7452 6858.93C24.0644 6852.52 17.505 6848.69 11.0942 6850.37L17.1807 6873.58ZM-38.4747 6862.61C-44.9338 6864.1 -48.9667 6870.53 -47.4826 6876.99C-45.9984 6883.45 -39.5591 6887.49 -33.1 6886L-38.4747 6862.61ZM-83.9169 6896.62C-77.4017 6895.4 -73.1046 6889.14 -74.319 6882.62C-75.5334 6876.1 -81.7995 6871.81 -88.3147 6873.02L-83.9169 6896.62ZM-138.504 6881.09C-145.073 6881.97 -149.685 6888.01 -148.805 6894.58C-147.925 6901.15 -141.887 6905.76 -135.318 6904.88L-138.504 6881.09ZM-187.155 6910.29C-180.545 6909.81 -175.582 6904.05 -176.07 6897.44C-176.557 6890.83 -182.31 6885.87 -188.919 6886.36L-187.155 6910.29ZM-239.523 6888.42C-246.15 6888.46 -251.487 6893.87 -251.442 6900.5C-251.398 6907.13 -245.99 6912.46 -239.362 6912.42L-239.523 6888.42ZM-291.604 6910.89C-284.991 6911.33 -279.275 6906.32 -278.837 6899.71C-278.399 6893.09 -283.405 6887.38 -290.018 6886.94L-291.604 6910.89ZM-340.233 6881.68C-346.793 6880.73 -352.878 6885.28 -353.824 6891.84C-354.771 6898.4 -350.221 6904.48 -343.661 6905.43L-340.233 6881.68ZM-395.18 6895.89C-388.716 6897.36 -382.289 6893.31 -380.823 6886.85C-379.358 6880.38 -383.409 6873.95 -389.873 6872.49L-395.18 6895.89ZM-436.127 6858.72C-442.187 6856.03 -449.274 6858.77 -451.957 6864.83C-454.639 6870.89 -451.901 6877.98 -445.841 6880.66L-436.127 6858.72ZM-490.731 6852.47C-485.647 6856.72 -478.079 6856.05 -473.828 6850.97C-469.576 6845.88 -470.251 6838.31 -475.335 6834.06L-490.731 6852.47ZM-507.769 6799.89C-511.808 6794.64 -519.341 6793.65 -524.596 6797.69C-529.85 6801.73 -530.835 6809.27 -526.796 6814.52L-507.769 6799.89ZM-554.73 6770.91C-551.603 6776.75 -544.331 6778.95 -538.488 6775.82C-532.645 6772.7 -530.443 6765.42 -533.571 6759.58L-554.73 6770.91ZM-553.523 6715.63C-555.895 6709.45 -562.835 6706.35 -569.024 6708.73C-575.212 6711.1 -578.304 6718.04 -575.932 6724.23L-553.523 6715.63ZM-591.696 6675.73C-589.957 6682.12 -583.363 6685.9 -576.967 6684.16C-570.572 6682.42 -566.798 6675.82 -568.537 6669.43L-591.696 6675.73ZM-579.29 6621.77C-580.479 6615.25 -586.728 6610.93 -593.248 6612.12C-599.768 6613.3 -604.09 6619.55 -602.901 6626.07L-579.29 6621.77ZM-610.075 6575.86C-609.383 6582.45 -603.479 6587.24 -596.887 6586.54C-590.296 6585.85 -585.514 6579.95 -586.207 6573.36L-610.075 6575.86ZM-589.589 6524.47C-589.815 6517.85 -595.367 6512.66 -601.991 6512.89C-608.614 6513.11 -613.801 6518.66 -613.575 6525.29L-589.589 6524.47ZM-613.551 6474.62C-613.783 6481.24 -608.602 6486.8 -601.978 6487.03C-595.355 6487.27 -589.798 6482.08 -589.566 6475.46L-613.551 6474.62ZM-586.136 6426.58C-585.437 6419.98 -590.213 6414.08 -596.803 6413.38C-603.394 6412.68 -609.303 6417.45 -610.002 6424.04L-586.136 6426.58ZM-602.78 6373.85C-603.975 6380.37 -599.659 6386.62 -593.14 6387.82C-586.622 6389.02 -580.368 6384.7 -579.173 6378.18L-602.78 6373.85ZM-568.37 6330.52C-566.624 6324.13 -570.392 6317.53 -576.785 6315.79C-583.179 6314.04 -589.777 6317.81 -591.523 6324.2L-568.37 6330.52ZM-575.706 6275.71C-578.085 6281.89 -574.998 6288.83 -568.813 6291.21C-562.627 6293.59 -555.684 6290.51 -553.305 6284.32L-575.706 6275.71ZM-533.329 6240.41C-530.198 6234.57 -532.396 6227.3 -538.237 6224.17C-544.079 6221.03 -551.352 6223.23 -554.483 6229.07L-533.329 6240.41ZM-526.549 6185.47C-530.585 6190.72 -529.596 6198.26 -524.339 6202.29C-519.083 6206.33 -511.549 6205.34 -507.513 6200.08L-526.549 6185.47ZM-475.109 6165.83C-470.038 6161.57 -469.386 6154 -473.653 6148.93C-477.92 6143.86 -485.49 6143.2 -490.561 6147.47L-475.109 6165.83ZM-445.849 6119.08C-451.89 6121.8 -454.575 6128.91 -451.848 6134.95C-449.121 6140.99 -442.014 6143.68 -435.973 6140.95L-445.849 6119.08ZM-392.209 6127.55C-385.736 6126.12 -381.642 6119.72 -383.066 6113.25C-384.489 6106.78 -390.89 6102.68 -397.363 6104.11L-392.209 6127.55ZM-349.805 6096.47C-356.398 6097.14 -361.195 6103.03 -360.52 6109.63C-359.844 6116.22 -353.952 6121.02 -347.359 6120.34L-349.805 6096.47ZM-301.946 6118.26C-295.319 6118.33 -289.893 6113.01 -289.827 6106.38C-289.761 6099.76 -295.08 6094.33 -301.707 6094.27L-301.946 6118.26ZM-253.74 6097.31C-260.324 6096.54 -266.278 6101.26 -267.04 6107.85C-267.803 6114.43 -263.083 6120.38 -256.5 6121.15L-253.74 6097.31ZM-211.454 6128.59C-204.973 6129.98 -198.596 6125.85 -197.211 6119.37C-195.826 6112.89 -199.958 6106.51 -206.439 6105.12L-211.454 6128.59ZM-160.157 6117.11C-166.5 6115.18 -173.2 6118.77 -175.121 6125.11C-177.043 6131.45 -173.458 6138.15 -167.116 6140.07L-160.157 6117.11ZM-123.659 6155.01C-117.47 6157.38 -110.532 6154.28 -108.162 6148.09C-105.792 6141.9 -108.888 6134.96 -115.077 6132.59L-123.659 6155.01ZM-71.2401 6150.95C-77.2766 6148.21 -84.3878 6150.89 -87.1234 6156.93C-89.859 6162.96 -87.1832 6170.07 -81.1467 6172.81L-71.2401 6150.95ZM-39.5242 6192.95C-33.6278 6195.98 -26.395 6193.65 -23.3694 6187.75C-20.3439 6181.86 -22.6712 6174.62 -28.5677 6171.6L-39.5242 6192.95ZM13.0664 6194.01C7.28818 6190.76 -0.0271707 6192.82 -3.27288 6198.6C-6.5186 6204.37 -4.46558 6211.69 1.31266 6214.94L13.0664 6194.01ZM41.5215 6238.28C47.2113 6241.68 54.5787 6239.82 57.9769 6234.13C61.3752 6228.44 59.5174 6221.08 53.8275 6217.68L41.5215 6238.28ZM93.971 6242.1C88.33 6238.62 80.937 6240.38 77.4582 6246.02C73.9795 6251.66 75.7323 6259.05 81.3733 6262.53L93.971 6242.1ZM121.234 6287.15C126.881 6290.62 134.271 6288.86 137.741 6283.21C141.211 6277.57 139.447 6270.18 133.8 6266.71L121.234 6287.15ZM173.696 6290.67C167.963 6287.34 160.62 6289.3 157.295 6295.03C153.97 6300.76 155.922 6308.11 161.655 6311.43L173.696 6290.67ZM203.507 6334.51C209.351 6337.63 216.622 6335.43 219.747 6329.58C222.872 6323.74 220.667 6316.47 214.822 6313.34L203.507 6334.51ZM257.436 6335.49C251.515 6332.52 244.302 6334.9 241.324 6340.82C238.346 6346.74 240.732 6353.96 246.653 6356.94L257.436 6335.49ZM290.549 6378.12C296.568 6380.89 303.696 6378.26 306.47 6372.24C309.244 6366.22 306.613 6359.09 300.594 6356.32L290.549 6378.12ZM344.393 6375.44C338.264 6372.92 331.252 6375.84 328.732 6381.97C326.212 6388.1 329.138 6395.11 335.267 6397.63L344.393 6375.44ZM380.918 6415.13C387.165 6417.34 394.024 6414.07 396.237 6407.83C398.451 6401.58 395.181 6394.72 388.935 6392.51L380.918 6415.13ZM434.242 6407.13C427.877 6405.29 421.22 6408.95 419.373 6415.31C417.526 6421.68 421.189 6428.34 427.554 6430.18L434.242 6407.13ZM475.149 6442.3C481.624 6443.71 488.017 6439.61 489.428 6433.13C490.839 6426.66 486.733 6420.26 480.257 6418.85L475.149 6442.3ZM526.86 6427.13C520.293 6426.24 514.245 6430.84 513.352 6437.41C512.458 6443.97 517.058 6450.02 523.624 6450.92L526.86 6427.13ZM572.807 6455.37C579.428 6455.66 585.029 6450.52 585.316 6443.9C585.603 6437.28 580.468 6431.68 573.847 6431.39L572.807 6455.37ZM620.857 6431.01C614.242 6431.42 609.213 6437.12 609.623 6443.73C610.033 6450.34 615.728 6455.37 622.342 6454.96L620.857 6431.01ZM671.669 6449.02C678.189 6447.84 682.515 6441.59 681.329 6435.07C680.144 6428.55 673.898 6424.22 667.377 6425.41L671.669 6449.02ZM712.748 6414.16C706.431 6416.17 702.936 6422.91 704.941 6429.23C706.946 6435.55 713.692 6439.04 720.009 6437.04L712.748 6414.16ZM766.43 6418.86C772.428 6416.04 775.005 6408.89 772.185 6402.89C769.366 6396.9 762.218 6394.32 756.221 6397.14L766.43 6418.86ZM797.101 6374.55C791.519 6378.12 789.89 6385.54 793.463 6391.12C797.036 6396.71 804.457 6398.33 810.039 6394.76L797.101 6374.55ZM849.682 6365.74C854.766 6361.49 855.441 6353.92 851.189 6348.83C846.938 6343.75 839.37 6343.08 834.286 6347.33L849.682 6365.74ZM867.174 6316.05C862.669 6320.91 862.958 6328.5 867.819 6333.01C872.68 6337.51 880.272 6337.22 884.777 6332.36L867.174 6316.05ZM915.42 6294.95C919.303 6289.58 918.098 6282.08 912.727 6278.19C907.357 6274.31 899.855 6275.51 895.972 6280.88L915.42 6294.95ZM920.474 6242.51C917.23 6248.28 919.285 6255.6 925.064 6258.84C930.843 6262.09 938.158 6260.03 941.402 6254.25L920.474 6242.51ZM962.679 6211C965.283 6204.9 962.454 6197.85 956.36 6195.25C950.265 6192.64 943.214 6195.47 940.609 6201.57L962.679 6211ZM956.396 6158.67C954.422 6165 957.95 6171.73 964.277 6173.7C970.603 6175.68 977.332 6172.15 979.306 6165.82L956.396 6158.67ZM991.391 6119.28C992.75 6112.79 988.592 6106.43 982.105 6105.08C975.619 6103.72 969.259 6107.88 967.901 6114.36L991.391 6119.28ZM975.209 6069.13C974.451 6075.72 979.174 6081.67 985.758 6082.42C992.342 6083.18 998.294 6078.46 999.051 6071.87L975.209 6069.13ZM1002.4 6024.01C1002.57 6017.38 997.339 6011.87 990.713 6011.7C984.088 6011.53 978.58 6016.77 978.41 6023.39L1002.4 6024.01ZM977.58 5977.52C977.988 5984.14 983.681 5989.17 990.296 5988.76C996.911 5988.35 1001.94 5982.66 1001.53 5976.04L977.58 5977.52ZM996.514 5928.34C995.536 5921.78 989.429 5917.26 982.874 5918.24C976.319 5919.22 971.799 5925.33 972.777 5931.88L996.514 5928.34ZM964.045 5886.83C965.587 5893.28 972.063 5897.25 978.508 5895.71C984.954 5894.17 988.928 5887.69 987.386 5881.25L964.045 5886.83ZM974.185 5835.13C972.083 5828.84 965.283 5825.45 958.998 5827.55C952.713 5829.66 949.323 5836.45 951.425 5842.74L974.185 5835.13ZM934.954 5799.95C937.61 5806.03 944.686 5808.79 950.758 5806.14C956.829 5803.48 959.597 5796.4 956.94 5790.33L934.954 5799.95ZM935.694 5747.26C932.492 5741.46 925.192 5739.35 919.389 5742.55C913.587 5745.75 911.48 5753.05 914.682 5758.86L935.694 5747.26ZM890.703 5719.85C894.436 5725.32 901.902 5726.74 907.378 5723C912.853 5719.27 914.266 5711.8 910.533 5706.33L890.703 5719.85ZM881.59 5667.96C877.349 5662.87 869.782 5662.18 864.69 5666.42C859.597 5670.66 858.907 5678.23 863.149 5683.32L881.59 5667.96ZM832.189 5649.63C836.906 5654.28 844.504 5654.23 849.159 5649.51C853.815 5644.8 853.765 5637.2 849.047 5632.54L832.189 5649.63ZM812.166 5599.7C806.988 5595.56 799.437 5596.41 795.301 5601.59C791.165 5606.76 792.01 5614.31 797.188 5618.45L812.166 5599.7ZM758.184 5590.98C763.832 5594.45 771.222 5592.68 774.689 5587.03C778.157 5581.38 776.39 5573.99 770.743 5570.53L758.184 5590.98ZM725.791 5546.93C719.724 5544.27 712.643 5547.02 709.976 5553.09C707.308 5559.16 710.064 5566.24 716.131 5568.9L725.791 5546.93ZM671.492 5552.98C677.878 5554.75 684.492 5551.01 686.264 5544.62C688.037 5538.24 684.296 5531.62 677.91 5529.85L671.492 5552.98ZM628.096 5519.79C621.523 5518.94 615.505 5523.58 614.654 5530.15C613.802 5536.72 618.44 5542.74 625.013 5543.59L628.096 5519.79ZM577.529 5540.66C584.156 5540.64 589.511 5535.25 589.49 5528.62C589.468 5521.99 584.078 5516.64 577.451 5516.66L577.529 5540.66ZM526.992 5519.85C520.412 5520.64 515.722 5526.62 516.516 5533.2C517.31 5539.78 523.287 5544.47 529.867 5543.67L526.992 5519.85ZM482.601 5551.85C489.069 5550.41 493.141 5544 491.696 5537.53C490.251 5531.06 483.836 5526.99 477.368 5528.43L482.601 5551.85ZM428.925 5541.46C422.599 5543.43 419.074 5550.16 421.051 5556.49C423.028 5562.82 429.758 5566.34 436.084 5564.36L428.925 5541.46ZM390.446 5580.41C396.623 5578.01 399.683 5571.05 397.281 5564.88C394.879 5558.7 387.925 5555.64 381.748 5558.04L390.446 5580.41ZM335.82 5577.41C329.782 5580.14 327.103 5587.25 329.836 5593.29C332.569 5599.33 339.679 5602.01 345.717 5599.27L335.82 5577.41ZM301.831 5620.29C307.751 5617.31 310.137 5610.1 307.159 5604.18C304.181 5598.26 296.967 5595.87 291.046 5598.85L301.831 5620.29ZM247.099 5621.77C241.26 5624.9 239.068 5632.18 242.203 5638.02C245.338 5643.86 252.612 5646.05 258.452 5642.91L247.099 5621.77ZM215.292 5666.39C221.11 5663.22 223.254 5655.93 220.081 5650.11C216.908 5644.29 209.619 5642.15 203.801 5645.32L215.292 5666.39ZM162.384 5667.38C156.493 5670.42 154.177 5677.66 157.212 5683.55C160.248 5689.44 167.484 5691.75 173.376 5688.72L162.384 5667.38ZM132.122 5709.11C138.116 5706.28 140.681 5699.13 137.851 5693.13C135.022 5687.14 127.87 5684.58 121.877 5687.4L132.122 5709.11ZM80.731 5705.82C74.6249 5708.39 71.7636 5715.43 74.3401 5721.54C76.9167 5727.64 83.9553 5730.5 90.0614 5727.93L80.731 5705.82ZM47.1262 5744.86C53.3498 5742.58 56.5483 5735.69 54.2703 5729.47C51.9923 5723.24 45.1003 5720.04 38.8767 5722.32L47.1262 5744.86ZM-3.69414 5736.61C-10.0342 5738.54 -13.6088 5745.25 -11.6782 5751.59C-9.74772 5757.93 -3.04313 5761.5 3.29688 5759.57L-3.69414 5736.61ZM-41.426 5771.7C-34.9774 5770.17 -30.9896 5763.7 -32.5188 5757.25C-34.0481 5750.81 -40.5154 5746.82 -46.964 5748.35L-41.426 5771.7ZM-90.799 5757.15C-97.3394 5758.22 -101.774 5764.39 -100.703 5770.93C-99.6332 5777.47 -93.4634 5781.91 -86.923 5780.84L-90.799 5757.15ZM-133.075 5786.56C-126.471 5786.01 -121.564 5780.21 -122.115 5773.61C-122.666 5767 -128.467 5762.09 -135.071 5762.65L-133.075 5786.56ZM-179.55 5764.44C-186.177 5764.41 -191.571 5769.77 -191.597 5776.39C-191.624 5783.02 -186.272 5788.41 -179.645 5788.44L-179.55 5764.44ZM-226.285 5786.07C-219.689 5786.72 -213.814 5781.91 -213.161 5775.31C-212.508 5768.72 -217.325 5762.84 -223.92 5762.19L-226.285 5786.07ZM-267.792 5755.62C-274.288 5754.31 -280.618 5758.51 -281.93 5765.01C-283.242 5771.51 -279.039 5777.83 -272.543 5779.15L-267.792 5755.62ZM-317.864 5767.52C-311.538 5769.5 -304.807 5765.98 -302.829 5759.65C-300.851 5753.33 -304.375 5746.6 -310.7 5744.62L-317.864 5767.52ZM-352.234 5729.21C-358.32 5726.58 -365.381 5729.39 -368.005 5735.48C-370.629 5741.56 -367.823 5748.62 -361.738 5751.25L-352.234 5729.21ZM-403.694 5730.56C-397.904 5733.79 -390.596 5731.71 -387.371 5725.92C-384.146 5720.13 -386.225 5712.82 -392.015 5709.6L-403.694 5730.56ZM-430.745 5684.84C-436.028 5680.84 -443.555 5681.87 -447.556 5687.16C-451.557 5692.44 -450.518 5699.97 -445.235 5703.97L-430.745 5684.84ZM-483.589 5669.17C-479.083 5674.03 -471.49 5674.32 -466.63 5669.81C-461.771 5665.31 -461.484 5657.72 -465.99 5652.86L-483.589 5669.17ZM-495.561 5615.3C-499.247 5609.79 -506.7 5608.31 -512.208 5612C-517.716 5615.69 -519.194 5623.14 -515.508 5628.65L-495.561 5615.3ZM-540.98 5584.03C-538.092 5590 -530.915 5592.49 -524.95 5589.61C-518.985 5586.72 -516.491 5579.54 -519.379 5573.57L-540.98 5584.03ZM-537.682 5528.91C-539.827 5522.64 -546.649 5519.3 -552.92 5521.44C-559.19 5523.59 -562.535 5530.41 -560.39 5536.68L-537.682 5528.91ZM-574.239 5487.58C-572.779 5494.04 -566.355 5498.1 -559.891 5496.64C-553.426 5495.18 -549.369 5488.75 -550.829 5482.29L-574.239 5487.58ZM-559.175 5434.45C-560 5427.88 -565.999 5423.22 -572.575 5424.04C-579.151 5424.87 -583.813 5430.86 -582.989 5437.44L-559.175 5434.45ZM-586.993 5386.78C-586.769 5393.4 -581.218 5398.59 -574.594 5398.37C-567.971 5398.14 -562.783 5392.59 -563.007 5385.97L-586.993 5386.78ZM-562.508 5337.28C-562.15 5330.67 -567.225 5325.01 -573.843 5324.65C-580.461 5324.3 -586.115 5329.37 -586.473 5335.99L-562.508 5337.28ZM-581.513 5285.43C-582.45 5291.99 -577.891 5298.07 -571.33 5299.01C-564.77 5299.95 -558.691 5295.39 -557.754 5288.83L-581.513 5285.43ZM-548.709 5241.03C-547.178 5234.58 -551.165 5228.11 -557.613 5226.58C-564.061 5225.05 -570.529 5229.04 -572.06 5235.48L-548.709 5241.03ZM-557.912 5186.57C-560.069 5192.84 -556.738 5199.67 -550.472 5201.82C-544.205 5203.98 -537.377 5200.65 -535.219 5194.38L-557.912 5186.57ZM-517.014 5149.53C-514.179 5143.54 -516.736 5136.39 -522.726 5133.55C-528.717 5130.72 -535.871 5133.27 -538.707 5139.27L-517.014 5149.53ZM-513.925 5094.39C-517.504 5099.97 -515.885 5107.4 -510.307 5110.98C-504.729 5114.55 -497.306 5112.94 -493.727 5107.36L-513.925 5094.39ZM-464.963 5069.11C-460.573 5064.15 -461.038 5056.57 -466.003 5052.17C-470.968 5047.78 -478.551 5048.25 -482.942 5053.22L-464.963 5069.11ZM-445.241 5017.59C-450.468 5021.67 -451.402 5029.21 -447.328 5034.44C-443.254 5039.66 -435.713 5040.6 -430.486 5036.52L-445.241 5017.59ZM-392.211 5011.87C-386.408 5008.67 -384.299 5001.37 -387.5 4995.56C-390.701 4989.76 -398 4987.65 -403.803 4990.85L-392.211 5011.87ZM-361.842 4970.69C-367.971 4973.21 -370.894 4980.23 -368.371 4986.36C-365.848 4992.48 -358.834 4995.41 -352.706 4992.88L-361.842 4970.69ZM-311.34 4978.64C-304.957 4976.86 -301.227 4970.24 -303.009 4963.86C-304.792 4957.47 -311.411 4953.74 -317.794 4955.53L-311.34 4978.64ZM-272.29 4945.67C-278.838 4946.7 -283.318 4952.83 -282.297 4959.38C-281.275 4965.93 -275.139 4970.41 -268.591 4969.39L-272.29 4945.67ZM-224.975 4965.08C-218.354 4964.8 -213.219 4959.2 -213.507 4952.57C-213.795 4945.95 -219.395 4940.82 -226.016 4941.11L-224.975 4965.08ZM-179.638 4941.48C-186.254 4941.1 -191.927 4946.15 -192.309 4952.77C-192.69 4959.39 -187.636 4965.06 -181.02 4965.44L-179.638 4941.48ZM-137.135 4969.97C-130.579 4970.94 -124.481 4966.41 -123.516 4959.85C-122.551 4953.29 -127.084 4947.2 -133.641 4946.23L-137.135 4969.97ZM-88.3434 4954.71C-94.8087 4953.25 -101.231 4957.31 -102.688 4963.77C-104.146 4970.24 -100.086 4976.66 -93.6208 4978.12L-88.3434 4954.71ZM-50.6273 4989.29C-44.2671 4991.16 -37.6009 4987.51 -35.7378 4981.15C-33.8748 4974.79 -37.5204 4968.13 -43.8806 4966.26L-50.6273 4989.29ZM-0.27382 4980.32C-6.52847 4978.13 -13.3753 4981.42 -15.5667 4987.68C-17.758 4993.93 -14.4641 5000.78 -8.20943 5002.97L-0.27382 4980.32ZM33.6331 5018.66C39.7903 5021.11 46.7693 5018.11 49.2212 5011.95C51.6731 5005.8 48.6693 4998.82 42.5121 4996.36L33.6331 5018.66ZM84.567 5013.95C78.4939 5011.3 71.4198 5014.07 68.7666 5020.15C66.1134 5026.22 68.8858 5033.29 74.959 5035.95L84.567 5013.95ZM115.866 5054.45C121.872 5057.26 129.013 5054.66 131.814 5048.65C134.616 5042.65 132.019 5035.51 126.013 5032.7L115.866 5054.45ZM166.973 5052.26C161.015 5049.36 153.832 5051.84 150.931 5057.8C148.029 5063.76 150.507 5070.94 156.465 5073.84L166.973 5052.26ZM199.967 5095.17C205.927 5098.07 213.108 5095.59 216.008 5089.63C218.907 5083.67 216.427 5076.49 210.467 5073.59L199.967 5095.17ZM256.87 5095.67C250.855 5092.89 243.723 5095.51 240.939 5101.52C238.156 5107.53 240.776 5114.67 246.79 5117.45L256.87 5095.67ZM294.339 5138.59C300.441 5141.18 307.484 5138.33 310.071 5132.23C312.658 5126.13 309.809 5119.09 303.707 5116.5L294.339 5138.59ZM351.152 5135.33C344.929 5133.05 338.036 5136.24 335.754 5142.47C333.472 5148.69 336.666 5155.58 342.888 5157.86L351.152 5135.33ZM392.758 5174.26C399.128 5176.09 405.775 5172.41 407.605 5166.04C409.436 5159.68 405.756 5153.03 399.386 5151.2L392.758 5174.26ZM448.473 5162.82C441.953 5161.64 435.704 5165.96 434.517 5172.48C433.329 5179 437.652 5185.25 444.172 5186.44L448.473 5162.82ZM496.968 5192.66C503.587 5192.98 509.218 5187.88 509.545 5181.26C509.872 5174.64 504.771 5169.01 498.152 5168.69L496.968 5192.66ZM547.826 5167.31C541.238 5168.02 536.48 5173.95 537.199 5180.54C537.918 5187.12 543.841 5191.88 550.43 5191.16L547.826 5167.31ZM603.055 5180.85C609.427 5179.03 613.116 5172.39 611.294 5166.02C609.472 5159.64 602.83 5155.95 596.458 5157.78L603.055 5180.85ZM642.904 5140.28C636.904 5143.1 634.323 5150.24 637.139 5156.24C639.954 5162.24 647.1 5164.82 653.1 5162.01L642.904 5140.28ZM697.81 5135.07C702.847 5130.76 703.438 5123.18 699.131 5118.15C694.823 5113.11 687.248 5112.52 682.212 5116.83L697.81 5135.07ZM710.527 5084.05C706.857 5089.57 708.355 5097.02 713.874 5100.69C719.392 5104.36 726.841 5102.86 730.511 5097.34L710.527 5084.05ZM753.656 5054.53C756.335 5048.47 753.593 5041.38 747.531 5038.7C741.47 5036.03 734.384 5038.77 731.704 5044.83L753.656 5054.53ZM747.433 5002.37C745.474 5008.7 749.02 5015.42 755.351 5017.38C761.682 5019.34 768.403 5015.79 770.361 5009.46L747.433 5002.37ZM782.394 4963.23C783.794 4956.76 779.677 4950.37 773.199 4948.97C766.721 4947.57 760.335 4951.69 758.935 4958.17L782.394 4963.23ZM766.978 4913.04C766.04 4919.61 770.597 4925.68 777.158 4926.62C783.719 4927.56 789.798 4923 790.736 4916.44L766.978 4913.04ZM795.979 4869.32C796.512 4862.71 791.59 4856.92 784.984 4856.39C778.378 4855.86 772.59 4860.78 772.057 4867.39L795.979 4869.32ZM774.45 4821.41C774.291 4828.04 779.534 4833.54 786.159 4833.7C792.785 4833.85 798.284 4828.61 798.443 4821.99L774.45 4821.41ZM798.27 4774.63C798.063 4768 792.525 4762.8 785.901 4763.01C779.277 4763.21 774.075 4768.75 774.281 4775.37L798.27 4774.63ZM771.555 4729.42C772.136 4736.02 777.959 4740.9 784.561 4740.32C791.163 4739.74 796.043 4733.92 795.462 4727.31L771.555 4729.42ZM789.882 4680.19C788.898 4673.64 782.788 4669.12 776.234 4670.11C769.68 4671.09 765.164 4677.2 766.148 4683.75L789.882 4680.19ZM757.805 4638.68C759.245 4645.15 765.656 4649.22 772.125 4647.78C778.594 4646.34 782.671 4639.93 781.232 4633.46L757.805 4638.68ZM768.971 4587.39C766.985 4581.07 760.249 4577.55 753.927 4579.54C747.604 4581.52 744.088 4588.26 746.074 4594.58L768.971 4587.39ZM730.214 4552.12C732.896 4558.18 739.982 4560.92 746.043 4558.24C752.104 4555.56 754.843 4548.47 752.162 4542.41L730.214 4552.12ZM729.19 4499.53C725.573 4493.98 718.138 4492.41 712.585 4496.02C707.033 4499.64 705.464 4507.08 709.082 4512.63L729.19 4499.53ZM681.263 4479.07C686.143 4483.55 693.734 4483.23 698.218 4478.35C702.702 4473.47 702.381 4465.88 697.501 4461.4L681.263 4479.07ZM655.236 4433C649.365 4429.93 642.113 4432.2 639.039 4438.07C635.965 4443.94 638.232 4451.19 644.103 4454.27L655.236 4433ZM600.597 4435.98C606.898 4438.04 613.672 4434.6 615.727 4428.29C617.782 4421.99 614.341 4415.22 608.04 4413.16L600.597 4435.98ZM558.474 4401.11C551.937 4400.02 545.754 4404.44 544.663 4410.97C543.573 4417.51 547.989 4423.69 554.526 4424.78L558.474 4401.11ZM507.049 4420.02C513.671 4420.28 519.249 4415.12 519.507 4408.5C519.765 4401.88 514.606 4396.3 507.983 4396.04L507.049 4420.02ZM457.518 4396.75C450.904 4397.16 445.881 4402.87 446.299 4409.48C446.717 4416.09 452.418 4421.12 459.033 4420.7L457.518 4396.75ZM411.004 4425.76C417.564 4424.81 422.113 4418.73 421.167 4412.17C420.22 4405.61 414.135 4401.06 407.575 4402.01L411.004 4425.76ZM358.347 4410.73C351.857 4412.07 347.687 4418.43 349.033 4424.92C350.378 4431.4 356.729 4435.57 363.219 4434.23L358.347 4410.73ZM315.738 4445.22C322.163 4443.6 326.054 4437.07 324.429 4430.65C322.804 4424.22 316.278 4420.33 309.853 4421.96L315.738 4445.22ZM261.969 4434.78C255.585 4436.56 251.854 4443.18 253.635 4449.56C255.416 4455.95 262.034 4459.68 268.418 4457.9L261.969 4434.78ZM220.976 4471.21C227.364 4469.45 231.113 4462.84 229.35 4456.45C227.586 4450.06 220.978 4446.31 214.589 4448.08L220.976 4471.21ZM166.675 4460.68C160.261 4462.35 156.413 4468.9 158.081 4475.31C159.748 4481.73 166.3 4485.58 172.714 4483.91L166.675 4460.68ZM123.632 4496.42C130.065 4494.83 133.988 4488.32 132.394 4481.89C130.801 4475.46 124.294 4471.54 117.861 4473.13L123.632 4496.42ZM68.9974 4484.74C62.5337 4486.21 58.481 4492.63 59.9452 4499.1C61.4095 4505.56 67.8363 4509.61 74.2999 4508.15L68.9974 4484.74ZM24.6209 4518.75C31.1203 4517.46 35.3386 4511.14 34.0427 4504.64C32.7467 4498.14 26.4273 4493.92 19.9278 4495.22L24.6209 4518.75ZM-29.3459 4504.24C-35.8842 4505.32 -40.3066 4511.5 -39.2235 4518.04C-38.1404 4524.58 -31.9621 4529 -25.4238 4527.92L-29.3459 4504.24ZM-75.8614 4535.24C-69.2836 4534.43 -64.6069 4528.44 -65.4158 4521.86C-66.2247 4515.29 -72.2129 4510.61 -78.7908 4511.42L-75.8614 4535.24ZM-128.372 4516.19C-134.985 4516.63 -139.987 4522.35 -139.546 4528.97C-139.104 4535.58 -133.385 4540.58 -126.772 4540.14L-128.372 4516.19ZM-178.16 4541.68C-171.533 4541.76 -166.098 4536.45 -166.021 4529.82C-165.943 4523.19 -171.253 4517.76 -177.88 4517.68L-178.16 4541.68ZM-226.774 4514.41C-233.344 4513.54 -239.376 4518.16 -240.246 4524.73C-241.117 4531.3 -236.496 4537.33 -229.926 4538.2L-226.774 4514.41ZM-281.395 4526.44C-275.139 4528.63 -268.293 4525.33 -266.104 4519.08C-263.914 4512.82 -267.21 4505.98 -273.465 4503.79L-281.395 4526.44ZM-312.191 4483.56C-317.581 4479.7 -325.076 4480.94 -328.933 4486.33C-332.79 4491.72 -331.547 4499.22 -326.158 4503.08L-312.191 4483.56ZM-360.548 4470.98C-356.341 4476.1 -348.78 4476.84 -343.659 4472.64C-338.538 4468.43 -337.797 4460.87 -342.003 4455.75L-360.548 4470.98ZM-363.359 4421.14C-366.049 4415.09 -373.14 4412.36 -379.197 4415.05C-385.253 4417.74 -387.983 4424.83 -385.293 4430.88L-363.359 4421.14ZM-398.476 4385.66C-397.488 4392.21 -391.375 4396.72 -384.821 4395.73C-378.268 4394.75 -373.756 4388.63 -374.744 4382.08L-398.476 4385.66ZM-375.357 4341.42C-374.559 4334.84 -379.246 4328.86 -385.825 4328.06C-392.404 4327.27 -398.384 4331.95 -399.182 4338.53L-375.357 4341.42ZM-387.006 4292.86C-389.606 4298.96 -386.771 4306.01 -380.675 4308.61C-374.578 4311.21 -367.529 4308.37 -364.929 4302.28L-387.006 4292.86ZM-343.82 4267.96C-339.538 4262.91 -340.166 4255.33 -345.224 4251.05C-350.282 4246.77 -357.854 4247.4 -362.137 4252.46L-343.82 4267.96ZM-326.318 4221.29C-331.914 4224.84 -333.571 4232.26 -330.019 4237.85C-326.468 4243.45 -319.053 4245.1 -313.457 4241.55L-326.318 4221.29ZM-273.494 4225.24C-266.956 4224.15 -262.533 4217.98 -263.615 4211.44C-264.697 4204.9 -270.875 4200.48 -277.413 4201.56L-273.494 4225.24ZM-220.487 4205.25C-226.899 4203.57 -233.454 4207.42 -235.128 4213.83C-236.801 4220.24 -232.959 4226.8 -226.546 4228.47L-220.487 4205.25ZM-179.601 4246.27C-173.598 4249.08 -166.455 4246.49 -163.648 4240.48C-160.841 4234.48 -163.432 4227.34 -169.435 4224.53L-179.601 4246.27ZM-122.175 4248.56C-128.025 4245.44 -135.292 4247.66 -138.406 4253.51C-141.519 4259.36 -139.301 4266.63 -133.45 4269.74L-122.175 4248.56ZM-86.9408 4294.35C-81.0509 4297.39 -73.8131 4295.08 -70.7746 4289.19C-67.7362 4283.3 -70.0477 4276.06 -75.9375 4273.02L-86.9408 4294.35ZM-29.3391 4295.73C-35.3759 4292.99 -42.4868 4295.67 -45.2217 4301.7C-47.9565 4307.74 -45.2798 4314.85 -39.243 4317.59L-29.3391 4295.73ZM10.1181 4337.82C16.3455 4340.09 23.2321 4336.88 25.4999 4330.65C27.7677 4324.42 24.5578 4317.53 18.3304 4315.27L10.1181 4337.82ZM67.3306 4330.63C60.9198 4328.95 54.3603 4332.79 52.6796 4339.2C50.9988 4345.61 54.8332 4352.17 61.244 4353.85L67.3306 4330.63ZM113.709 4364.81C120.258 4365.83 126.394 4361.35 127.415 4354.81C128.437 4348.26 123.956 4342.12 117.408 4341.1L113.709 4364.81ZM168.361 4346.35C161.742 4346.01 156.103 4351.11 155.766 4357.73C155.429 4364.34 160.522 4369.98 167.141 4370.32L168.361 4346.35ZM218.636 4370.1C225.245 4369.6 230.204 4363.85 229.711 4357.24C229.219 4350.63 223.462 4345.67 216.853 4346.16L218.636 4370.1ZM261.405 4339.18C254.969 4340.76 251.032 4347.26 252.612 4353.7C254.192 4360.13 260.691 4364.07 267.127 4362.49L261.405 4339.18ZM313.646 4346.4C319.676 4343.65 322.334 4336.53 319.583 4330.5C316.832 4324.47 309.714 4321.81 303.685 4324.57L313.646 4346.4ZM342.355 4302.04C336.991 4305.94 335.797 4313.44 339.689 4318.8C343.58 4324.17 351.084 4325.36 356.449 4321.47L342.355 4302.04ZM393.395 4288.59C397.889 4283.72 397.583 4276.13 392.712 4271.64C387.841 4267.14 380.249 4267.45 375.755 4272.32L393.395 4288.59ZM402.917 4236.63C399.406 4242.25 401.116 4249.65 406.737 4253.16C412.358 4256.67 419.761 4254.96 423.272 4249.34L402.917 4236.63ZM445.593 4205.53C448.09 4199.39 445.137 4192.39 438.998 4189.89C432.859 4187.39 425.858 4190.35 423.361 4196.49L445.593 4205.53ZM436.973 4153.36C435.481 4159.82 439.506 4166.27 445.963 4167.76C452.42 4169.25 458.865 4165.23 460.357 4158.77L436.973 4153.36ZM467.731 4110.38C468.236 4103.78 463.288 4098.01 456.68 4097.51C450.072 4097 444.305 4101.95 443.801 4108.56L467.731 4110.38ZM443.897 4063.2C444.374 4069.81 450.119 4074.79 456.73 4074.31C463.34 4073.83 468.312 4068.09 467.834 4061.48L443.897 4063.2ZM460.643 4013.05C459.172 4006.59 452.741 4002.55 446.279 4004.02C439.817 4005.49 435.77 4011.92 437.241 4018.38L460.643 4013.05ZM423.745 3975.24C426.232 3981.39 433.228 3984.35 439.371 3981.86C445.515 3979.38 448.479 3972.38 445.992 3966.24L423.745 3975.24ZM423.683 3922.39C420.168 3916.77 412.764 3915.07 407.145 3918.58C401.527 3922.1 399.822 3929.5 403.336 3935.12L423.683 3922.39ZM376.127 3899.51C380.636 3904.36 388.229 3904.64 393.086 3900.14C397.943 3895.63 398.225 3888.03 393.716 3883.18L376.127 3899.51ZM356.624 3850.44C351.241 3846.57 343.743 3847.8 339.878 3853.19C336.012 3858.57 337.243 3866.07 342.626 3869.93L356.624 3850.44ZM303.842 3847.62C309.886 3850.34 316.99 3847.64 319.71 3841.6C322.429 3835.55 319.735 3828.45 313.691 3825.73L303.842 3847.62ZM267.104 3809.86C260.662 3808.3 254.179 3812.27 252.623 3818.71C251.068 3825.15 255.03 3831.63 261.472 3833.19L267.104 3809.86ZM216.879 3826.32C223.489 3826.81 229.239 3821.84 229.722 3815.23C230.205 3808.62 225.239 3802.87 218.629 3802.39L216.879 3826.32ZM169.372 3802.39C162.762 3802.87 157.796 3808.62 158.279 3815.23C158.763 3821.84 164.513 3826.81 171.123 3826.32L169.372 3802.39ZM126.529 3833.19C132.971 3831.63 136.933 3825.15 135.378 3818.71C133.823 3812.27 127.339 3808.3 120.897 3809.86L126.529 3833.19ZM74.3102 3825.73C68.2665 3828.45 65.5719 3835.55 68.2915 3841.6C71.0111 3847.64 78.1152 3850.34 84.1589 3847.62L74.3102 3825.73ZM45.3753 3869.93C50.7586 3866.07 51.9891 3858.57 48.1237 3853.19C44.2582 3847.8 36.7605 3846.57 31.3771 3850.44L45.3753 3869.93ZM-5.71442 3883.18C-10.2235 3888.03 -9.9415 3895.63 -5.08449 3900.14C-0.227475 3904.64 7.36527 3904.36 11.8744 3899.51L-5.71442 3883.18ZM-15.3351 3935.12C-11.8202 3929.5 -13.5256 3922.1 -19.1441 3918.58C-24.7626 3915.07 -32.1668 3916.77 -35.6817 3922.39L-15.3351 3935.12ZM-57.9905 3966.24C-60.4773 3972.38 -57.5133 3979.38 -51.3701 3981.86C-45.227 3984.35 -38.231 3981.39 -35.7442 3975.24L-57.9905 3966.24ZM-49.2401 4018.38C-47.7692 4011.92 -51.8153 4005.49 -58.2774 4004.02C-64.7395 4002.55 -71.1705 4006.59 -72.6415 4013.05L-49.2401 4018.38ZM-79.833 4061.48C-80.3102 4068.09 -75.3385 4073.83 -68.7283 4074.31C-62.1181 4074.79 -56.3726 4069.81 -55.8953 4063.2L-79.833 4061.48ZM-55.7993 4108.56C-56.3041 4101.95 -62.0703 4097 -68.6784 4097.51C-75.2866 4098.01 -80.2344 4103.78 -79.7296 4110.38L-55.7993 4108.56ZM-72.3557 4158.77C-70.8634 4165.23 -64.419 4169.25 -57.9618 4167.76C-51.5046 4166.27 -47.4798 4159.82 -48.9721 4153.36L-72.3557 4158.77ZM-35.3601 4196.49C-37.857 4190.35 -44.8579 4187.39 -50.9969 4189.89C-57.136 4192.39 -60.0885 4199.39 -57.5915 4205.53L-35.3601 4196.49ZM-35.2707 4249.34C-31.7595 4254.96 -24.3564 4256.67 -18.7356 4253.16C-13.1148 4249.65 -11.4046 4242.25 -14.9159 4236.63L-35.2707 4249.34ZM12.2462 4272.32C7.75219 4267.45 0.160362 4267.14 -4.71064 4271.64C-9.58164 4276.13 -9.88727 4283.72 -5.39327 4288.59L12.2462 4272.32ZM31.5528 4321.47C36.9173 4325.36 44.4209 4324.17 48.3126 4318.8C52.2043 4313.44 51.0104 4305.94 45.646 4302.04L31.5528 4321.47ZM84.3168 4324.57C78.2873 4321.81 71.1694 4324.47 68.4185 4330.5C65.6676 4336.53 68.3255 4343.65 74.355 4346.4L84.3168 4324.57ZM120.874 4362.49C127.311 4364.07 133.809 4360.13 135.389 4353.7C136.969 4347.26 133.032 4340.76 126.596 4339.18L120.874 4362.49ZM171.149 4346.16C164.539 4345.67 158.783 4350.63 158.29 4357.24C157.798 4363.85 162.756 4369.6 169.365 4370.1L171.149 4346.16ZM194.001 4371C202.222 4371 210.408 4370.9 218.553 4370.71L217.981 4346.71C210.026 4346.9 202.03 4347 194.001 4347V4371ZM267.57 4368.36C284.093 4367.16 300.402 4365.57 316.45 4363.61L313.531 4339.78C297.881 4341.7 281.969 4343.25 265.84 4344.42L267.57 4368.36ZM365.054 4356.37C381.474 4353.48 397.552 4350.19 413.235 4346.51L407.758 4323.14C392.522 4326.71 376.883 4329.92 360.894 4332.73L365.054 4356.37ZM460.816 4333.83C476.945 4328.98 492.545 4323.7 507.543 4318.02L499.045 4295.58C484.595 4301.05 469.527 4306.15 453.909 4310.84L460.816 4333.83ZM553.1 4298.65C568.577 4291.28 583.2 4283.41 596.858 4275.09L584.372 4254.59C571.47 4262.45 557.573 4269.93 542.774 4276.99L553.1 4298.65ZM637.884 4246.35C644.568 4240.93 650.89 4235.36 656.824 4229.64L640.176 4212.36C634.762 4217.57 628.954 4222.69 622.766 4227.71L637.884 4246.35ZM656.824 4229.64C663.36 4223.35 669.518 4216.55 675.264 4209.31L656.466 4194.38C651.356 4200.82 645.914 4206.83 640.176 4212.36L656.824 4229.64ZM703.781 4162.91C711.321 4146.77 717.255 4129.53 721.364 4111.63L697.972 4106.26C694.237 4122.53 688.85 4138.16 682.035 4152.76L703.781 4162.91ZM727.969 4057.87C728.299 4040 726.784 4021.87 723.217 4003.85L699.674 4008.51C702.897 4024.79 704.273 4041.21 703.973 4057.43L727.969 4057.87ZM706.842 3952.05C699.668 3935.89 690.572 3920.17 679.402 3905.17L660.154 3919.5C670.246 3933.06 678.446 3947.24 684.907 3961.79L706.842 3952.05ZM642.676 3865.4C636.055 3859.55 629.019 3853.91 621.556 3848.48L607.444 3867.9C614.303 3872.88 620.748 3878.06 626.794 3883.39L642.676 3865.4ZM621.556 3848.48C615.245 3843.89 609.021 3839.41 602.885 3835.02L588.92 3854.54C595.007 3858.89 601.181 3863.34 607.444 3867.9L621.556 3848.48ZM565.754 3808.88C552.782 3799.89 540.238 3791.36 528.11 3783.24L514.757 3803.18C526.785 3811.24 539.225 3819.7 552.09 3828.61L565.754 3808.88ZM490.028 3758.17C476.684 3749.53 463.91 3741.41 451.688 3733.74L438.93 3754.07C451.069 3761.69 463.747 3769.75 476.986 3778.32L490.028 3758.17ZM413.156 3709.86C399.436 3701.45 386.514 3693.61 374.413 3686.24L361.927 3706.73C374.07 3714.13 386.931 3721.94 400.613 3730.32L413.156 3709.86ZM335.862 3662.48C322.109 3653.82 309.733 3645.74 298.585 3637.9L284.776 3657.53C296.391 3665.7 309.146 3674.02 323.081 3682.79L335.862 3662.48ZM264.244 3610.79C253.04 3600.53 243.893 3590.15 236.43 3578.89L216.43 3592.16C225.156 3605.32 235.661 3617.16 248.036 3628.49L264.244 3610.79ZM218.492 3541.08C214.541 3528.73 211.59 3514.89 209.551 3498.98L185.746 3502.02C187.93 3519.08 191.154 3534.4 195.635 3548.39L218.492 3541.08ZM206.318 3454.89C206.105 3447.76 206.001 3440.3 206.001 3432.5H182.001C182.001 3440.51 182.108 3448.21 182.328 3455.61L206.318 3454.89ZM206.001 3432.5C206.001 3424.81 206.001 3417.08 206.001 3409.29L182.001 3409.29C182.001 3417.08 182.001 3424.81 182.001 3432.5H206.001ZM206.001 3362.36C206.001 3346.86 206.001 3331.2 206.001 3315.37L182.001 3315.37C182.001 3331.2 182.001 3346.86 182.001 3362.36L206.001 3362.36ZM206.001 3268.62C206.001 3253.16 206.001 3237.55 206.001 3221.81L182.001 3221.81C182.001 3237.55 182.001 3253.16 182.001 3268.62L206.001 3268.62ZM206.001 3174.91C206.001 3159.37 206.001 3143.71 206.001 3127.95L182.001 3127.95C182.001 3143.71 182.001 3159.37 182.001 3174.91L206.001 3174.91ZM206.001 3081.17C206.001 3065.64 206.001 3050.02 206.001 3034.33L182.001 3034.33C182.001 3050.02 182.001 3065.64 182.001 3081.17L206.001 3081.17ZM206.001 2987.42C206.001 2971.86 206.001 2956.22 206.001 2940.53L182.001 2940.53C182.001 2956.22 182.001 2971.86 182.001 2987.42L206.001 2987.42ZM206.001 2893.72C206.001 2878.14 206.001 2862.51 206.001 2846.84L182.001 2846.84C182.001 2862.51 182.001 2878.14 182.001 2893.72L206.001 2893.72ZM206.001 2799.93C206.001 2784.35 206.001 2768.74 206.001 2753.11L182.001 2753.11C182.001 2768.74 182.001 2784.35 182.001 2799.93L206.001 2799.93ZM206.001 2706.24C206.001 2690.63 206.001 2675 206.001 2659.36L182.001 2659.36C182.001 2675 182.001 2690.63 182.001 2706.24L206.001 2706.24ZM206.001 2612.5C206.001 2596.88 206.001 2581.25 206.001 2565.63L182.001 2565.63C182.001 2581.25 182.001 2596.88 182.001 2612.5L206.001 2612.5ZM206.001 2518.77C206.001 2503.14 206.001 2487.51 206.001 2471.91L182.001 2471.91C182.001 2487.51 182.001 2503.14 182.001 2518.77L206.001 2518.77ZM206.001 2425.02C206.001 2409.37 206.001 2393.76 206.001 2378.18L182.001 2378.18C182.001 2393.76 182.001 2409.37 182.001 2425.02L206.001 2425.02ZM206.001 2331.33C206.001 2315.63 206.001 2300.01 206.001 2284.42L182.001 2284.42C182.001 2300 182.001 2315.64 182.001 2331.33L206.001 2331.33ZM206.001 2237.56C206.001 2221.9 206.001 2206.3 206.001 2190.78L182.001 2190.78C182.001 2206.3 182.001 2221.9 182.001 2237.56L206.001 2237.56ZM206.001 2143.83C206.001 2128.11 206.001 2112.47 206.001 2096.94L182.001 2096.94C182.001 2112.47 182.001 2128.11 182.001 2143.83L206.001 2143.83ZM206.001 2050.13C206.001 2034.41 206.001 2018.8 206.001 2003.31L182.001 2003.31C182.001 2018.8 182.001 2034.41 182.001 2050.13L206.001 2050.13ZM206.001 1956.35C206.001 1940.57 206.001 1924.94 206.001 1909.45L182.001 1909.45C182.001 1924.94 182.001 1940.57 182.001 1956.35L206.001 1956.35ZM206.001 1862.64C206.001 1846.88 206.001 1831.3 206.001 1815.9L182.001 1815.9C182.001 1831.3 182.001 1846.88 182.001 1862.64L206.001 1862.64ZM206.001 1768.96C206.001 1753.08 206.001 1737.42 206.001 1722.01L182.001 1722.01C182.001 1737.42 182.001 1753.08 182.001 1768.96L206.001 1768.96ZM206.001 1675.1C206.001 1659.18 206.001 1643.54 206.001 1628.22L182.001 1628.22C182.001 1643.54 182.001 1659.18 182.001 1675.1L206.001 1675.1ZM206.001 1581.35C206.001 1565.33 206.001 1549.7 206.001 1534.48L182.001 1534.48C182.001 1549.7 182.001 1565.33 182.001 1581.35L206.001 1581.35ZM206.001 1487.59C206.001 1479.76 206.001 1472.06 206.001 1464.5H182.001C182.001 1472.06 182.001 1479.76 182.001 1487.59L206.001 1487.59ZM179 7108C179 7116.48 179.307 7124.77 179.911 7132.89L203.845 7131.11C203.286 7123.6 203 7115.9 203 7108H179ZM187.682 7182.21C191.824 7198.95 197.387 7214.72 204.238 7229.52L226.018 7219.44C219.821 7206.05 214.761 7191.72 210.98 7176.44L187.682 7182.21ZM229.848 7272.8C239.872 7286.38 251.17 7298.8 263.553 7310.04L279.687 7292.28C268.437 7282.06 258.212 7270.82 249.159 7258.55L229.848 7272.8ZM303.538 7340.13C317.522 7348.82 332.352 7356.39 347.857 7362.87L357.109 7340.73C342.723 7334.72 329.042 7327.72 316.205 7319.74L303.538 7340.13ZM394.874 7378.66C410.62 7382.77 426.835 7385.91 443.382 7388.08L446.508 7364.29C430.908 7362.24 415.675 7359.29 400.933 7355.44L394.874 7378.66ZM492.522 7391.7C508.75 7391.98 525.17 7391.41 541.668 7389.97L539.58 7366.06C523.902 7367.43 508.321 7367.97 492.948 7367.7L492.522 7391.7ZM590.326 7383.24C606.296 7380.21 622.242 7376.39 638.061 7371.75L631.317 7348.72C616.249 7353.13 601.064 7356.78 585.861 7359.66L590.326 7383.24ZM684.452 7355.68C699.567 7349.6 714.47 7342.76 729.063 7335.14L717.956 7313.86C704.074 7321.11 689.891 7327.63 675.498 7333.41L684.452 7355.68ZM771.427 7310.23C778.257 7305.73 784.989 7301.04 791.612 7296.17L777.388 7276.84C771.103 7281.46 764.712 7285.91 758.225 7290.18L771.427 7310.23ZM791.612 7296.17C798.783 7290.89 805.702 7285.69 812.38 7280.56L797.755 7261.53C791.215 7266.55 784.429 7271.66 777.388 7276.84L791.612 7296.17ZM852.937 7247.77C867.18 7235.61 880.015 7223.87 891.577 7212.51L874.756 7195.39C863.627 7206.32 851.209 7217.69 837.353 7229.52L852.937 7247.77ZM927.34 7173.92C939.841 7158.92 950.084 7144.6 958.451 7130.88L937.958 7118.39C930.263 7131.01 920.724 7144.37 908.902 7158.56L927.34 7173.92ZM981.697 7082.22C988.263 7063.22 991.444 7045.61 992.815 7029.11L968.898 7027.12C967.669 7041.9 964.841 7057.52 959.014 7074.38L981.697 7082.22ZM992.796 6976.13C992.382 6967.31 992 6959.06 992 6951H968C968 6959.71 968.412 6968.53 968.822 6977.26L992.796 6976.13ZM992 6951C992 6941.82 992.311 6935.17 992.472 6929.79L968.483 6929.08C968.332 6934.1 968 6941.35 968 6951H992ZM954.479 6895.63C945.066 6893.08 932.364 6889.06 915.308 6882L906.129 6904.17C924.145 6911.63 937.817 6915.98 948.203 6918.79L954.479 6895.63ZM877.014 6864.34C865.73 6858.67 853.236 6852.03 839.408 6844.24L827.625 6865.15C841.76 6873.11 854.591 6879.93 866.241 6885.79L877.014 6864.34ZM802.631 6822.64C796.743 6819.05 790.664 6815.29 784.387 6811.34L771.613 6831.66C777.982 6835.66 784.156 6839.48 790.142 6843.13L802.631 6822.64ZM784.387 6811.34C776.91 6806.64 769.431 6802.21 761.951 6798.02L750.241 6818.97C757.359 6822.95 764.484 6827.18 771.613 6831.66L784.387 6811.34ZM715.052 6775.03C698.608 6768.06 682.203 6762.22 665.872 6757.38L659.058 6780.4C674.536 6784.98 690.087 6790.52 705.686 6797.13L715.052 6775.03ZM615.066 6745.41C597.646 6742.32 580.366 6740.25 563.267 6739.06L561.603 6763.01C577.901 6764.14 594.335 6766.1 610.872 6769.04L615.066 6745.41ZM511.256 6737.99C493.729 6738.45 476.451 6739.7 459.469 6741.55L462.071 6765.41C478.464 6763.62 495.082 6762.43 511.886 6761.99L511.256 6737.99ZM408.289 6748.95C391.081 6752.01 374.245 6755.53 357.84 6759.31L363.231 6782.7C379.317 6778.99 395.75 6775.55 412.486 6772.58L408.289 6748.95ZM308.051 6771.73C291.05 6776.23 274.578 6780.8 258.818 6785.13L265.177 6808.27C281.01 6803.92 297.333 6799.39 314.195 6794.93L308.051 6771.73ZM209.87 6798.11C201.476 6800.19 193.354 6802.09 185.506 6803.76L190.495 6827.24C198.666 6825.5 207.058 6823.54 215.645 6821.41L209.87 6798.11ZM185.506 6803.76C177.245 6805.52 168.774 6807.49 160.108 6809.63L165.856 6832.93C174.324 6830.84 182.538 6828.93 190.495 6827.24L185.506 6803.76ZM110.048 6822.94C94.1761 6827.37 77.4928 6832.13 60.5315 6836.89L67.0117 6860C84.2115 6855.17 100.554 6850.51 116.495 6846.06L110.048 6822.94ZM11.0942 6850.37C-5.03951 6854.6 -21.5691 6858.73 -38.4747 6862.61L-33.1 6886C-15.9072 6882.05 0.864946 6877.86 17.1807 6873.58L11.0942 6850.37ZM-88.3147 6873.02C-104.75 6876.09 -121.486 6878.81 -138.504 6881.09L-135.318 6904.88C-117.855 6902.54 -100.712 6899.75 -83.9169 6896.62L-88.3147 6873.02ZM-188.919 6886.36C-205.56 6887.58 -222.434 6888.3 -239.523 6888.42L-239.362 6912.42C-221.705 6912.3 -204.295 6911.56 -187.155 6910.29L-188.919 6886.36ZM-290.018 6886.94C-306.581 6885.84 -323.325 6884.12 -340.233 6881.68L-343.661 6905.43C-326.119 6907.96 -308.76 6909.75 -291.604 6910.89L-290.018 6886.94ZM-389.873 6872.49C-398.007 6870.64 -406.177 6868.62 -414.379 6866.41L-420.621 6889.59C-412.106 6891.88 -403.625 6893.98 -395.18 6895.89L-389.873 6872.49ZM-414.379 6866.41C-421.87 6864.4 -429.118 6861.82 -436.127 6858.72L-445.841 6880.66C-437.725 6884.25 -429.317 6887.24 -420.621 6889.59L-414.379 6866.41ZM-475.335 6834.06C-486.97 6824.33 -497.79 6812.87 -507.769 6799.89L-526.796 6814.52C-515.873 6828.73 -503.859 6841.49 -490.731 6852.47L-475.335 6834.06ZM-533.571 6759.58C-540.921 6745.85 -547.576 6731.14 -553.523 6715.63L-575.932 6724.23C-569.66 6740.58 -562.597 6756.21 -554.73 6770.91L-533.571 6759.58ZM-568.537 6669.43C-572.733 6654 -576.319 6638.07 -579.29 6621.77L-602.901 6626.07C-599.814 6643.01 -596.081 6659.61 -591.696 6675.73L-568.537 6669.43ZM-586.207 6573.36C-587.903 6557.21 -589.031 6540.88 -589.589 6524.47L-613.575 6525.29C-612.998 6542.25 -611.831 6559.15 -610.075 6575.86L-586.207 6573.36ZM-589.566 6475.46C-588.992 6459.06 -587.848 6442.72 -586.136 6426.58L-610.002 6424.04C-611.775 6440.76 -612.957 6457.66 -613.551 6474.62L-589.566 6475.46ZM-579.173 6378.18C-576.186 6361.89 -572.584 6345.95 -568.37 6330.52L-591.523 6324.2C-595.925 6340.33 -599.676 6356.93 -602.78 6373.85L-579.173 6378.18ZM-553.305 6284.32C-547.35 6268.83 -540.688 6254.14 -533.329 6240.41L-554.483 6229.07C-562.356 6243.77 -569.426 6259.38 -575.706 6275.71L-553.305 6284.32ZM-507.513 6200.08C-497.545 6187.1 -486.736 6175.62 -475.109 6165.83L-490.561 6147.47C-503.658 6158.49 -515.645 6171.27 -526.549 6185.47L-507.513 6200.08ZM-435.973 6140.95C-428.977 6137.79 -421.742 6135.15 -414.265 6133.06L-420.734 6109.94C-429.395 6112.37 -437.768 6115.43 -445.849 6119.08L-435.973 6140.95ZM-414.265 6133.06C-406.884 6130.99 -399.531 6129.16 -392.209 6127.55L-397.363 6104.11C-405.126 6105.81 -412.917 6107.76 -420.734 6109.94L-414.265 6133.06ZM-347.359 6120.34C-332.087 6118.78 -316.946 6118.11 -301.946 6118.26L-301.707 6094.27C-317.574 6094.11 -333.612 6094.81 -349.805 6096.47L-347.359 6120.34ZM-256.5 6121.15C-241.326 6122.9 -226.306 6125.42 -211.454 6128.59L-206.439 6105.12C-221.989 6101.8 -237.762 6099.16 -253.74 6097.31L-256.5 6121.15ZM-167.116 6140.07C-152.437 6144.52 -137.948 6149.53 -123.659 6155.01L-115.077 6132.59C-129.852 6126.93 -144.885 6121.73 -160.157 6117.11L-167.116 6140.07ZM-81.1467 6172.81C-67.0367 6179.2 -53.1581 6185.96 -39.5242 6192.95L-28.5677 6171.6C-42.5046 6164.45 -56.7349 6157.52 -71.2401 6150.95L-81.1467 6172.81ZM1.31266 6214.94C15.0117 6222.63 28.4185 6230.46 41.5215 6238.28L53.8275 6217.68C40.5867 6209.77 26.9915 6201.83 13.0664 6194.01L1.31266 6214.94ZM81.3733 6262.53C95.011 6270.94 108.399 6279.27 121.234 6287.15L133.8 6266.71C120.945 6258.81 107.754 6250.6 93.971 6242.1L81.3733 6262.53ZM161.655 6311.43C168.667 6315.5 175.54 6319.38 182.265 6323.04L193.736 6301.96C187.24 6298.42 180.559 6294.65 173.696 6290.67L161.655 6311.43ZM182.265 6323.04C189.036 6326.73 196.125 6330.56 203.507 6334.51L214.822 6313.34C207.509 6309.43 200.475 6305.63 193.736 6301.96L182.265 6323.04ZM246.653 6356.94C260.611 6363.96 275.276 6371.08 290.549 6378.12L300.594 6356.32C285.605 6349.41 271.188 6342.41 257.436 6335.49L246.653 6356.94ZM335.267 6397.63C350.079 6403.72 365.32 6409.6 380.918 6415.13L388.935 6392.51C373.745 6387.13 358.875 6381.39 344.393 6375.44L335.267 6397.63ZM427.554 6430.18C443.168 6434.71 459.056 6438.8 475.149 6442.3L480.257 6418.85C464.738 6415.47 449.379 6411.53 434.242 6407.13L427.554 6430.18ZM523.624 6450.92C539.894 6453.13 556.31 6454.66 572.807 6455.37L573.847 6431.39C558.137 6430.71 542.455 6429.26 526.86 6427.13L523.624 6450.92ZM622.342 6454.96C638.789 6453.94 655.253 6452 671.669 6449.02L667.377 6425.41C651.939 6428.21 636.414 6430.05 620.857 6431.01L622.342 6454.96ZM720.009 6437.04C735.619 6432.08 751.113 6426.06 766.43 6418.86L756.221 6397.14C741.88 6403.88 727.372 6409.52 712.748 6414.16L720.009 6437.04ZM810.039 6394.76C816.943 6390.34 823.794 6385.65 830.586 6380.68L816.414 6361.32C810.022 6365.99 803.583 6370.4 797.101 6374.55L810.039 6394.76ZM830.586 6380.68C837.135 6375.89 843.5 6370.91 849.682 6365.74L834.286 6347.33C828.498 6352.17 822.541 6356.83 816.414 6361.32L830.586 6380.68ZM884.777 6332.36C895.751 6320.52 905.966 6308.02 915.42 6294.95L895.972 6280.88C887.072 6293.19 877.471 6304.94 867.174 6316.05L884.777 6332.36ZM941.402 6254.25C949.244 6240.28 956.337 6225.84 962.679 6211L940.609 6201.57C934.597 6215.64 927.883 6229.31 920.474 6242.51L941.402 6254.25ZM979.306 6165.82C984.06 6150.59 988.09 6135.05 991.391 6119.28L967.901 6114.36C964.754 6129.39 960.916 6144.19 956.396 6158.67L979.306 6165.82ZM999.051 6071.87C1000.87 6056.05 1001.99 6040.07 1002.4 6024.01L978.41 6023.39C978.017 6038.75 976.948 6054.02 975.209 6069.13L999.051 6071.87ZM1001.53 5976.04C1000.55 5960.13 998.881 5944.21 996.514 5928.34L972.777 5931.88C975.042 5947.06 976.641 5962.3 977.58 5977.52L1001.53 5976.04ZM987.386 5881.25C983.672 5865.73 979.274 5850.34 974.185 5835.13L951.425 5842.74C956.288 5857.28 960.494 5872 964.045 5886.83L987.386 5881.25ZM956.94 5790.33C950.542 5775.71 943.461 5761.33 935.694 5747.26L914.682 5758.86C922.089 5772.27 928.845 5785.99 934.954 5799.95L956.94 5790.33ZM910.533 5706.33C901.555 5693.16 891.909 5680.35 881.59 5667.96L863.149 5683.32C872.968 5695.11 882.151 5707.3 890.703 5719.85L910.533 5706.33ZM849.047 5632.54C843.36 5626.93 837.511 5621.43 831.5 5616.06L815.5 5633.94C821.216 5639.06 826.779 5644.29 832.189 5649.63L849.047 5632.54ZM831.5 5616.06C825.091 5610.32 818.645 5604.87 812.166 5599.7L797.188 5618.45C803.312 5623.34 809.417 5628.5 815.5 5633.94L831.5 5616.06ZM770.743 5570.53C755.863 5561.39 740.865 5553.56 725.791 5546.93L716.131 5568.9C730.197 5575.09 744.227 5582.41 758.184 5590.98L770.743 5570.53ZM677.91 5529.85C661.296 5525.24 644.672 5521.94 628.096 5519.79L625.013 5543.59C640.504 5545.6 656.012 5548.68 671.492 5552.98L677.91 5529.85ZM577.451 5516.66C560.486 5516.72 543.646 5517.84 526.992 5519.85L529.867 5543.67C545.664 5541.77 561.568 5540.71 577.529 5540.66L577.451 5516.66ZM477.368 5528.43C460.958 5532.1 444.789 5536.5 428.925 5541.46L436.084 5564.36C451.379 5559.58 466.903 5555.36 482.601 5551.85L477.368 5528.43ZM381.748 5558.04C366.04 5564.15 350.708 5570.67 335.82 5577.41L345.717 5599.27C360.265 5592.69 375.195 5586.34 390.446 5580.41L381.748 5558.04ZM291.046 5598.85C275.759 5606.54 261.077 5614.27 247.099 5621.77L258.452 5642.91C272.31 5635.47 286.793 5627.86 301.831 5620.29L291.046 5598.85ZM203.801 5645.32C196.347 5649.38 189.197 5653.26 182.355 5656.91L193.647 5678.09C200.589 5674.39 207.816 5670.47 215.292 5666.39L203.801 5645.32ZM182.355 5656.91C175.898 5660.35 169.238 5663.85 162.384 5667.38L173.376 5688.72C180.341 5685.13 187.102 5681.58 193.647 5678.09L182.355 5656.91ZM121.877 5687.4C108.667 5693.64 94.9321 5699.82 80.731 5705.82L90.0614 5727.93C104.603 5721.79 118.644 5715.47 132.122 5709.11L121.877 5687.4ZM38.8767 5722.32C25.0123 5727.4 10.8062 5732.2 -3.69414 5736.61L3.29688 5759.57C18.2531 5755.02 32.8795 5750.07 47.1262 5744.86L38.8767 5722.32ZM-46.964 5748.35C-61.367 5751.76 -75.9924 5754.73 -90.799 5757.15L-86.923 5780.84C-71.5227 5778.32 -56.3422 5775.24 -41.426 5771.7L-46.964 5748.35ZM-135.071 5762.65C-149.78 5763.87 -164.619 5764.5 -179.55 5764.44L-179.645 5788.44C-163.979 5788.5 -148.442 5787.84 -133.075 5786.56L-135.071 5762.65ZM-223.92 5762.19C-238.5 5760.74 -253.135 5758.58 -267.792 5755.62L-272.543 5779.15C-257.07 5782.27 -241.638 5784.55 -226.285 5786.07L-223.92 5762.19ZM-310.7 5744.62C-324.555 5740.28 -338.408 5735.17 -352.234 5729.21L-361.738 5751.25C-347.139 5757.54 -332.504 5762.95 -317.864 5767.52L-310.7 5744.62ZM-392.015 5709.6C-398.407 5706.04 -404.789 5702.28 -411.158 5698.31L-423.841 5718.69C-417.144 5722.86 -410.427 5726.81 -403.694 5730.56L-392.015 5709.6ZM-411.158 5698.31C-417.923 5694.1 -424.451 5689.6 -430.745 5684.84L-445.235 5703.97C-438.366 5709.17 -431.235 5714.08 -423.841 5718.69L-411.158 5698.31ZM-465.99 5652.86C-476.757 5641.24 -486.61 5628.68 -495.561 5615.3L-515.508 5628.65C-505.892 5643.02 -495.262 5656.58 -483.589 5669.17L-465.99 5652.86ZM-519.379 5573.57C-526.31 5559.26 -532.408 5544.33 -537.682 5528.91L-560.39 5536.68C-554.819 5552.96 -548.357 5568.8 -540.98 5584.03L-519.379 5573.57ZM-550.829 5482.29C-554.369 5466.62 -557.147 5450.63 -559.175 5434.45L-582.989 5437.44C-580.867 5454.36 -577.957 5471.12 -574.239 5487.58L-550.829 5482.29ZM-563.007 5385.97C-563.555 5369.75 -563.384 5353.48 -562.508 5337.28L-586.473 5335.99C-587.386 5352.88 -587.565 5369.86 -586.993 5386.78L-563.007 5385.97ZM-557.754 5288.83C-555.444 5272.65 -552.423 5256.67 -548.709 5241.03L-572.06 5235.48C-575.946 5251.85 -579.102 5268.55 -581.513 5285.43L-557.754 5288.83ZM-535.219 5194.38C-529.877 5178.87 -523.801 5163.87 -517.014 5149.53L-538.707 5139.27C-545.891 5154.44 -552.296 5170.26 -557.912 5186.57L-535.219 5194.38ZM-493.727 5107.36C-484.904 5093.61 -475.305 5080.81 -464.963 5069.11L-482.942 5053.22C-494.157 5065.9 -504.489 5079.69 -513.925 5094.39L-493.727 5107.36ZM-430.486 5036.52C-424.237 5031.65 -417.79 5027.13 -411.149 5022.99L-423.85 5002.63C-431.222 5007.23 -438.353 5012.22 -445.241 5017.59L-430.486 5036.52ZM-411.149 5022.99C-404.847 5019.06 -398.534 5015.35 -392.211 5011.87L-403.803 4990.85C-410.505 4994.55 -417.188 4998.47 -423.85 5002.63L-411.149 5022.99ZM-352.706 4992.88C-338.96 4987.23 -325.168 4982.5 -311.34 4978.64L-317.794 4955.53C-332.527 4959.64 -347.215 4964.67 -361.842 4970.69L-352.706 4992.88ZM-268.591 4969.39C-254.091 4967.12 -239.549 4965.72 -224.975 4965.08L-226.016 4941.11C-241.442 4941.78 -256.873 4943.27 -272.29 4945.67L-268.591 4969.39ZM-181.02 4965.44C-166.41 4966.28 -151.778 4967.82 -137.135 4969.97L-133.641 4946.23C-148.934 4943.98 -164.273 4942.37 -179.638 4941.48L-181.02 4965.44ZM-93.6208 4978.12C-79.277 4981.35 -64.9418 4985.1 -50.6273 4989.29L-43.8806 4966.26C-58.6371 4961.94 -73.4636 4958.06 -88.3434 4954.71L-93.6208 4978.12ZM-8.20943 5002.97C5.7816 5007.87 19.7329 5013.13 33.6331 5018.66L42.5121 4996.36C28.3352 4990.72 14.068 4985.34 -0.27382 4980.32L-8.20943 5002.97ZM74.959 5035.95C88.6678 5041.94 102.307 5048.13 115.866 5054.45L126.013 5032.7C112.305 5026.31 98.4846 5020.03 84.567 5013.95L74.959 5035.95ZM156.465 5073.84C163.232 5077.13 169.973 5080.44 176.688 5083.76L187.313 5062.24C180.566 5058.91 173.785 5055.58 166.973 5052.26L156.465 5073.84ZM176.688 5083.76C184.515 5087.62 192.274 5091.43 199.967 5095.17L210.467 5073.59C202.823 5069.87 195.107 5066.09 187.313 5062.24L176.688 5083.76ZM246.79 5117.45C262.892 5124.9 278.732 5131.98 294.339 5138.59L303.707 5116.5C288.385 5110 272.786 5103.04 256.87 5095.67L246.79 5117.45ZM342.888 5157.86C359.718 5164.04 376.327 5169.54 392.758 5174.26L399.386 5151.2C383.585 5146.66 367.525 5141.34 351.152 5135.33L342.888 5157.86ZM444.172 5186.44C461.894 5189.66 479.474 5191.79 496.968 5192.66L498.152 5168.69C481.808 5167.88 465.272 5165.88 448.473 5162.82L444.172 5186.44ZM550.43 5191.16C568.022 5189.24 585.545 5185.86 603.055 5180.85L596.458 5157.78C580.277 5162.4 564.091 5165.53 547.826 5167.31L550.43 5191.16ZM653.1 5162.01C661.02 5158.29 668.939 5154.22 676.865 5149.78L665.135 5128.84C657.698 5133.01 650.29 5136.82 642.904 5140.28L653.1 5162.01ZM676.865 5149.78C684.229 5145.65 691.209 5140.71 697.81 5135.07L682.212 5116.83C676.705 5121.54 671.011 5125.55 665.135 5128.84L676.865 5149.78ZM730.511 5097.34C739.083 5084.45 746.787 5070.07 753.656 5054.53L731.704 5044.83C725.296 5059.33 718.225 5072.48 710.527 5084.05L730.511 5097.34ZM770.361 5009.46C774.931 4994.69 778.94 4979.22 782.394 4963.23L758.935 4958.17C755.615 4973.53 751.778 4988.32 747.433 5002.37L770.361 5009.46ZM790.736 4916.44C792.944 4901.01 794.691 4885.26 795.979 4869.32L772.057 4867.39C770.807 4882.86 769.113 4898.12 766.978 4913.04L790.736 4916.44ZM798.443 4821.99C798.82 4806.23 798.762 4790.4 798.27 4774.63L774.281 4775.37C774.76 4790.71 774.816 4806.09 774.45 4821.41L798.443 4821.99ZM795.462 4727.31C794.061 4711.39 792.202 4695.64 789.882 4680.19L766.148 4683.75C768.392 4698.7 770.194 4713.97 771.555 4729.42L795.462 4727.31ZM781.232 4633.46C777.693 4617.57 773.609 4602.15 768.971 4587.39L746.074 4594.58C750.49 4608.64 754.401 4623.39 757.805 4638.68L781.232 4633.46ZM752.162 4542.41C745.318 4526.94 737.67 4512.54 729.19 4499.53L709.082 4512.63C716.756 4524.41 723.809 4537.64 730.214 4552.12L752.162 4542.41ZM697.501 4461.4C691.167 4455.58 684.489 4450.38 677.459 4445.89L664.541 4466.11C670.297 4469.79 675.873 4474.12 681.263 4479.07L697.501 4461.4ZM677.459 4445.89C670.153 4441.22 662.741 4436.93 655.236 4433L644.103 4454.27C651.005 4457.88 657.821 4461.82 664.541 4466.11L677.459 4445.89ZM608.04 4413.16C591.722 4407.84 575.156 4403.89 558.474 4401.11L554.526 4424.78C570.117 4427.39 585.507 4431.06 600.597 4435.98L608.04 4413.16ZM507.983 4396.04C491.12 4395.38 474.256 4395.69 457.518 4396.75L459.033 4420.7C475.052 4419.69 491.093 4419.4 507.049 4420.02L507.983 4396.04ZM407.575 4402.01C390.888 4404.42 374.435 4407.39 358.347 4410.73L363.219 4434.23C378.907 4430.98 394.874 4428.09 411.004 4425.76L407.575 4402.01ZM309.853 4421.96C293.265 4426.15 277.241 4430.52 261.969 4434.78L268.418 4457.9C283.6 4453.66 299.417 4449.35 315.738 4445.22L309.853 4421.96ZM214.589 4448.08C206.366 4450.35 198.508 4452.46 191.032 4454.37L196.969 4477.63C204.649 4475.67 212.669 4473.51 220.976 4471.21L214.589 4448.08ZM191.032 4454.37C183.961 4456.18 175.769 4458.32 166.675 4460.68L172.714 4483.91C181.846 4481.53 189.964 4479.42 196.969 4477.63L191.032 4454.37ZM117.861 4473.13C102.647 4476.9 86.2437 4480.84 68.9974 4484.74L74.2999 4508.15C91.7346 4504.2 108.298 4500.22 123.632 4496.42L117.861 4473.13ZM19.9278 4495.22C3.81503 4498.43 -12.6862 4501.48 -29.3459 4504.24L-25.4238 4527.92C-8.47368 4525.11 8.28656 4522.01 24.6209 4518.75L19.9278 4495.22ZM-78.7908 4511.42C-95.4832 4513.47 -112.085 4515.1 -128.372 4516.19L-126.772 4540.14C-109.98 4539.02 -92.9308 4537.34 -75.8614 4535.24L-78.7908 4511.42ZM-177.88 4517.68C-195.039 4517.48 -211.435 4516.44 -226.774 4514.41L-229.926 4538.2C-213.461 4540.38 -196.088 4541.47 -178.16 4541.68L-177.88 4517.68ZM-273.465 4503.79C-281.162 4501.09 -288.276 4497.99 -294.765 4494.46L-306.235 4515.54C-298.472 4519.76 -290.155 4523.37 -281.395 4526.44L-273.465 4503.79ZM-294.765 4494.46C-300.938 4491.1 -306.745 4487.45 -312.191 4483.56L-326.158 4503.08C-319.906 4507.55 -313.264 4511.72 -306.235 4515.54L-294.765 4494.46ZM-342.003 4455.75C-350.829 4445 -357.941 4433.34 -363.359 4421.14L-385.293 4430.88C-379.014 4445.02 -370.772 4458.54 -360.548 4470.98L-342.003 4455.75ZM-374.744 4382.08C-376.787 4368.53 -376.982 4354.82 -375.357 4341.42L-399.182 4338.53C-401.069 4354.1 -400.84 4369.97 -398.476 4385.66L-374.744 4382.08ZM-364.929 4302.28C-359.667 4289.94 -352.62 4278.36 -343.82 4267.96L-362.137 4252.46C-372.54 4264.74 -380.834 4278.39 -387.006 4292.86L-364.929 4302.28ZM-313.457 4241.55C-307.879 4238.01 -301.921 4234.79 -295.582 4231.95L-305.418 4210.05C-312.795 4213.37 -319.764 4217.13 -326.318 4221.29L-313.457 4241.55ZM-295.582 4231.95C-288.22 4228.64 -280.882 4226.46 -273.494 4225.24L-277.413 4201.56C-286.85 4203.12 -296.177 4205.9 -305.418 4210.05L-295.582 4231.95ZM-226.546 4228.47C-211.826 4232.31 -196.312 4238.46 -179.601 4246.27L-169.435 4224.53C-186.829 4216.4 -203.807 4209.6 -220.487 4205.25L-226.546 4228.47ZM-133.45 4269.74C-118.765 4277.56 -103.225 4285.95 -86.9408 4294.35L-75.9375 4273.02C-92.0396 4264.71 -107.328 4256.46 -122.175 4248.56L-133.45 4269.74ZM-39.243 4317.59C-23.5521 4324.69 -7.12443 4331.54 10.1181 4337.82L18.3304 4315.27C1.75064 4309.23 -14.108 4302.63 -29.3391 4295.73L-39.243 4317.59ZM61.244 4353.85C78.0136 4358.25 95.4826 4361.97 113.709 4364.81L117.408 4341.1C100.03 4338.39 83.3585 4334.84 67.3306 4330.63L61.244 4353.85ZM167.141 4370.32C175.934 4370.77 184.885 4371 194.001 4371V4347C185.294 4347 176.749 4346.78 168.361 4346.35L167.141 4370.32ZM194.001 4371C202.393 4371 210.605 4370.69 218.636 4370.1L216.853 4346.16C209.428 4346.72 201.81 4347 194.001 4347V4371ZM267.127 4362.49C283.61 4358.44 299.121 4353.03 313.646 4346.4L303.685 4324.57C290.542 4330.56 276.452 4335.49 261.405 4339.18L267.127 4362.49ZM356.449 4321.47C369.99 4311.65 382.306 4300.61 393.395 4288.59L375.755 4272.32C365.71 4283.21 354.576 4293.18 342.355 4302.04L356.449 4321.47ZM423.272 4249.34C431.967 4235.42 439.405 4220.74 445.593 4205.53L423.361 4196.49C417.671 4210.48 410.853 4223.92 402.917 4236.63L423.272 4249.34ZM460.357 4158.77C464.029 4142.88 466.486 4126.68 467.731 4110.38L443.801 4108.56C442.646 4123.67 440.369 4138.67 436.973 4153.36L460.357 4158.77ZM467.834 4061.48C466.656 4045.16 464.261 4028.95 460.643 4013.05L437.241 4018.38C440.585 4033.07 442.805 4048.08 443.897 4063.2L467.834 4061.48ZM445.992 3966.24C439.826 3951.01 432.393 3936.31 423.683 3922.39L403.336 3935.12C411.276 3947.81 418.082 3961.25 423.745 3975.24L445.992 3966.24ZM393.716 3883.18C382.597 3871.2 370.233 3860.21 356.624 3850.44L342.626 3869.93C354.9 3878.75 366.066 3888.67 376.127 3899.51L393.716 3883.18ZM313.691 3825.73C299.151 3819.19 283.619 3813.84 267.104 3809.86L261.472 3833.19C276.564 3836.83 290.683 3841.69 303.842 3847.62L313.691 3825.73ZM218.629 3802.39C210.602 3801.8 202.393 3801.5 194.001 3801.5V3825.5C201.821 3825.5 209.447 3825.78 216.879 3826.32L218.629 3802.39ZM194.001 3801.5C185.609 3801.5 177.399 3801.8 169.372 3802.39L171.123 3826.32C178.554 3825.78 186.18 3825.5 194.001 3825.5V3801.5ZM120.897 3809.86C104.382 3813.85 88.85 3819.19 74.3102 3825.73L84.1589 3847.62C97.3181 3841.69 111.437 3836.83 126.529 3833.19L120.897 3809.86ZM31.3771 3850.44C17.7681 3860.21 5.40462 3871.2 -5.71442 3883.18L11.8744 3899.51C21.9349 3888.67 33.1008 3878.75 45.3753 3869.93L31.3771 3850.44ZM-35.6817 3922.39C-44.3921 3936.31 -51.8247 3951.01 -57.9905 3966.24L-35.7442 3975.24C-30.0804 3961.25 -23.2751 3947.81 -15.3351 3935.12L-35.6817 3922.39ZM-72.6415 4013.05C-76.2601 4028.95 -78.6551 4045.16 -79.833 4061.48L-55.8953 4063.2C-54.8033 4048.08 -52.5842 4033.07 -49.2401 4018.38L-72.6415 4013.05ZM-79.7296 4110.38C-78.4847 4126.68 -76.0273 4142.88 -72.3557 4158.77L-48.9721 4153.36C-52.3673 4138.67 -54.6449 4123.67 -55.7993 4108.56L-79.7296 4110.38ZM-57.5915 4205.53C-51.4036 4220.74 -43.9655 4235.42 -35.2707 4249.34L-14.9159 4236.63C-22.8517 4223.92 -29.67 4210.48 -35.3601 4196.49L-57.5915 4205.53ZM-5.39327 4288.59C5.69532 4300.61 18.0115 4311.65 31.5528 4321.47L45.646 4302.04C33.425 4293.18 22.2912 4283.21 12.2462 4272.32L-5.39327 4288.59ZM74.355 4346.4C88.8808 4353.03 104.392 4358.44 120.874 4362.49L126.596 4339.18C111.549 4335.49 97.4594 4330.56 84.3168 4324.57L74.355 4346.4ZM169.365 4370.1C177.396 4370.69 185.608 4371 194.001 4371V4347C186.191 4347 178.574 4346.72 171.149 4346.16L169.365 4370.1Z" fill="black"/>
</g>
<defs>
<clipPath id="clip0_296_13">
<rect width="390" height="8497" fill="white"/>
</clipPath>
</defs>
</svg>
