<svg width="256" height="256" viewBox="0 0 256 256" fill="none" xmlns="http://www.w3.org/2000/svg">
<g filter="url(#filter0_i_335_84)">
<path d="M130.386 207.198C128.977 208.273 127.021 208.273 125.613 207.198C82.1867 174.048 50.5012 130.095 49.0519 74.2473C48.9945 72.0389 50.7909 70.2405 53 70.2405L70.2499 70.2405C72.459 70.2405 74.2499 68.4496 74.2499 66.2405L74.2498 51C74.2498 48.7909 76.0407 47 78.2498 47L177.094 47C179.303 47 181.094 48.7908 181.094 51L181.094 66.2405C181.094 68.4496 182.885 70.2405 185.094 70.2405L203 70.2405C205.209 70.2405 207.005 72.0394 206.949 74.2478C205.506 130.404 173.818 174.056 130.386 207.198Z" fill="#000811"/>
</g>
<path d="M185.094 75.2405L201.917 75.2405C200.147 128.549 170.086 170.421 127.999 202.728C85.9258 170.416 55.863 128.254 54.0836 75.2405L70.2499 75.2405C75.2204 75.2405 79.2499 71.2111 79.2499 66.2405L79.2498 52L176.094 52L176.094 66.2405C176.094 71.2111 180.124 75.2405 185.094 75.2405Z" stroke="#8C7336" stroke-width="10"/>
<g filter="url(#filter1_d_335_84)">
<path d="M139.95 96.6678L149.34 106.058L119.891 135.507L110.501 126.117L139.95 96.6678Z" fill="#CBC2AA"/>
<path d="M161.264 72.7401L149.958 69.5879L135.035 84.5112L140.804 105.204L161.497 110.973L176.42 96.0497L173.268 84.7442L161.197 96.8156L149.193 84.8116L161.264 72.7401Z" fill="#CBC2AA"/>
<path fill-rule="evenodd" clip-rule="evenodd" d="M90.8682 155.14C98.1755 162.447 110.023 162.447 117.33 155.14C124.637 147.833 124.637 135.985 117.33 128.678C110.023 121.371 98.1754 121.371 90.8682 128.678C83.5609 135.985 83.5608 147.832 90.8682 155.14ZM113.347 134.986L113.489 132.519L111.022 132.661L110.463 130.254L108.136 131.085L106.922 128.933L104.923 130.386L103.152 128.664L101.643 130.62L99.4586 129.467L98.5626 131.77L96.1411 131.278L95.9302 133.74L93.4686 133.951L93.9597 136.372L91.6574 137.268L92.8104 139.453L90.8537 140.961L92.5757 142.733L91.1234 144.731L93.2747 145.946L92.4443 148.273L94.8508 148.832L94.7094 151.299L97.1757 151.157L97.7352 153.564L100.062 152.733L101.277 154.885L103.275 153.432L105.047 155.154L106.555 153.198L108.74 154.351L109.636 152.048L112.057 152.539L112.268 150.078L114.73 149.867L114.238 147.445L116.541 146.549L115.388 144.365L117.344 142.856L115.622 141.085L117.075 139.086L114.923 137.872L115.754 135.545L113.347 134.986Z" fill="#CBC2AA"/>
<path d="M106.232 99.9768L115.622 90.5872L171.96 146.925L162.571 156.315L106.232 99.9768Z" fill="#CBC2AA"/>
<path d="M69.1281 98.4353L75.7599 91.8039L80.0715 91.8248L82.217 89.6794L80.9529 84.172L98.3409 66.8958L120.403 69.4476L131.682 80.2013L121.72 80.2647L121.656 90.2273L104.268 107.504L98.4804 105.943L96.335 108.088L96.359 112.307L89.7272 118.938L69.1281 98.4353Z" fill="#CBC2AA"/>
</g>
<path d="M139.95 96.6678L149.34 106.058L119.891 135.507L110.501 126.117L139.95 96.6678Z" fill="#CBC2AA"/>
<path d="M161.264 72.7401L149.958 69.5879L135.035 84.5112L140.804 105.204L161.497 110.973L176.42 96.0497L173.268 84.7442L161.197 96.8156L149.193 84.8116L161.264 72.7401Z" fill="#CBC2AA"/>
<path fill-rule="evenodd" clip-rule="evenodd" d="M90.8682 155.14C98.1755 162.447 110.023 162.447 117.33 155.14C124.637 147.833 124.637 135.985 117.33 128.678C110.023 121.371 98.1754 121.371 90.8682 128.678C83.5609 135.985 83.5608 147.832 90.8682 155.14ZM113.347 134.986L113.489 132.519L111.022 132.661L110.463 130.254L108.136 131.085L106.922 128.933L104.923 130.386L103.152 128.664L101.643 130.62L99.4586 129.467L98.5626 131.77L96.1411 131.278L95.9302 133.74L93.4686 133.951L93.9597 136.372L91.6574 137.268L92.8104 139.453L90.8537 140.961L92.5757 142.733L91.1234 144.731L93.2747 145.946L92.4443 148.273L94.8508 148.832L94.7094 151.299L97.1757 151.157L97.7352 153.564L100.062 152.733L101.277 154.885L103.275 153.432L105.047 155.154L106.555 153.198L108.74 154.351L109.636 152.048L112.057 152.539L112.268 150.078L114.73 149.867L114.238 147.445L116.541 146.549L115.388 144.365L117.344 142.856L115.622 141.085L117.075 139.086L114.923 137.872L115.754 135.545L113.347 134.986Z" fill="#CBC2AA"/>
<path d="M106.232 99.9768L115.622 90.5872L171.96 146.925L162.571 156.315L106.232 99.9768Z" fill="#CBC2AA"/>
<path d="M69.1281 98.4353L75.7599 91.8039L80.0715 91.8248L82.217 89.6794L80.9529 84.172L98.3409 66.8958L120.403 69.4476L131.682 80.2013L121.72 80.2647L121.656 90.2273L104.268 107.504L98.4804 105.943L96.335 108.088L96.359 112.307L89.7272 118.938L69.1281 98.4353Z" fill="#CBC2AA"/>
<defs>
<filter id="filter0_i_335_84" x="49.0508" y="47" width="157.899" height="161.004" filterUnits="userSpaceOnUse" color-interpolation-filters="sRGB">
<feFlood flood-opacity="0" result="BackgroundImageFix"/>
<feBlend mode="normal" in="SourceGraphic" in2="BackgroundImageFix" result="shape"/>
<feColorMatrix in="SourceAlpha" type="matrix" values="0 0 0 0 0 0 0 0 0 0 0 0 0 0 0 0 0 0 127 0" result="hardAlpha"/>
<feOffset/>
<feGaussianBlur stdDeviation="12"/>
<feComposite in2="hardAlpha" operator="arithmetic" k2="-1" k3="1"/>
<feColorMatrix type="matrix" values="0 0 0 0 1 0 0 0 0 1 0 0 0 0 1 0 0 0 1 0"/>
<feBlend mode="normal" in2="shape" result="effect1_innerShadow_335_84"/>
</filter>
<filter id="filter1_d_335_84" x="63.1279" y="60.8958" width="119.292" height="105.725" filterUnits="userSpaceOnUse" color-interpolation-filters="sRGB">
<feFlood flood-opacity="0" result="BackgroundImageFix"/>
<feColorMatrix in="SourceAlpha" type="matrix" values="0 0 0 0 0 0 0 0 0 0 0 0 0 0 0 0 0 0 127 0" result="hardAlpha"/>
<feOffset/>
<feGaussianBlur stdDeviation="3"/>
<feComposite in2="hardAlpha" operator="out"/>
<feColorMatrix type="matrix" values="0 0 0 0 1 0 0 0 0 1 0 0 0 0 1 0 0 0 1 0"/>
<feBlend mode="normal" in2="BackgroundImageFix" result="effect1_dropShadow_335_84"/>
<feBlend mode="normal" in="SourceGraphic" in2="effect1_dropShadow_335_84" result="shape"/>
</filter>
</defs>
</svg>
