<svg width="1024" height="512" viewBox="0 0 1024 512" fill="none" xmlns="http://www.w3.org/2000/svg">
<path fill-rule="evenodd" clip-rule="evenodd" d="M187.52 154H33.9451C20.7334 154 10.0182 164.701 10.0002 177.912V331.262C9.97465 337.629 12.486 343.744 16.9793 348.256C21.4726 352.767 27.5778 355.303 33.9451 355.303H187.52C193.882 355.295 199.979 352.755 204.465 348.244C208.952 343.734 211.459 337.624 211.433 331.262V177.912C211.415 164.713 200.719 154.018 187.52 154V154ZM96.8726 298.991C96.864 301.12 96.0082 303.157 94.4943 304.652C92.9804 306.148 90.9331 306.979 88.8049 306.962H55.2436C50.8541 306.944 47.3051 303.381 47.3051 298.991V199.114C47.3051 194.725 50.8541 191.161 55.2436 191.143H88.8049C93.1997 191.161 96.7581 194.719 96.7757 199.114L96.8726 298.991ZM174.322 253.135C174.322 255.266 173.469 257.308 171.953 258.806C170.437 260.303 168.385 261.132 166.254 261.106H132.693C128.298 261.088 124.74 257.53 124.722 253.135V199.114C124.74 194.719 128.298 191.161 132.693 191.143H166.254C170.644 191.161 174.193 194.725 174.193 199.114L174.322 253.135Z" fill="url(#paint0_linear_420_26)"/>
<path d="M427.389 168.749V207.667H381.275V355.304H336.806V207.667H290.691V168.749H427.389Z" fill="#293856"/>
<path d="M483.988 355.304H442.875V210.087H483.988V237.904C491.797 218.316 504.286 206.666 526.52 208.086V251.102C497.477 248.843 483.988 255.943 483.988 279.21V355.304Z" fill="#293856"/>
<path d="M751.13 356.433C724.184 356.433 707.242 343.525 707.242 312.997V154H748.645V307.317C748.645 316.127 754.454 319.257 761.553 319.257C763.601 319.299 765.65 319.202 767.685 318.967V354.755C762.27 356.074 756.699 356.639 751.13 356.433V356.433Z" fill="#293856"/>
<path d="M837.485 356.433C810.539 356.433 793.564 343.525 793.564 312.997V154H834.968V307.317C834.968 316.127 840.808 319.257 848.037 319.257C850.074 319.299 852.112 319.202 854.136 318.967V354.755C848.691 356.086 843.086 356.651 837.485 356.433V356.433Z" fill="#293856"/>
<path d="M873.98 282.633C873.98 237.777 899.797 207.087 944.266 207.087C988.734 207.087 1014 237.68 1014 282.633C1014 327.585 988.444 358.726 944.266 358.726C900.087 358.726 873.98 327.198 873.98 282.633V282.633ZM914.286 282.633C914.286 304.48 923.451 321.809 944.266 321.809C965.08 321.809 973.729 304.48 973.729 282.633C973.729 260.786 964.854 243.908 944.266 243.908C923.677 243.908 914.286 260.753 914.286 282.633Z" fill="#293856"/>
<path d="M582.029 295.761C593.54 297.026 605.108 297.704 616.688 297.794C648.184 297.794 674.775 289.339 674.775 258.844C674.775 229.251 647.441 207.017 614.558 207.017C570.283 207.017 541.917 239.126 541.917 283.982C541.917 330.549 566.378 358.204 621.657 358.204C638.057 358.338 654.338 355.427 669.676 349.62V314.833C655.477 319.383 639.503 323.901 623.11 323.901C601.101 323.901 585.773 316.672 582.029 295.761V295.761ZM613.719 238.707C625.368 238.707 634.727 246.613 634.727 257.424C634.727 271.332 620.044 275.689 603.134 275.689C595.937 275.656 588.753 275.084 581.642 273.978C582.179 267.197 584.124 260.603 587.354 254.616C592.629 244.955 602.712 238.896 613.719 238.771V238.707Z" fill="#293856"/>
<defs>
<linearGradient id="paint0_linear_420_26" x1="110.813" y1="355.303" x2="110.813" y2="154" gradientUnits="userSpaceOnUse">
<stop stop-color="#0052CC"/>
<stop offset="1" stop-color="#2684FF"/>
</linearGradient>
</defs>
</svg>
