<svg width="1024" height="512" viewBox="0 0 1024 512" fill="none" xmlns="http://www.w3.org/2000/svg">
<path d="M423.14 271.8V167.169H466.993V273.339C466.993 291.034 476.225 302.574 497.766 302.574C517.77 302.574 527.771 290.264 527.771 272.569V167.169H571.624V271.8C571.624 312.575 547.005 337.195 497.766 337.195C447.759 337.964 423.14 313.345 423.14 271.8ZM591.627 207.175H630.864V224.87H631.633C640.865 211.021 653.175 204.097 670.87 204.097C698.566 204.097 714.723 224.1 714.723 252.566V334.887H673.947V260.26C673.947 247.181 667.023 237.949 653.944 237.949C640.865 237.949 631.633 249.489 631.633 264.876V334.887H590.858V207.175H591.627ZM735.495 157.167H776.271V190.249H735.495V157.167ZM735.495 207.175H776.271V334.117H735.495V207.175ZM807.814 301.035V240.257H790.888V207.175H807.814V167.169H847.051V207.175H870.131V240.257H847.051V292.572C847.051 302.574 852.436 304.882 860.899 304.882H870.131V334.117C866.284 334.887 858.591 336.425 847.82 336.425C824.74 336.425 807.814 328.732 807.814 301.035ZM895.52 344.888H909.368C920.908 344.888 926.294 340.272 926.294 331.809C926.294 326.424 923.986 318.73 918.6 305.651L880.902 207.944H923.216L940.142 261.798C943.989 274.108 947.835 291.034 947.835 291.034H948.605C948.605 291.034 952.452 274.108 956.298 261.798L973.224 207.944H1014L970.147 336.425C960.145 366.43 947.835 376.431 922.447 376.431H896.289L895.52 344.888Z" fill="white"/>
<path d="M173.102 440.287L322.355 354.12L265.423 321.038L206.953 354.89C204.645 356.428 202.337 354.89 202.337 351.812V271.8C202.337 269.492 203.876 267.184 205.414 266.414L274.656 226.408C276.964 224.87 279.272 226.408 279.272 229.486V297.188L336.203 330.27V157.167L173.102 251.797V440.287Z" fill="#808080"/>
<path d="M187.72 71V137.164L246.19 171.015C248.498 172.554 248.498 175.631 246.19 176.401L176.949 216.407C174.641 217.946 172.333 217.176 170.794 216.407L101.553 176.401C99.2445 175.631 99.2445 171.785 101.553 171.015L160.023 137.164V71L10 157.167L173.102 251.797L336.204 157.167L187.72 71Z" fill="white"/>
<path d="M140.02 354.89L81.5494 321.038L24.6176 354.12L173.871 440.287V251.797L10 157.167V329.501V328.732V329.501L66.9318 296.419V228.716C66.9318 226.408 70.0092 224.87 71.5479 225.639L140.789 265.645C143.097 267.184 143.867 268.723 143.867 271.031V351.043C144.636 354.12 142.328 356.428 140.02 354.89Z" fill="#C0C0C0"/>
</svg>
