<svg width="512" height="512" viewBox="0 0 512 512" fill="none" xmlns="http://www.w3.org/2000/svg">
<path fill-rule="evenodd" clip-rule="evenodd" d="M403 291.035C398.753 311.446 379.878 363.841 319.676 392.21L295.504 365.086L254.709 406C231.498 405.69 208.673 400.029 188.018 389.459C167.363 378.889 149.438 363.697 135.644 345.07C139.977 346.417 144.451 347.258 148.978 347.576C155.661 347.697 162.891 345.252 162.891 334.06V223.651C162.985 220.813 162.413 217.992 161.22 215.414C160.028 212.835 158.248 210.571 156.022 208.8C153.797 207.03 151.188 205.803 148.403 205.217C145.618 204.632 142.734 204.703 139.982 205.426C121.092 209.77 106.007 256.789 106.007 256.789C105.795 235.08 110.325 213.586 119.281 193.801C128.237 174.015 141.404 156.413 157.868 142.218C179.538 123.518 206.064 111.309 234.388 107C213.762 118.724 202.179 137.845 202.179 153.882C202.179 179.7 217.766 176.571 222.378 172.775V321.789C223.164 323.658 224.187 325.419 225.422 327.028C227.483 329.872 230.195 332.182 233.333 333.768C236.471 335.353 239.943 336.166 243.46 336.14C259.062 336.14 279.308 318.371 279.308 318.371V197.757C279.308 185.486 270.037 170.664 260.752 165.576C260.752 165.576 277.938 162.539 291.196 172.668C293.687 169.633 296.334 166.728 299.126 163.966C330.072 133.668 359.222 125.042 383.501 120.729C383.501 120.729 339.358 155.34 339.358 201.782C339.358 236.317 340.256 320.543 340.256 320.543C356.634 336.322 380.989 313.527 403 291.035Z" fill="black"/>
<path fill-rule="evenodd" clip-rule="evenodd" d="M256 10C207.346 10 159.784 24.4276 119.33 51.4585C78.8753 78.4893 47.3449 116.909 28.7257 161.86C10.1066 206.81 5.23497 256.273 14.7269 303.992C24.2189 351.711 47.6481 395.544 82.0518 429.948C116.456 464.352 160.289 487.781 208.008 497.273C255.727 506.765 305.19 501.893 350.14 483.274C395.091 464.655 433.511 433.125 460.542 392.67C487.572 352.216 502 304.654 502 256C502 190.757 476.082 128.186 429.948 82.0517C383.814 35.9178 321.243 10 256 10V10ZM256 492.144C209.291 492.144 163.632 478.293 124.795 452.343C85.9588 426.393 55.6897 389.509 37.8158 346.356C19.9419 303.202 15.2661 255.718 24.3796 209.907C33.4931 164.096 55.9866 122.016 89.0156 88.9895C122.045 55.9626 164.126 33.4718 209.937 24.3613C255.748 15.2507 303.233 19.9296 346.385 37.8063C389.537 55.683 426.419 85.9545 452.367 124.793C478.314 163.631 492.162 209.291 492.159 256C492.159 318.633 467.278 378.701 422.99 422.99C378.701 467.278 318.633 492.159 256 492.159V492.144Z" fill="black"/>
</svg>
